<svg xmlns="http://www.w3.org/2000/svg" xmlns:xlink="http://www.w3.org/1999/xlink" width="247" height="213" viewBox="0 0 247 213">
  <defs>
    <clipPath id="clip-creadores-logo-white-medium">
      <rect width="247" height="213"/>
    </clipPath>
  </defs>
  <g id="creadores-logo-white-medium" clip-path="url(#clip-creadores-logo-white-medium)">
    <g id="Grupo_272" data-name="Grupo 272" transform="translate(-1625.646 -537.479) rotate(-9)">
      <path id="Trazado_67" data-name="Trazado 67" d="M-24.476-32.462l-.1,1.651q0,.485-.485,6.117-.388,4.272-.388,6.6,0,2.913.1,4.855a11.913,11.913,0,0,1,.1,1.651q0,1.068-.485,1.068t-1.068-.971a10.931,10.931,0,0,0-4.563-4.563Q-38.651-9.84-47-9.84q-12.719,0-22.428-9.515-10.292-10.1-10.292-25.438,0-14.855,9.272-24.807a30.339,30.339,0,0,1,23.157-9.952,22.507,22.507,0,0,1,11.457,2.913,10.306,10.306,0,0,0,4.272,1.651,5.171,5.171,0,0,0,3.787-1.845q1.262-1.359,1.553-1.359.388,0,.388.68a5.842,5.842,0,0,1-.1.874,48,48,0,0,0-.583,8.156q0,.485.1,3.981v6.7q0,1.748-.971,1.748-.777,0-1.553-3.787-3.5-17.477-16.02-17.477-9.9,0-14.37,12.816-3.107,8.738-3.107,20.972,0,18.156,7.379,26.6a12.858,12.858,0,0,0,10.195,4.466q13.69,0,17.962-18.253.68-3.01,1.553-3.01Q-24.379-33.724-24.476-32.462ZM17.08-47.22a6.549,6.549,0,0,1-1.651,4.612,5.536,5.536,0,0,1-4.272,1.8q-5.243,0-5.243-4.855a5.424,5.424,0,0,1,1.262-3.3,1.2,1.2,0,0,0,.291-.68q0-.874-1.262-.874-3.3,0-5.049,5.146Q.186-42.463.186-31.1v7.088l.1,8.544A2.518,2.518,0,0,0,2.9-12.655q1.553.1,3.69.1,1.068.1,1.068.68,0,.777-.874.777H4.846q-.874-.1-8.447-.1.388,0-4.369.1l-4.758.1h-3.69q-.971.1-2.233.1-1.068,0-1.068-.68t1.359-.68q3.981-.1,4.806-.825t.825-4.321l-.1-26.215q0-3.3-.922-4.563t-4.126-1.553a28.538,28.538,0,0,1-2.864-.291q-.34-.1-.34-.68t.777-.583a13.323,13.323,0,0,1,1.651.1h1.942A47.82,47.82,0,0,0-.591-54.308a18.5,18.5,0,0,1,.485,4.466v4.078q1.845-4.758,4.029-6.7A8.23,8.23,0,0,1,9.6-54.405a7.387,7.387,0,0,1,5.389,2.039A6.891,6.891,0,0,1,17.08-47.22ZM59.121-23.044q0,2.136-2.524,5.631Q51.159-9.937,42.421-9.937q-9.806,0-16.117-6.214T19.993-32.074a22,22,0,0,1,6.117-15.875,20.285,20.285,0,0,1,15.244-6.36,19.645,19.645,0,0,1,10.583,2.719,13.88,13.88,0,0,1,6.311,8.641,30.893,30.893,0,0,1,.583,4.175q-2.233.194-17.962.291-2.427,0-6.117.194-.291,3.5-.291,5.923,0,11.36,4.758,16.117a9.375,9.375,0,0,0,6.894,2.816,10.893,10.893,0,0,0,6.554-2.33,14.909,14.909,0,0,0,4.806-6.02q.777-1.845,1.262-1.845Q59.121-23.627,59.121-23.044ZM46.887-39.938q.1-7.476-1.068-10.389a4.129,4.129,0,0,0-4.078-2.913q-5.923,0-6.8,13.3,2.039-.1,8.544-.1Q45.431-40.035,46.887-39.938Z" transform="translate(1596 899)" fill="#fff"/>
      <path id="Trazado_66" data-name="Trazado 66" d="M-37.723-16.361q0,.777-1.553,2.136a14.755,14.755,0,0,1-10.292,3.787q-3.981,0-5.777-1.651t-2.379-5.923q-4.369,7.962-11.942,7.962a9.033,9.033,0,0,1-6.748-2.621,9.29,9.29,0,0,1-2.573-6.8q0-12.234,20.972-14.467v-2.039q0-9.709-.68-11.942l-.1-.485q-1.359-4.855-6.894-4.855a7.163,7.163,0,0,0-5.146,1.845,5.154,5.154,0,0,0-1.942,3.592q0,.971,2.33,1.165,3.5.291,3.5,4.272a4.805,4.805,0,0,1-1.408,3.544A4.927,4.927,0,0,1-72-37.43a6.439,6.439,0,0,1-4.612-1.7,5.689,5.689,0,0,1-1.8-4.321q0-4.175,4.175-7.573t10.971-3.4q10.1,0,14.078,3.592,3.2,3.01,3.2,10.486v16.6q0,4.855.1,5.631.485,4.078,2.816,4.078,1.651,0,4.078-2.33a1.329,1.329,0,0,1,.777-.485A.429.429,0,0,1-37.723-16.361ZM-58.015-27.915v-4.758q-9.418,1.845-9.418,10.68,0,6.8,4.66,6.8,2.621,0,3.69-2.913T-58.015-27.915ZM10.921-13.06q0,.68-1.942.68l-4.369-.1a22.686,22.686,0,0,0-10,2.33,4.058,4.058,0,0,1-.68.194q-.874,0-.971-1.748a14.076,14.076,0,0,0-.291-2.427A13.39,13.39,0,0,1-17.625-9.953,17.9,17.9,0,0,1-31.7-16.264q-5.534-6.311-5.534-16.02,0-9.9,5.631-15.972t14.855-6.068a12.257,12.257,0,0,1,9.806,4.466V-63.451q0-8.738-.777-10.34t-5.146-1.5q-2.524,0-2.524-.68t1.165-.68A54.267,54.267,0,0,0,2.668-79.277a6.179,6.179,0,0,1,1.651-.388q1.068,0,1.068,2.33l.1,4.855.1,9.321v46.313a3.661,3.661,0,0,0,.485,2.233q.68.874,3.4.777Q10.921-13.933,10.921-13.06ZM-7.041-21.8V-42.964q0-4.369-1.456-6.505a5.877,5.877,0,0,0-5.146-2.719q-9.321,0-9.321,20.681,0,9.224,2.379,14.273t6.651,5.049a6.469,6.469,0,0,0,4.709-2.282Q-7.041-16.749-7.041-21.8ZM58.2-31.8A20.343,20.343,0,0,1,50.049-15,22.239,22.239,0,0,1,35.971-9.953a21.717,21.717,0,0,1-15.778-6.554,21.025,21.025,0,0,1-6.651-15.486,21.462,21.462,0,0,1,6.651-15.875,22.057,22.057,0,0,1,16.069-6.554A20.82,20.82,0,0,1,51.748-47.77,22.112,22.112,0,0,1,58.2-31.8Zm-14.661.1q0-12.039-1.651-16.506-1.845-4.952-5.923-4.952-3.787,0-5.923,5.194T27.912-33.643q0,12.719,2.524,18.059,2.039,4.272,5.728,4.272,4.563,0,6.02-5.437Q43.544-21.895,43.544-31.7Z" transform="translate(1674.945 954.006)" fill="#fff"/>
      <path id="Trazado_65" data-name="Trazado 65" d="M-29.247-43.355A6.55,6.55,0,0,1-30.9-38.743a5.536,5.536,0,0,1-4.272,1.8q-5.243,0-5.243-4.855a5.424,5.424,0,0,1,1.262-3.3,1.2,1.2,0,0,0,.291-.68q0-.874-1.262-.874-3.3,0-5.049,5.146-.971,2.913-.971,14.273v7.088l.1,8.544A2.518,2.518,0,0,0-43.423-8.79q1.553.1,3.69.1,1.068.1,1.068.68,0,.777-.874.777h-1.942q-.874-.1-8.447-.1.388,0-4.369.1l-4.758.1h-3.69q-.971.1-2.233.1-1.068,0-1.068-.68t1.359-.68q3.981-.1,4.806-.825t.825-4.321l-.1-26.215q0-3.3-.922-4.563T-64.2-45.879a28.537,28.537,0,0,1-2.864-.291q-.34-.1-.34-.68t.777-.583a13.322,13.322,0,0,1,1.651.1h1.942a47.82,47.82,0,0,0,16.117-3.107,18.5,18.5,0,0,1,.485,4.466V-41.9q1.845-4.758,4.029-6.7a8.23,8.23,0,0,1,5.68-1.942A7.387,7.387,0,0,1-31.335-48.5,6.891,6.891,0,0,1-29.247-43.355ZM12.794-19.179q0,2.136-2.524,5.631Q4.832-6.071-3.906-6.071q-9.806,0-16.117-6.214t-6.311-15.923a22,22,0,0,1,6.117-15.875,20.285,20.285,0,0,1,15.244-6.36A19.645,19.645,0,0,1,5.609-47.724a13.88,13.88,0,0,1,6.311,8.641,30.893,30.893,0,0,1,.583,4.175q-2.233.194-17.962.291-2.427,0-6.117.194-.291,3.5-.291,5.923,0,11.36,4.758,16.117A9.375,9.375,0,0,0-.216-9.566,10.893,10.893,0,0,0,6.337-11.9a14.909,14.909,0,0,0,4.806-6.02q.777-1.845,1.262-1.845Q12.794-19.761,12.794-19.179ZM.56-36.073q.1-7.476-1.068-10.389a4.129,4.129,0,0,0-4.078-2.913q-5.923,0-6.8,13.3,2.039-.1,8.544-.1Q-.9-36.17.56-36.073Zm46.6,15.341A14.342,14.342,0,0,1,43.184-10.2,13.836,13.836,0,0,1,32.892-6.168a22.165,22.165,0,0,1-7.379-1.553A18.2,18.2,0,0,0,20.95-8.984a2.361,2.361,0,0,0-2.427,1.359q-.583,1.359-.874,1.359-.583,0-.583-.68A13.625,13.625,0,0,1,17.26-8.79a47.5,47.5,0,0,0,.291-6.408v-.971a18.2,18.2,0,0,1-.1-2.136v-1.651q0-1.068.485-1.068.583,0,.874,1.456a14.021,14.021,0,0,0,4.952,8.593,13.782,13.782,0,0,0,9.127,3.447,7.026,7.026,0,0,0,5.194-1.99,7.026,7.026,0,0,0,1.99-5.194,5.659,5.659,0,0,0-1.845-4.272q-1.359-1.262-7.282-3.2-7.282-2.427-10.535-5.874a12.289,12.289,0,0,1-3.253-8.787,13.381,13.381,0,0,1,3.884-9.709,12.78,12.78,0,0,1,9.515-3.981,34.717,34.717,0,0,1,7.379,1.359,5.311,5.311,0,0,0,1.165.194q2.136,0,3.2-2.622.194-.485.485-.485.68,0,.68,1.165l-.1,1.845a6.433,6.433,0,0,0-.1,1.359,70.6,70.6,0,0,0,.485,8.156v.485q0,.777-.583.777-.485,0-.777-.874-2.816-9.9-11.457-9.9a7.962,7.962,0,0,0-5.292,1.748,5.566,5.566,0,0,0-2.088,4.466,4.906,4.906,0,0,0,1.748,3.981,25.139,25.139,0,0,0,6.8,3.3q8.835,3.107,11.942,6.214T47.165-20.732Z" transform="translate(1618.324 1005.975)" fill="#fff"/>
      <path id="Trazado_64" data-name="Trazado 64" d="M-32.668-6.259a2.433,2.433,0,0,1-.7,1.8,2.433,2.433,0,0,1-1.8.7A2.52,2.52,0,0,1-37-4.48a2.388,2.388,0,0,1-.74-1.779A2.488,2.488,0,0,1-37-8.091a2.488,2.488,0,0,1,1.832-.74,2.4,2.4,0,0,1,1.761.74A2.488,2.488,0,0,1-32.668-6.259Zm14.514-.07q0,.388-.669,1.022a6.586,6.586,0,0,1-4.756,1.656q-2.783,0-3.664-1.374a2.288,2.288,0,0,1-.405-.986q-.053-.458-.053-2.36v-3.1l-.035-.74v-3.171l-.035-2.536q0-.634-.176-.74A2.905,2.905,0,0,0-29-18.765q-1.057,0-1.057-.282,0-.211.388-.282,3.311-.106,5.707-3.593.317-.493.493-.493.211,0,.211.493-.035,3.03.247,3.311a3.031,3.031,0,0,0,1.726.282,10.4,10.4,0,0,0,2.078-.141.313.313,0,0,1,.141-.035q.141,0,.141.211,0,.493-.458.493-1.444.035-3.206.035-.141,0-.493-.035v.74q0,9.441.247,11.062.317,2.043,1.973,2.043a3.257,3.257,0,0,0,1.9-1.057q.564-.493.7-.493Q-18.154-6.506-18.154-6.329ZM-4.168-8.373a3.9,3.9,0,0,1-.916,2.043,6.083,6.083,0,0,1-5.143,2.713,7.986,7.986,0,0,1-5.848-2.255,7.758,7.758,0,0,1-2.29-5.777,7.981,7.981,0,0,1,2.219-5.76,7.36,7.36,0,0,1,5.531-2.307,7.128,7.128,0,0,1,3.84.986,5.036,5.036,0,0,1,2.29,3.135,11.209,11.209,0,0,1,.211,1.515q-.81.07-6.517.106-.881,0-2.219.07-.106,1.268-.106,2.149,0,4.122,1.726,5.848a3.4,3.4,0,0,0,2.5,1.022,3.952,3.952,0,0,0,2.378-.845A5.409,5.409,0,0,0-4.767-7.915q.282-.669.458-.669Q-4.168-8.584-4.168-8.373ZM-8.607-14.5a11.062,11.062,0,0,0-.388-3.769,1.5,1.5,0,0,0-1.48-1.057q-2.149,0-2.466,4.826.74-.035,3.1-.035Q-9.135-14.538-8.607-14.5Zm19.2-1.62a1.933,1.933,0,0,1-.493,1.374,1.657,1.657,0,0,1-1.268.528q-1.867,0-1.867-1.656a2.816,2.816,0,0,1,.229-1,2.684,2.684,0,0,0,.229-.828,1.509,1.509,0,0,0-.511-1.145,1.767,1.767,0,0,0-1.251-.476q-3.206,0-3.206,7.151,0,4.086,1.409,5.848A3.335,3.335,0,0,0,6.541-4.991q1.656,0,3.382-2.149.211-.282.388-.282.141,0,.141.211,0,.669-1.268,1.867a6.193,6.193,0,0,1-4.4,1.726A7.31,7.31,0,0,1-.628-5.889,7.567,7.567,0,0,1-2.865-11.4,8.162,8.162,0,0,1-.5-17.338a7.812,7.812,0,0,1,5.813-2.413A6.448,6.448,0,0,1,9.06-18.695,3.072,3.072,0,0,1,10.593-16.123ZM29.4-4.181q0,.211-.317.211h-.7Q27.643-4,27.15-4h-.881q-3.03,0-3.734-.07h-.564l-.845.035q-.458.035-.458-.247,0-.211.176-.211l.81.035q.775.035.881-.423.07-.282.07-3.523v-5.249a12.6,12.6,0,0,0-.317-3.875,1.78,1.78,0,0,0-1.761-.916,2.335,2.335,0,0,0-2.114,1.233,5.964,5.964,0,0,0-.352,2.572v5.531q0,2.572.035,2.818v.423l-.035.845q-.035.528,1.48.528.317,0,.317.211,0,.247-.458.247h-.282a7.426,7.426,0,0,0-.845-.035h-1.55L14.75-4.04l-2.078.07H11.614q-.528,0-.528-.211a.142.142,0,0,1,.07-.141.875.875,0,0,1,.317-.035,6.292,6.292,0,0,0,1.585-.106q.247-.106.317-.81.035-.423.035-4.227V-22.429a30.382,30.382,0,0,0-.159-4.386q-.159-.581-1.5-.581-1.022,0-1.022-.211t1.2-.282a22.115,22.115,0,0,0,5.108-.916,2.593,2.593,0,0,1,.669-.141q.282,0,.282,1.973V-24.4q-.035,1.127-.035,1.55v5.6a6.386,6.386,0,0,1,1.99-1.973,5.5,5.5,0,0,1,2.625-.528q3.488,0,4.368,2.818a9.891,9.891,0,0,1,.317,2.959v8.208q0,.916.3,1.127a3.187,3.187,0,0,0,1.5.211Q29.4-4.427,29.4-4.181Z" transform="translate(1707.804 976.939)" fill="#fff"/>
    </g>
  </g>
</svg>
