<svg xmlns="http://www.w3.org/2000/svg" xmlns:xlink="http://www.w3.org/1999/xlink" width="108" height="94" viewBox="0 0 108 94">
  <defs>
    <clipPath id="clip-creadores-logo-white-small">
      <rect width="108" height="94"/>
    </clipPath>
  </defs>
  <g id="creadores-logo-white-small" clip-path="url(#clip-creadores-logo-white-small)">
    <g id="Grupo_271" data-name="Grupo 271" transform="translate(-1626.139 -556.614) rotate(-9)">
      <path id="Trazado_67" data-name="Trazado 67" d="M-55.392-58.814l-.043.727q0,.214-.214,2.694-.171,1.881-.171,2.908,0,1.283.043,2.138a5.246,5.246,0,0,1,.043.727q0,.47-.214.47t-.47-.428a4.814,4.814,0,0,0-2.01-2.01,10.426,10.426,0,0,1-6.884,2.737,13.7,13.7,0,0,1-9.877-4.19,15.039,15.039,0,0,1-4.532-11.2,15.41,15.41,0,0,1,4.083-10.925,13.361,13.361,0,0,1,10.2-4.383,9.912,9.912,0,0,1,5.045,1.283,4.539,4.539,0,0,0,1.881.727,2.277,2.277,0,0,0,1.668-.812q.556-.6.684-.6.171,0,.171.3a2.573,2.573,0,0,1-.043.385,21.139,21.139,0,0,0-.257,3.592q0,.214.043,1.753v2.95q0,.77-.428.77-.342,0-.684-1.668-1.539-7.7-7.055-7.7-4.361,0-6.328,5.644a27.663,27.663,0,0,0-1.368,9.236q0,8,3.25,11.716a5.663,5.663,0,0,0,4.49,1.967q6.029,0,7.91-8.039.3-1.326.684-1.326Q-55.349-59.37-55.392-58.814Zm18.3-6.5a2.884,2.884,0,0,1-.727,2.031,2.438,2.438,0,0,1-1.881.791q-2.309,0-2.309-2.138a2.389,2.389,0,0,1,.556-1.454.528.528,0,0,0,.128-.3q0-.385-.556-.385-1.454,0-2.223,2.266a26.828,26.828,0,0,0-.428,6.285v3.121l.043,3.763a1.109,1.109,0,0,0,1.154,1.24q.684.043,1.625.043.47.043.47.3,0,.342-.385.342h-.855q-.385-.043-3.72-.043.171,0-1.924.043l-2.1.043h-1.625q-.428.043-.983.043-.47,0-.47-.3t.6-.3a4.177,4.177,0,0,0,2.117-.363q.363-.321.363-1.9l-.043-11.545a3.588,3.588,0,0,0-.406-2.01,2.5,2.5,0,0,0-1.817-.684,12.567,12.567,0,0,1-1.261-.128q-.15-.043-.15-.3t.342-.257a5.867,5.867,0,0,1,.727.043h.855a21.06,21.06,0,0,0,7.1-1.368,8.148,8.148,0,0,1,.214,1.967v1.8a7.665,7.665,0,0,1,1.774-2.95,3.624,3.624,0,0,1,2.5-.855,3.253,3.253,0,0,1,2.373.9A3.035,3.035,0,0,1-37.091-65.313Zm18.514,10.647a4.739,4.739,0,0,1-1.112,2.48,7.384,7.384,0,0,1-6.243,3.292,9.693,9.693,0,0,1-7.1-2.737,9.417,9.417,0,0,1-2.779-7.012,9.686,9.686,0,0,1,2.694-6.991,8.933,8.933,0,0,1,6.713-2.8,8.651,8.651,0,0,1,4.661,1.2,6.112,6.112,0,0,1,2.779,3.805,13.605,13.605,0,0,1,.257,1.839q-.983.086-7.91.128-1.069,0-2.694.086-.128,1.539-.128,2.608,0,5,2.1,7.1a4.129,4.129,0,0,0,3.036,1.24A4.8,4.8,0,0,0-21.42-51.46,6.566,6.566,0,0,0-19.3-54.111q.342-.812.556-.812Q-18.577-54.923-18.577-54.667Zm-5.388-7.44a13.427,13.427,0,0,0-.47-4.575,1.819,1.819,0,0,0-1.8-1.283q-2.608,0-2.993,5.858.9-.043,3.763-.043Q-24.606-62.149-23.965-62.107Z" transform="translate(1596 899)" fill="#fff"/>
      <path id="Trazado_66" data-name="Trazado 66" d="M-60.815-51.787q0,.342-.684.941a6.5,6.5,0,0,1-4.532,1.668,3.691,3.691,0,0,1-2.544-.727,4.283,4.283,0,0,1-1.048-2.608q-1.924,3.506-5.259,3.506a3.978,3.978,0,0,1-2.972-1.154,4.091,4.091,0,0,1-1.133-2.993q0-5.388,9.236-6.371v-.9a25.878,25.878,0,0,0-.3-5.259l-.043-.214a2.8,2.8,0,0,0-3.036-2.138,3.154,3.154,0,0,0-2.266.812,2.27,2.27,0,0,0-.855,1.582q0,.428,1.026.513,1.539.128,1.539,1.881a2.116,2.116,0,0,1-.62,1.561,2.17,2.17,0,0,1-1.6.62,2.836,2.836,0,0,1-2.031-.748,2.505,2.505,0,0,1-.791-1.9,4.285,4.285,0,0,1,1.839-3.335,7.415,7.415,0,0,1,4.832-1.5q4.447,0,6.2,1.582,1.411,1.326,1.411,4.618v7.312q0,2.138.043,2.48.214,1.8,1.24,1.8a2.95,2.95,0,0,0,1.8-1.026A.585.585,0,0,1-61.028-52,.189.189,0,0,1-60.815-51.787Zm-8.937-5.088v-2.1q-4.148.812-4.148,4.7,0,2.993,2.052,2.993a1.672,1.672,0,0,0,1.625-1.283A13.9,13.9,0,0,0-69.751-56.875Zm30.358,6.542q0,.3-.855.3l-1.924-.043a9.991,9.991,0,0,0-4.4,1.026,1.787,1.787,0,0,1-.3.086q-.385,0-.428-.77a6.2,6.2,0,0,0-.128-1.069,5.9,5.9,0,0,1-4.532,1.839,7.883,7.883,0,0,1-6.2-2.779A10.31,10.31,0,0,1-60.6-58.8a9.928,9.928,0,0,1,2.48-7.034,8.5,8.5,0,0,1,6.542-2.672,5.4,5.4,0,0,1,4.319,1.967v-5.986a16.082,16.082,0,0,0-.342-4.554q-.342-.706-2.266-.663-1.112,0-1.112-.3t.513-.3a23.9,23.9,0,0,0,7.44-1.154,2.721,2.721,0,0,1,.727-.171q.47,0,.47,1.026l.043,2.138.043,4.1V-52a1.612,1.612,0,0,0,.214.983q.3.385,1.5.342Q-39.393-50.718-39.393-50.333Zm-7.91-3.848V-63.5a5.135,5.135,0,0,0-.641-2.865,2.588,2.588,0,0,0-2.266-1.2q-4.1,0-4.1,9.108a15.121,15.121,0,0,0,1.048,6.285q1.048,2.223,2.929,2.223a2.849,2.849,0,0,0,2.074-1A4.553,4.553,0,0,0-47.3-54.181Zm28.734-4.4a8.959,8.959,0,0,1-3.592,7.4,9.794,9.794,0,0,1-6.2,2.223,9.564,9.564,0,0,1-6.948-2.886,9.259,9.259,0,0,1-2.929-6.82,9.452,9.452,0,0,1,2.929-6.991,9.714,9.714,0,0,1,7.077-2.886,9.169,9.169,0,0,1,6.82,2.929A9.738,9.738,0,0,1-18.569-58.585Zm-6.457.043q0-5.3-.727-7.269-.812-2.181-2.608-2.181-1.668,0-2.608,2.288A17.036,17.036,0,0,0-31.91-59.4q0,5.6,1.112,7.953a2.776,2.776,0,0,0,2.523,1.881q2.01,0,2.651-2.394A27.423,27.423,0,0,0-25.026-58.542Z" transform="translate(1630.356 923.287)" fill="#fff"/>
      <path id="Trazado_65" data-name="Trazado 65" d="M-50.6-48.245a2.884,2.884,0,0,1-.727,2.031,2.438,2.438,0,0,1-1.881.791q-2.309,0-2.309-2.138a2.389,2.389,0,0,1,.556-1.454.528.528,0,0,0,.128-.3q0-.385-.556-.385-1.454,0-2.223,2.266a26.829,26.829,0,0,0-.428,6.285v3.121L-58-34.263a1.109,1.109,0,0,0,1.154,1.24q.684.043,1.625.043.47.043.47.3,0,.342-.385.342h-.855q-.385-.043-3.72-.043.171,0-1.924.043l-2.1.043h-1.625q-.428.043-.983.043-.47,0-.47-.3t.6-.3a4.177,4.177,0,0,0,2.117-.363q.363-.321.363-1.9l-.043-11.545a3.588,3.588,0,0,0-.406-2.01,2.5,2.5,0,0,0-1.817-.684,12.567,12.567,0,0,1-1.261-.128q-.15-.043-.15-.3t.342-.257a5.867,5.867,0,0,1,.727.043h.855a21.059,21.059,0,0,0,7.1-1.368,8.148,8.148,0,0,1,.214,1.967v1.8a7.665,7.665,0,0,1,1.774-2.95,3.624,3.624,0,0,1,2.5-.855,3.253,3.253,0,0,1,2.373.9A3.035,3.035,0,0,1-50.6-48.245ZM-32.086-37.6a4.739,4.739,0,0,1-1.112,2.48,7.384,7.384,0,0,1-6.243,3.292,9.693,9.693,0,0,1-7.1-2.737,9.417,9.417,0,0,1-2.779-7.012,9.686,9.686,0,0,1,2.694-6.991,8.933,8.933,0,0,1,6.713-2.8,8.651,8.651,0,0,1,4.661,1.2,6.112,6.112,0,0,1,2.779,3.805,13.6,13.6,0,0,1,.257,1.839q-.983.086-7.91.128-1.069,0-2.694.086-.128,1.539-.128,2.608,0,5,2.1,7.1a4.129,4.129,0,0,0,3.036,1.24,4.8,4.8,0,0,0,2.886-1.026,6.566,6.566,0,0,0,2.117-2.651q.342-.812.556-.812Q-32.086-37.854-32.086-37.6Zm-5.388-7.44a13.427,13.427,0,0,0-.47-4.575,1.819,1.819,0,0,0-1.8-1.283q-2.608,0-2.993,5.858.9-.043,3.763-.043Q-38.115-45.081-37.474-45.038Zm20.524,6.756A6.316,6.316,0,0,1-18.7-33.643a6.093,6.093,0,0,1-4.532,1.774,9.761,9.761,0,0,1-3.25-.684,8.013,8.013,0,0,0-2.01-.556,1.04,1.04,0,0,0-1.069.6q-.257.6-.385.6-.257,0-.257-.3a6,6,0,0,1,.086-.812,20.918,20.918,0,0,0,.128-2.822v-.428a8.013,8.013,0,0,1-.043-.941v-.727q0-.47.214-.47.257,0,.385.641a6.175,6.175,0,0,0,2.181,3.784,6.07,6.07,0,0,0,4.019,1.518,3.094,3.094,0,0,0,2.288-.877,3.094,3.094,0,0,0,.877-2.288,2.492,2.492,0,0,0-.812-1.881,10.645,10.645,0,0,0-3.207-1.411A11.215,11.215,0,0,1-28.73-41.51a5.412,5.412,0,0,1-1.432-3.87,5.893,5.893,0,0,1,1.71-4.276,5.628,5.628,0,0,1,4.19-1.753,15.289,15.289,0,0,1,3.25.6,2.339,2.339,0,0,0,.513.086q.941,0,1.411-1.154.086-.214.214-.214.3,0,.3.513l-.043.812a2.833,2.833,0,0,0-.043.6,31.091,31.091,0,0,0,.214,3.592v.214q0,.342-.257.342-.214,0-.342-.385-1.24-4.361-5.045-4.361a3.506,3.506,0,0,0-2.33.77,2.451,2.451,0,0,0-.919,1.967,2.161,2.161,0,0,0,.77,1.753,11.071,11.071,0,0,0,2.993,1.454,14.711,14.711,0,0,1,5.259,2.737A5.144,5.144,0,0,1-16.95-38.282Z" transform="translate(1598.939 930.744)" fill="#fff"/>
      <path id="Trazado_64" data-name="Trazado 64" d="M-35.506-18.955a1.072,1.072,0,0,1-.31.791,1.072,1.072,0,0,1-.791.31,1.11,1.11,0,0,1-.807-.318,1.052,1.052,0,0,1-.326-.783,1.1,1.1,0,0,1,.326-.807,1.1,1.1,0,0,1,.807-.326,1.059,1.059,0,0,1,.776.326A1.1,1.1,0,0,1-35.506-18.955Zm6.392-.031q0,.171-.295.45a2.9,2.9,0,0,1-2.094.729,1.791,1.791,0,0,1-1.613-.605,1.007,1.007,0,0,1-.178-.434q-.023-.2-.023-1.039v-1.365l-.016-.326v-1.4l-.016-1.117q0-.279-.078-.326a1.279,1.279,0,0,0-.465-.047q-.465,0-.465-.124,0-.093.171-.124a3.159,3.159,0,0,0,2.513-1.582q.14-.217.217-.217.093,0,.093.217a3.926,3.926,0,0,0,.109,1.458,1.335,1.335,0,0,0,.76.124,4.578,4.578,0,0,0,.915-.062.138.138,0,0,1,.062-.016q.062,0,.062.093,0,.217-.2.217-.636.016-1.412.016-.062,0-.217-.016v.326q0,4.158.109,4.871.14.9.869.9a1.434,1.434,0,0,0,.838-.465q.248-.217.31-.217Q-29.115-19.064-29.115-18.986Zm6.159-.9a1.719,1.719,0,0,1-.4.9,2.679,2.679,0,0,1-2.265,1.195,3.517,3.517,0,0,1-2.575-.993,3.417,3.417,0,0,1-1.008-2.544,3.515,3.515,0,0,1,.977-2.537,3.241,3.241,0,0,1,2.436-1.016,3.139,3.139,0,0,1,1.691.434A2.218,2.218,0,0,1-23.1-23.066,4.936,4.936,0,0,1-23-22.4q-.357.031-2.87.047-.388,0-.977.031-.047.559-.047.946a3.565,3.565,0,0,0,.76,2.575,1.5,1.5,0,0,0,1.1.45,1.741,1.741,0,0,0,1.047-.372,2.382,2.382,0,0,0,.768-.962q.124-.295.2-.295Q-22.956-19.979-22.956-19.886Zm-1.955-2.7a4.872,4.872,0,0,0-.171-1.66.66.66,0,0,0-.652-.465q-.946,0-1.086,2.125.326-.016,1.365-.016Q-25.143-22.6-24.91-22.585Zm8.455-.714a.851.851,0,0,1-.217.605.73.73,0,0,1-.559.233q-.822,0-.822-.729a1.24,1.24,0,0,1,.1-.442,1.182,1.182,0,0,0,.1-.365.664.664,0,0,0-.225-.5.778.778,0,0,0-.551-.209q-1.412,0-1.412,3.149a4.165,4.165,0,0,0,.621,2.575,1.469,1.469,0,0,0,1.179.59,2.047,2.047,0,0,0,1.489-.946q.093-.124.171-.124.062,0,.062.093,0,.295-.559.822a2.727,2.727,0,0,1-1.939.76,3.219,3.219,0,0,1-2.381-1,3.332,3.332,0,0,1-.985-2.428,3.594,3.594,0,0,1,1.039-2.614,3.44,3.44,0,0,1,2.56-1.063,2.84,2.84,0,0,1,1.652.465A1.353,1.353,0,0,1-16.455-23.3Zm8.285,5.259q0,.093-.14.093h-.31q-.326-.016-.543-.016h-.388q-1.334,0-1.644-.031h-.248l-.372.016q-.2.016-.2-.109,0-.093.078-.093l.357.016q.341.016.388-.186.031-.124.031-1.551v-2.312a5.547,5.547,0,0,0-.14-1.707.784.784,0,0,0-.776-.4,1.028,1.028,0,0,0-.931.543,2.627,2.627,0,0,0-.155,1.133v2.436q0,1.133.016,1.241v.186l-.016.372q-.016.233.652.233.14,0,.14.093,0,.109-.2.109H-12.7a3.27,3.27,0,0,0-.372-.016h-.683l-.869.016-.915.031h-.465q-.233,0-.233-.093a.063.063,0,0,1,.031-.062.385.385,0,0,1,.14-.016,2.771,2.771,0,0,0,.7-.047q.109-.047.14-.357.016-.186.016-1.862v-5.694a13.38,13.38,0,0,0-.07-1.932q-.07-.256-.659-.256-.45,0-.45-.093t.527-.124a9.739,9.739,0,0,0,2.25-.4,1.142,1.142,0,0,1,.295-.062q.124,0,.124.869v1.133q-.016.5-.016.683V-23.8a2.812,2.812,0,0,1,.877-.869A2.424,2.424,0,0,1-11.18-24.9a1.777,1.777,0,0,1,1.924,1.241,4.356,4.356,0,0,1,.14,1.3v3.615q0,.4.132.5a1.4,1.4,0,0,0,.659.093Q-8.171-18.148-8.171-18.04Z" transform="translate(1621.744 905.004)" fill="#fff"/>
    </g>
  </g>
</svg>
