<svg xmlns="http://www.w3.org/2000/svg" xmlns:xlink="http://www.w3.org/1999/xlink" width="480" height="80" viewBox="0 0 480 80">
  <defs>
    <linearGradient id="linear-gradient" x1="-0.067" y1="-0.098" x2="1.083" y2="1.065" gradientUnits="objectBoundingBox">
      <stop offset="0" stop-color="#f02e2e"/>
      <stop offset="1" stop-color="#d32fba"/>
    </linearGradient>
    <clipPath id="clip-Mesa_de_trabajo_3">
      <rect width="480" height="80"/>
    </clipPath>
  </defs>
  <g id="Mesa_de_trabajo_3" data-name="Mesa de trabajo – 3" clip-path="url(#clip-Mesa_de_trabajo_3)">
    <g id="desktop" transform="translate(4.483 7)">
      <g id="Grupo_44" data-name="Grupo 44" transform="translate(0 0)">
        <g id="Grupo_43" data-name="Grupo 43">
          <path id="Trazado_29" data-name="Trazado 29" d="M64.673,12.5H5.607A5.614,5.614,0,0,0,0,18.107v44.86a5.614,5.614,0,0,0,5.607,5.607H27.29V76.8h-7.85a1.121,1.121,0,1,0,0,2.243h31.4a1.121,1.121,0,0,0,0-2.243h-7.85V68.575H64.673a5.614,5.614,0,0,0,5.607-5.607V18.107A5.614,5.614,0,0,0,64.673,12.5ZM40.748,76.8H29.533V68.575H40.748Zm27.29-13.832a3.368,3.368,0,0,1-3.365,3.364H5.607a3.368,3.368,0,0,1-3.364-3.364V59.6H68.038Zm0-5.607H2.243V18.107a3.368,3.368,0,0,1,3.364-3.364H64.673a3.368,3.368,0,0,1,3.365,3.364Z" transform="translate(0 -12.5)" fill="url(#linear-gradient)"/>
          <path id="Trazado_30" data-name="Trazado 30" d="M90.187,42.5H31.121A1.122,1.122,0,0,0,30,43.621V79.509a1.122,1.122,0,0,0,1.121,1.121h48.6a1.121,1.121,0,1,0,0-2.243H32.243V44.743H89.066V78.388h-4.86a1.121,1.121,0,1,0,0,2.243h5.981a1.122,1.122,0,0,0,1.121-1.121V43.621A1.122,1.122,0,0,0,90.187,42.5Z" transform="translate(-25.514 -38.014)" fill="url(#linear-gradient)"/>
        </g>
      </g>
    </g>
    <g id="smartphone" transform="translate(100.85 7)">
      <g id="Grupo_46" data-name="Grupo 46" transform="translate(12.2 3.327)">
        <g id="Grupo_45" data-name="Grupo 45">
          <path id="Trazado_31" data-name="Trazado 31" d="M444.2,54h-11.09a1.109,1.109,0,1,0,0,2.218H444.2a1.109,1.109,0,0,0,0-2.218Z" transform="translate(-432.002 -54)" fill="url(#linear-gradient)"/>
        </g>
      </g>
      <g id="Grupo_48" data-name="Grupo 48" transform="translate(29.944 3.327)">
        <g id="Grupo_47" data-name="Grupo 47">
          <path id="Trazado_32" data-name="Trazado 32" d="M722.219,54H721.11a1.109,1.109,0,0,0,0,2.218h1.109a1.109,1.109,0,1,0,0-2.218Z" transform="translate(-720.002 -54)" fill="url(#linear-gradient)"/>
        </g>
      </g>
      <g id="Grupo_50" data-name="Grupo 50" transform="translate(14.418 56.561)">
        <g id="Grupo_49" data-name="Grupo 49">
          <path id="Trazado_33" data-name="Trazado 33" d="M473.814,918h-2.754a3.064,3.064,0,0,0-3.06,3.06v.536a3.062,3.062,0,0,0,3.059,3.059h2.754a3.063,3.063,0,0,0,3.06-3.059v-.536A3.063,3.063,0,0,0,473.814,918Zm.841,3.6a.841.841,0,0,1-.841.841h-2.754a.842.842,0,0,1-.842-.841v-.536a.842.842,0,0,1,.842-.842h2.753a.842.842,0,0,1,.842.842Z" transform="translate(-468.001 -918)" fill="url(#linear-gradient)"/>
        </g>
      </g>
      <g id="Grupo_52" data-name="Grupo 52">
        <g id="Grupo_51" data-name="Grupo 51">
          <path id="Trazado_34" data-name="Trazado 34" d="M267.7,0h-29.69A4.014,4.014,0,0,0,234,4.009V62.533a4.014,4.014,0,0,0,4.009,4.009H267.7a4.014,4.014,0,0,0,4.009-4.008V4.009A4.014,4.014,0,0,0,267.7,0Zm1.79,62.533a1.793,1.793,0,0,1-1.79,1.791h-29.69a1.793,1.793,0,0,1-1.791-1.79V4.009a1.793,1.793,0,0,1,1.791-1.791H267.7a1.793,1.793,0,0,1,1.791,1.791V62.533Z" transform="translate(-233.999)" fill="url(#linear-gradient)"/>
        </g>
      </g>
      <g id="Grupo_54" data-name="Grupo 54" transform="translate(0 6.654)">
        <g id="Grupo_53" data-name="Grupo 53">
          <path id="Trazado_35" data-name="Trazado 35" d="M270.6,108H235.11A1.109,1.109,0,0,0,234,109.109v46.58a1.109,1.109,0,0,0,1.109,1.109H270.6a1.109,1.109,0,0,0,1.109-1.109v-46.58A1.109,1.109,0,0,0,270.6,108Zm-1.109,46.58H236.219V110.218h33.271Z" transform="translate(-234.001 -108)" fill="url(#linear-gradient)"/>
        </g>
      </g>
    </g>
    <g id="robot" transform="translate(164.029 7)">
      <g id="Grupo_56" data-name="Grupo 56" transform="translate(0 0)">
        <g id="Grupo_55" data-name="Grupo 55">
          <path id="Trazado_36" data-name="Trazado 36" d="M138.158,236.552a4.41,4.41,0,1,0,4.41,4.41A4.415,4.415,0,0,0,138.158,236.552Zm0,6.563a2.153,2.153,0,1,1,2.152-2.153A2.155,2.155,0,0,1,138.158,243.115Z" transform="translate(-115.216 -205.976)" fill="url(#linear-gradient)"/>
          <path id="Trazado_37" data-name="Trazado 37" d="M319,245.371a4.41,4.41,0,1,0-4.41-4.41A4.415,4.415,0,0,0,319,245.371Zm0-6.563a2.153,2.153,0,1,1-2.153,2.153A2.155,2.155,0,0,1,319,238.809Z" transform="translate(-271.002 -205.975)" fill="url(#linear-gradient)"/>
          <path id="Trazado_38" data-name="Trazado 38" d="M63.6,46.551V40.873a3.818,3.818,0,0,0-3.813-3.813H49.129V36.1a3.818,3.818,0,0,0-3.814-3.813H36.6v-3.51a6.5,6.5,0,1,0-2.258,0v3.51H25.627A3.818,3.818,0,0,0,21.814,36.1v.959h-2.6a1.129,1.129,0,1,0,0,2.257H59.783a1.558,1.558,0,0,1,1.556,1.556V71.748A1.558,1.558,0,0,1,59.783,73.3H11.159A1.558,1.558,0,0,1,9.6,71.748v-7s0-.006,0-.009V47.586s0-.006,0-.009v-6.7a1.558,1.558,0,0,1,1.556-1.556H15.45a1.129,1.129,0,0,0,0-2.257H11.159a3.818,3.818,0,0,0-3.814,3.813v5.678C3.205,47.2,0,51.272,0,56.161s3.205,8.958,7.346,9.61v5.977a3.818,3.818,0,0,0,3.814,3.813h13.15a3.791,3.791,0,0,0-.333,1.556v1.491a3.818,3.818,0,0,0,3.814,3.813h9.934a1.129,1.129,0,1,0,0-2.257H27.79a1.558,1.558,0,0,1-1.556-1.556V77.117a1.558,1.558,0,0,1,1.556-1.556H43.152a1.558,1.558,0,0,1,1.556,1.556v1.491a1.558,1.558,0,0,1-1.556,1.556H41.486a1.129,1.129,0,1,0,0,2.257h1.666a3.818,3.818,0,0,0,3.814-3.813V77.117a3.791,3.791,0,0,0-.333-1.556H59.783A3.818,3.818,0,0,0,63.6,71.748V65.771c4.141-.652,7.346-4.72,7.346-9.61S67.737,47.2,63.6,46.551ZM31.231,22.378a4.241,4.241,0,1,1,4.241,4.241A4.246,4.246,0,0,1,31.231,22.378ZM46.871,37.06h-22.8V36.1a1.558,1.558,0,0,1,1.556-1.556H45.315A1.558,1.558,0,0,1,46.872,36.1v.959ZM7.346,63.478c-2.892-.654-5.088-3.692-5.088-7.316s2.2-6.663,5.088-7.316Zm56.251,0V48.845c2.892.654,5.089,3.692,5.089,7.316S66.488,62.824,63.6,63.478Z" transform="translate(0 -15.88)" fill="url(#linear-gradient)"/>
          <path id="Trazado_39" data-name="Trazado 39" d="M207.388,324.821h-9.546a3.818,3.818,0,0,0-3.814,3.813v2.237a3.818,3.818,0,0,0,3.814,3.813h9.546a3.818,3.818,0,0,0,3.814-3.813v-2.237A3.818,3.818,0,0,0,207.388,324.821Zm1.556,6.051a1.558,1.558,0,0,1-1.556,1.556h-9.546a1.558,1.558,0,0,1-1.556-1.556v-2.237a1.558,1.558,0,0,1,1.556-1.556h9.546a1.558,1.558,0,0,1,1.556,1.556Z" transform="translate(-167.144 -282.014)" fill="url(#linear-gradient)"/>
        </g>
      </g>
    </g>
    <g id="browser" transform="translate(247.198 7)">
      <g id="Grupo_12" data-name="Grupo 12" transform="translate(0)">
        <g id="Grupo_11" data-name="Grupo 11">
          <path id="Trazado_13" data-name="Trazado 13" d="M1.55,0V66.542H67.686V0Zm64,64.407H3.685V14.933H65.551Zm0-51.61H3.685V2.135H65.551Z" transform="translate(-1.55)" fill="url(#linear-gradient)"/>
        </g>
      </g>
      <g id="Grupo_14" data-name="Grupo 14" transform="translate(5.331 18.129)">
        <g id="Grupo_13" data-name="Grupo 13">
          <path id="Trazado_14" data-name="Trazado 14" d="M42.25,138.4v43.069H97.711V138.4Zm53.339,40.947h-51.2V140.535h51.2Z" transform="translate(-42.25 -138.4)" fill="url(#linear-gradient)"/>
        </g>
      </g>
      <g id="Grupo_16" data-name="Grupo 16" transform="translate(5.331 6.405)">
        <g id="Grupo_15" data-name="Grupo 15">
          <rect id="Rectángulo_16" data-name="Rectángulo 16" width="2.135" height="2.135" fill="url(#linear-gradient)"/>
        </g>
      </g>
      <g id="Grupo_18" data-name="Grupo 18" transform="translate(9.601 6.405)">
        <g id="Grupo_17" data-name="Grupo 17">
          <rect id="Rectángulo_17" data-name="Rectángulo 17" width="2.135" height="2.135" fill="url(#linear-gradient)"/>
        </g>
      </g>
      <g id="Grupo_20" data-name="Grupo 20" transform="translate(13.859 6.405)">
        <g id="Grupo_19" data-name="Grupo 19">
          <rect id="Rectángulo_18" data-name="Rectángulo 18" width="2.135" height="2.135" fill="url(#linear-gradient)"/>
        </g>
      </g>
      <g id="Grupo_22" data-name="Grupo 22" transform="translate(37.332 6.405)">
        <g id="Grupo_21" data-name="Grupo 21">
          <rect id="Rectángulo_19" data-name="Rectángulo 19" width="23.46" height="2.135" fill="url(#linear-gradient)"/>
        </g>
      </g>
      <g id="Grupo_24" data-name="Grupo 24" transform="translate(10.662 23.46)">
        <g id="Grupo_23" data-name="Grupo 23">
          <path id="Trazado_15" data-name="Trazado 15" d="M82.95,179.1v21.338h17.068V179.1Zm14.933,19.2h-12.8V181.235h12.8Z" transform="translate(-82.95 -179.1)" fill="url(#linear-gradient)"/>
        </g>
      </g>
      <g id="Grupo_26" data-name="Grupo 26" transform="translate(30.926 23.46)">
        <g id="Grupo_25" data-name="Grupo 25">
          <rect id="Rectángulo_20" data-name="Rectángulo 20" width="24.534" height="2.135" fill="url(#linear-gradient)"/>
        </g>
      </g>
      <g id="Grupo_28" data-name="Grupo 28" transform="translate(30.926 33.062)">
        <g id="Grupo_27" data-name="Grupo 27">
          <rect id="Rectángulo_21" data-name="Rectángulo 21" width="24.534" height="2.135" fill="url(#linear-gradient)"/>
        </g>
      </g>
      <g id="Grupo_30" data-name="Grupo 30" transform="translate(30.926 42.663)">
        <g id="Grupo_29" data-name="Grupo 29">
          <rect id="Rectángulo_22" data-name="Rectángulo 22" width="24.534" height="2.135" fill="url(#linear-gradient)"/>
        </g>
      </g>
      <g id="Grupo_32" data-name="Grupo 32" transform="translate(10.662 52.264)">
        <g id="Grupo_31" data-name="Grupo 31">
          <rect id="Rectángulo_23" data-name="Rectángulo 23" width="44.798" height="2.135" fill="url(#linear-gradient)"/>
        </g>
      </g>
    </g>
    <g id="server" transform="translate(335.785 6.855)">
      <g id="Grupo_34" data-name="Grupo 34" transform="translate(0)">
        <g id="Grupo_33" data-name="Grupo 33">
          <path id="Trazado_16" data-name="Trazado 16" d="M95.576,2.51A50.749,50.749,0,0,0,78.92,0,50.78,50.78,0,0,0,62.259,2.51C55.855,4.828,54.5,7.795,54.5,9.876V56.81c0,2.082,1.35,5.05,7.753,7.367a50.769,50.769,0,0,0,16.657,2.51A59.347,59.347,0,0,0,89.882,65.7c8.541-1.638,13.448-4.88,13.448-8.892V9.876C103.33,7.795,101.979,4.828,95.576,2.51Zm-32.2,3.081A47.433,47.433,0,0,1,78.916,3.277,47.428,47.428,0,0,1,94.455,5.592c4.119,1.491,5.586,3.191,5.586,4.284s-1.467,2.793-5.586,4.284h0a47.422,47.422,0,0,1-15.538,2.315A47.422,47.422,0,0,1,63.378,14.16c-4.119-1.491-5.586-3.19-5.586-4.284S59.26,7.082,63.378,5.591ZM100.053,56.81c0,.887-.934,1.943-2.553,2.9a26.657,26.657,0,0,1-8.237,2.778,55.939,55.939,0,0,1-10.345.926A47.483,47.483,0,0,1,63.372,61.1c-4.118-1.49-5.592-3.191-5.592-4.285V46.257a20.474,20.474,0,0,0,4.476,2.2,50.769,50.769,0,0,0,16.657,2.51,50.8,50.8,0,0,0,16.662-2.51,20.493,20.493,0,0,0,4.478-2.2V56.81Zm0-15.717c0,1.095-1.473,2.8-5.591,4.285A47.46,47.46,0,0,1,78.92,47.693a47.489,47.489,0,0,1-15.547-2.314c-4.118-1.49-5.593-3.191-5.593-4.285V30.649a20.474,20.474,0,0,0,4.476,2.2,50.769,50.769,0,0,0,16.657,2.509,50.8,50.8,0,0,0,16.662-2.509,20.493,20.493,0,0,0,4.478-2.2V41.093Zm0-15.609c0,1.095-1.473,2.8-5.591,4.285h0A47.46,47.46,0,0,1,78.92,32.084,47.482,47.482,0,0,1,63.373,29.77c-4.118-1.49-5.593-3.191-5.593-4.285V15.038a20.483,20.483,0,0,0,4.477,2.2,50.748,50.748,0,0,0,16.656,2.511,50.779,50.779,0,0,0,16.661-2.511,20.5,20.5,0,0,0,4.479-2.2Z" transform="translate(-54.503)" fill="url(#linear-gradient)"/>
        </g>
      </g>
      <g id="Grupo_36" data-name="Grupo 36" transform="translate(19.006 24.004)">
        <g id="Grupo_35" data-name="Grupo 35" transform="translate(0)">
          <path id="Trazado_17" data-name="Trazado 17" d="M179.679,146.5h-7.537a1.638,1.638,0,0,0,0,3.277h7.537a1.638,1.638,0,1,0,0-3.277Z" transform="translate(-170.503 -146.5)" fill="url(#linear-gradient)"/>
        </g>
      </g>
      <g id="Grupo_38" data-name="Grupo 38" transform="translate(19.006 39.406)">
        <g id="Grupo_37" data-name="Grupo 37" transform="translate(0)">
          <path id="Trazado_18" data-name="Trazado 18" d="M179.679,240.5h-7.537a1.638,1.638,0,0,0,0,3.277h7.537a1.638,1.638,0,1,0,0-3.277Z" transform="translate(-170.503 -240.5)" fill="url(#linear-gradient)"/>
        </g>
      </g>
      <g id="Grupo_40" data-name="Grupo 40" transform="translate(19.006 55.299)">
        <g id="Grupo_39" data-name="Grupo 39" transform="translate(0)">
          <path id="Trazado_19" data-name="Trazado 19" d="M179.679,337.5h-7.537a1.638,1.638,0,1,0,0,3.277h7.537a1.638,1.638,0,1,0,0-3.277Z" transform="translate(-170.503 -337.5)" fill="url(#linear-gradient)"/>
        </g>
      </g>
    </g>
    <g id="paint-palette-and-brush" transform="translate(402.53 7)">
      <path id="Trazado_20" data-name="Trazado 20" d="M51.819,206.542a6.051,6.051,0,0,0-3.736-1.3,5.989,5.989,0,0,0-4.69,2.238,5.935,5.935,0,0,0,.953,8.387,6.048,6.048,0,0,0,3.735,1.3,5.985,5.985,0,0,0,4.69-2.241,5.934,5.934,0,0,0-.953-8.385Zm-1.179,6.671a3.293,3.293,0,0,1-4.6.512,3.2,3.2,0,0,1-.518-4.528,3.3,3.3,0,0,1,4.6-.51,3.2,3.2,0,0,1,.517,4.526Z" transform="translate(-32.491 -162.238)" fill="url(#linear-gradient)"/>
      <path id="Trazado_21" data-name="Trazado 21" d="M169.952,109.081a6,6,0,0,0,5.66-4.005,5.885,5.885,0,0,0-.265-4.545,6.022,6.022,0,0,0-8.007-2.784,5.94,5.94,0,0,0-2.8,7.961A6.05,6.05,0,0,0,169.952,109.081Zm-3.1-7.018a3.212,3.212,0,0,1,1.663-1.849,3.287,3.287,0,0,1,4.369,1.511,3.171,3.171,0,0,1,.144,2.448,3.218,3.218,0,0,1-1.663,1.851,3.265,3.265,0,0,1-1.416.322A3.3,3.3,0,0,1,167,104.511,3.168,3.168,0,0,1,166.854,102.063Z" transform="translate(-126.581 -78.78)" fill="url(#linear-gradient)"/>
      <path id="Trazado_22" data-name="Trazado 22" d="M109.205,67.193a6.08,6.08,0,0,0,1.338.15,5.963,5.963,0,0,0,5.848-4.632,5.9,5.9,0,0,0-.765-4.485,5.961,5.961,0,0,0-3.754-2.653,6.076,6.076,0,0,0-1.343-.151,5.957,5.957,0,0,0-5.842,4.634,5.885,5.885,0,0,0,.76,4.485A5.953,5.953,0,0,0,109.205,67.193Zm-1.854-6.525a3.236,3.236,0,0,1,3.177-2.512,3.34,3.34,0,0,1,.738.083,3.246,3.246,0,0,1,2.045,1.443,3.179,3.179,0,0,1,.414,2.417,3.281,3.281,0,0,1-3.183,2.509,3.346,3.346,0,0,1-.736-.083,3.238,3.238,0,0,1-2.045-1.442A3.171,3.171,0,0,1,107.352,60.668Z" transform="translate(-80.713 -46.555)" fill="url(#linear-gradient)"/>
      <path id="Trazado_23" data-name="Trazado 23" d="M44.351,86.049a5.941,5.941,0,0,0,.951-8.387,6.037,6.037,0,0,0-8.426-.942,5.936,5.936,0,0,0-.95,8.388,6.029,6.029,0,0,0,8.426.942Zm-6.295-2.656a3.2,3.2,0,0,1,.514-4.528,3.3,3.3,0,0,1,4.6.511,3.207,3.207,0,0,1-.519,4.53,3.295,3.295,0,0,1-4.6-.513Z" transform="translate(-26.723 -62)" fill="url(#linear-gradient)"/>
      <path id="Trazado_24" data-name="Trazado 24" d="M73.544,27.182a1.806,1.806,0,0,0-1.323-.523c-.78,0-2.852,0-15.436,10.708l-.764.653A33.551,33.551,0,0,0,24.634,16.512h-.006a32.921,32.921,0,0,0-15.654,4.5C3.186,24.415,0,28.965,0,33.825c0,5.867,3.311,8.321,5.97,10.293C8.138,45.726,9.851,47,9.852,49.78s-1.711,4.052-3.878,5.658C3.316,57.408.007,59.861.009,65.729c0,4.859,3.19,9.411,8.979,12.816A32.946,32.946,0,0,0,24.65,83.054h.01A33.457,33.457,0,0,0,48.368,73.32a32.891,32.891,0,0,0,9.82-23.166c2.123-2.416,4.179-4.817,6.057-7.079,3.212-3.871,5.682-7.064,7.341-9.492C73.784,30.366,74.747,28.394,73.544,27.182Zm-27.1,44.2A30.737,30.737,0,0,1,24.66,80.32h-.009c-8.82,0-21.905-6.13-21.908-14.591,0-4.491,2.359-6.241,4.859-8.094,2.336-1.732,4.984-3.7,4.984-7.856S9.936,43.655,7.6,41.922c-2.5-1.855-4.863-3.606-4.864-8.1,0-5.2,4.777-8.781,7.625-10.455a30.48,30.48,0,0,1,14.268-4.123h0A30.815,30.815,0,0,1,53.81,39.934c-5.93,5.178-12.352,11.148-17.135,15.946-7.943,1.028-9.026,6.322-9.817,10.211C26.185,69.4,25.747,71,23.191,71.209a1.367,1.367,0,0,0-.414,2.626A25.038,25.038,0,0,0,31.419,75.5h0a13.989,13.989,0,0,0,8.115-2.293c2.713-1.875,4.553-4.848,5.477-8.834,3.125-3.161,6.7-6.974,10.226-10.9A30.179,30.179,0,0,1,46.443,71.378Zm-4.178-7.263c-1.449,5.741-5.094,8.652-10.845,8.652h0a20.5,20.5,0,0,1-4.19-.465c1.458-1.487,1.914-3.725,2.308-5.664.751-3.693,1.462-7.189,7.274-8.019Zm18.88-21.593c-5.42,6.457-11.98,13.708-17.381,19.222l-.836-.843L39.24,57.182c4.9-4.874,11.178-10.686,17.039-15.772h0c.683-.593,1.362-1.178,2.031-1.749,6.8-5.8,10.366-8.325,12.184-9.423C69.408,32.067,66.907,35.658,61.146,42.521Z" transform="translate(0 -16.512)" fill="url(#linear-gradient)"/>
    </g>
  </g>
</svg>
