<svg xmlns="http://www.w3.org/2000/svg" xmlns:xlink="http://www.w3.org/1999/xlink" width="422" height="198" viewBox="0 0 422 198">
  <defs>
    <filter id="Rect치ngulo_215" x="0" y="0" width="422" height="198" filterUnits="userSpaceOnUse">
      <feOffset dy="3" input="SourceAlpha"/>
      <feGaussianBlur stdDeviation="3" result="blur"/>
      <feFlood flood-opacity="0.161"/>
      <feComposite operator="in" in2="blur"/>
      <feComposite in="SourceGraphic"/>
    </filter>
  </defs>
  <g id="Grupo_291" data-name="Grupo 291" transform="translate(-316 -5647)">
    <g transform="matrix(1, 0, 0, 1, 316, 5647)" filter="url(#Rect치ngulo_215)">
      <rect id="Rect치ngulo_215-2" data-name="Rect치ngulo 215" width="404" height="180" rx="10" transform="translate(9 6)" fill="#fff"/>
    </g>
    <path id="express-109" d="M1.6,55.54V28.171H35.773v-1.6H1.6V1.6H37.934V0H0V57.141H38.254v-1.6H1.6ZM69.066,16.006,54.9,34.653,41.055,16.006H38.974L53.94,35.854,37.533,57.14h1.921L54.9,37.053,70.425,57.14h2L55.94,35.853,70.986,16.005h-1.92Zm8.163,55.221V45.617h.16a16.436,16.436,0,0,0,5.682,9,16.727,16.727,0,0,0,10.8,3.4,15.636,15.636,0,0,0,13.005-6.4,21.793,21.793,0,0,0,3.361-6.883,28.908,28.908,0,0,0,1.16-8.243,29.139,29.139,0,0,0-1.2-8.563,20.5,20.5,0,0,0-3.481-6.8,16,16,0,0,0-5.522-4.482,16.314,16.314,0,0,0-7.323-1.6,17.76,17.76,0,0,0-5.8.92,15.531,15.531,0,0,0-4.762,2.6,17.616,17.616,0,0,0-3.6,3.961,18.242,18.242,0,0,0-2.321,5h-.16V16.006h-1.6V71.226h1.6ZM93.874,56.5A15.339,15.339,0,0,1,81.79,51.339q-4.561-5.162-4.562-14.846a25.447,25.447,0,0,1,1.121-7.6,19.69,19.69,0,0,1,3.241-6.322,15.564,15.564,0,0,1,5.242-4.322,15.208,15.208,0,0,1,7.043-1.6,14.662,14.662,0,0,1,7,1.6,14.194,14.194,0,0,1,4.962,4.361A20.308,20.308,0,0,1,108.8,28.93a27.856,27.856,0,0,1,1,7.563,28.5,28.5,0,0,1-.92,7.163,20.476,20.476,0,0,1-2.841,6.4,15.463,15.463,0,0,1-4.921,4.641,13.83,13.83,0,0,1-7.243,1.8Zm26.33.64V33.852a22.7,22.7,0,0,1,.961-6.562,16.071,16.071,0,0,1,2.961-5.642,13.876,13.876,0,0,1,5.082-3.842,15.424,15.424,0,0,1,7.323-1.16v-1.6a19.829,19.829,0,0,0-6.442.8,15.645,15.645,0,0,0-4.762,2.4,12.265,12.265,0,0,0-3.2,3.561,15.923,15.923,0,0,0-1.761,4.361h-.16V16.006h-1.6V57.141h1.6Zm18.327-20.247h34.413a28.483,28.483,0,0,0-.84-8.163,20.3,20.3,0,0,0-3.2-6.962,16.3,16.3,0,0,0-5.682-4.882,17.493,17.493,0,0,0-8.283-1.841,16.844,16.844,0,0,0-12.485,5.642,21.32,21.32,0,0,0-4,6.763,25.557,25.557,0,0,0-1.521,9.123,33.459,33.459,0,0,0,1.04,8.523,19.968,19.968,0,0,0,3.2,6.883,14.446,14.446,0,0,0,5.562,4.521,18.4,18.4,0,0,0,8.2,1.521,18,18,0,0,0,11.844-3.961q4.8-3.962,5.682-11.164h-1.6q-1.04,6.8-5.322,10.2a16.764,16.764,0,0,1-10.764,3.4,16.525,16.525,0,0,1-7.443-1.52,13.485,13.485,0,0,1-4.962-4.162,18.151,18.151,0,0,1-2.841-6.2,33.363,33.363,0,0,1-1-7.723Zm32.812-1.6H138.531a24.741,24.741,0,0,1,1.6-7.763,19.244,19.244,0,0,1,3.562-5.882,14.885,14.885,0,0,1,5.122-3.722,15.475,15.475,0,0,1,6.282-1.281,15.9,15.9,0,0,1,7.043,1.481,14.548,14.548,0,0,1,5.082,4.042A17.825,17.825,0,0,1,170.3,28.13,24.355,24.355,0,0,1,171.343,35.293Zm34.813-7.122h1.6q0-6.883-4-10t-10.884-3.121a19.091,19.091,0,0,0-6.483.961,12.961,12.961,0,0,0-4.322,2.48,8.929,8.929,0,0,0-2.4,3.361,9.656,9.656,0,0,0-.721,3.521,10.365,10.365,0,0,0,1.2,5.362,7.9,7.9,0,0,0,3.761,3.121,28.97,28.97,0,0,0,4,1.441q2.241.64,5.2,1.36,2.641.641,5.2,1.281a18.791,18.791,0,0,1,4.521,1.721,9.774,9.774,0,0,1,3.2,2.761,7.234,7.234,0,0,1,1.24,4.4,7.83,7.83,0,0,1-1.24,4.482,10,10,0,0,1-3.161,3,14.079,14.079,0,0,1-4.282,1.68,21.356,21.356,0,0,1-4.6.52q-7.283,0-11.164-3.241t-3.881-10.2h-1.6q0,7.763,4.2,11.365t12.445,3.6a24.307,24.307,0,0,0,5.322-.6,14.789,14.789,0,0,0,4.8-1.961,10.851,10.851,0,0,0,3.441-3.521,9.95,9.95,0,0,0,1.321-5.282,8.89,8.89,0,0,0-1.16-4.8,9.735,9.735,0,0,0-3.041-3.041,16.129,16.129,0,0,0-4.241-1.881q-2.374-.684-4.762-1.321-2.938-.771-5.882-1.52a35.711,35.711,0,0,1-4.681-1.521,7.943,7.943,0,0,1-3.322-2.521,7.641,7.641,0,0,1-1.24-4.682,11.03,11.03,0,0,1,.32-2,7.175,7.175,0,0,1,1.521-2.921,10.238,10.238,0,0,1,3.681-2.641,16.347,16.347,0,0,1,6.8-1.16,21.291,21.291,0,0,1,5.4.64,11.231,11.231,0,0,1,4.2,2.041,9.286,9.286,0,0,1,2.721,3.561,12.981,12.981,0,0,1,.961,5.282Zm37.053,0h1.6q0-6.883-4-10t-10.884-3.121a19.088,19.088,0,0,0-6.482.961,12.951,12.951,0,0,0-4.322,2.48,8.925,8.925,0,0,0-2.4,3.361,9.655,9.655,0,0,0-.72,3.521,10.365,10.365,0,0,0,1.2,5.362,7.9,7.9,0,0,0,3.761,3.121,28.985,28.985,0,0,0,4,1.441q2.241.64,5.2,1.36,2.641.641,5.2,1.281a18.8,18.8,0,0,1,4.522,1.721,9.772,9.772,0,0,1,3.2,2.761,7.231,7.231,0,0,1,1.241,4.4,7.83,7.83,0,0,1-1.241,4.482,10,10,0,0,1-3.161,3,14.082,14.082,0,0,1-4.282,1.68,21.353,21.353,0,0,1-4.6.52q-7.283,0-11.164-3.241T216,43.056h-1.6q0,7.763,4.2,11.365t12.444,3.6a24.3,24.3,0,0,0,5.322-.6,14.8,14.8,0,0,0,4.8-1.961,10.851,10.851,0,0,0,3.441-3.521,9.95,9.95,0,0,0,1.32-5.282,8.886,8.886,0,0,0-1.16-4.8,9.729,9.729,0,0,0-3.041-3.041,16.137,16.137,0,0,0-4.241-1.881q-2.374-.684-4.762-1.321-2.938-.771-5.882-1.52a35.7,35.7,0,0,1-4.682-1.521,7.938,7.938,0,0,1-3.321-2.521,7.641,7.641,0,0,1-1.241-4.682,11,11,0,0,1,.32-2,7.18,7.18,0,0,1,1.52-2.921,10.243,10.243,0,0,1,3.681-2.641,16.35,16.35,0,0,1,6.8-1.16,21.292,21.292,0,0,1,5.4.64,11.234,11.234,0,0,1,4.2,2.041,9.286,9.286,0,0,1,2.721,3.561,12.981,12.981,0,0,1,.961,5.282Z" transform="translate(404 5707)" fill="#222"/>
  </g>
</svg>
