<svg xmlns="http://www.w3.org/2000/svg" xmlns:xlink="http://www.w3.org/1999/xlink" width="16" height="16" viewBox="0 0 16 16">
  <defs>
    <clipPath id="clip-Mesa_de_trabajo_5">
      <rect width="16" height="16"/>
    </clipPath>
  </defs>
  <g id="Mesa_de_trabajo_5" data-name="Mesa de trabajo – 5" clip-path="url(#clip-Mesa_de_trabajo_5)">
    <g id="Grupo_314" data-name="Grupo 314">
      <rect id="Rectángulo_221" data-name="Rectángulo 221" width="16" height="16" rx="4" fill="#e42e65"/>
      <g id="Grupo_312" data-name="Grupo 312" transform="translate(0.031 3.344) rotate(-9)">
        <path id="Trazado_67" data-name="Trazado 67" d="M3.554,3.029l-.006.106q0,.031-.031.393-.025.275-.025.425,0,.187.006.312a.766.766,0,0,1,.006.106q0,.069-.031.069T3.4,4.378a.7.7,0,0,0-.294-.294,1.523,1.523,0,0,1-1.006.4A2,2,0,0,1,.662,3.872,2.2,2.2,0,0,1,0,2.236,2.251,2.251,0,0,1,.6.64,1.952,1.952,0,0,1,2.086,0a1.448,1.448,0,0,1,.737.187A.663.663,0,0,0,3.1.294.333.333,0,0,0,3.341.175q.081-.087.1-.087t.025.044A.376.376,0,0,1,3.46.187a3.088,3.088,0,0,0-.037.525q0,.031.006.256V1.4q0,.112-.062.112t-.1-.244Q3.042.144,2.236.144q-.637,0-.924.824a4.041,4.041,0,0,0-.2,1.349,2.561,2.561,0,0,0,.475,1.711.827.827,0,0,0,.656.287q.881,0,1.155-1.174.044-.194.1-.194T3.554,3.029ZM6.227,2.08a.421.421,0,0,1-.106.3.356.356,0,0,1-.275.116q-.337,0-.337-.312a.349.349,0,0,1,.081-.212.077.077,0,0,0,.019-.044q0-.056-.081-.056-.212,0-.325.331a3.919,3.919,0,0,0-.062.918v.456l.006.55a.162.162,0,0,0,.169.181q.1.006.237.006.069.006.069.044t-.056.05H5.44Q5.384,4.4,4.9,4.4L4.616,4.4,4.31,4.41H4.072q-.062.006-.144.006T3.86,4.372q0-.044.087-.044a.61.61,0,0,0,.309-.053Q4.31,4.228,4.31,4L4.3,2.311a.524.524,0,0,0-.059-.294.365.365,0,0,0-.265-.1A1.836,1.836,0,0,1,3.794,1.9q-.022-.006-.022-.044t.05-.037a.857.857,0,0,1,.106.006h.125a3.076,3.076,0,0,0,1.037-.2,1.19,1.19,0,0,1,.031.287v.262a1.12,1.12,0,0,1,.259-.431.529.529,0,0,1,.365-.125.475.475,0,0,1,.347.131A.443.443,0,0,1,6.227,2.08Zm2.7,1.555A.692.692,0,0,1,8.769,4a1.079,1.079,0,0,1-.912.481,1.416,1.416,0,0,1-1.037-.4,1.375,1.375,0,0,1-.406-1.024,1.415,1.415,0,0,1,.393-1.021,1.3,1.3,0,0,1,.981-.409,1.264,1.264,0,0,1,.681.175.893.893,0,0,1,.406.556,1.987,1.987,0,0,1,.037.269q-.144.012-1.155.019-.156,0-.393.012-.019.225-.019.381a1.435,1.435,0,0,0,.306,1.037.6.6,0,0,0,.443.181.7.7,0,0,0,.422-.15.959.959,0,0,0,.309-.387q.05-.119.081-.119T8.931,3.635ZM8.144,2.548a1.961,1.961,0,0,0-.069-.668.266.266,0,0,0-.262-.187q-.381,0-.437.856.131-.006.55-.006Q8.051,2.542,8.144,2.548Z" transform="translate(0 0)" fill="#fff"/>
        <path id="Trazado_66" data-name="Trazado 66" d="M2.654,4.072q0,.05-.1.137a.949.949,0,0,1-.662.244.539.539,0,0,1-.372-.106.626.626,0,0,1-.153-.381A.854.854,0,0,1,.6,4.478.581.581,0,0,1,.166,4.31.6.6,0,0,1,0,3.872q0-.787,1.349-.931V2.811a3.78,3.78,0,0,0-.044-.768L1.3,2.011A.41.41,0,0,0,.856,1.7a.461.461,0,0,0-.331.119A.332.332,0,0,0,.4,2.049q0,.062.15.075.225.019.225.275a.309.309,0,0,1-.091.228.317.317,0,0,1-.234.091.414.414,0,0,1-.3-.109A.366.366,0,0,1,.037,2.33a.626.626,0,0,1,.269-.487,1.083,1.083,0,0,1,.706-.219,1.362,1.362,0,0,1,.906.231.9.9,0,0,1,.206.675V3.6q0,.312.006.362.031.262.181.262a.431.431,0,0,0,.262-.15.086.086,0,0,1,.05-.031A.028.028,0,0,1,2.654,4.072ZM1.349,3.329V3.023a.652.652,0,0,0-.606.687q0,.437.3.437A.244.244,0,0,0,1.28,3.96,2.03,2.03,0,0,0,1.349,3.329Zm4.435.956q0,.044-.125.044l-.281-.006a1.459,1.459,0,0,0-.643.15.261.261,0,0,1-.044.012q-.056,0-.062-.112a.905.905,0,0,0-.019-.156.861.861,0,0,1-.662.269,1.151,1.151,0,0,1-.906-.406,1.506,1.506,0,0,1-.356-1.031,1.45,1.45,0,0,1,.362-1.027A1.242,1.242,0,0,1,4,1.63a.788.788,0,0,1,.631.287V1.043a2.349,2.349,0,0,0-.05-.665q-.05-.1-.331-.1-.162,0-.162-.044T4.166.194A3.491,3.491,0,0,0,5.253.025.4.4,0,0,1,5.359,0q.069,0,.069.15l.006.312.006.6V4.041a.236.236,0,0,0,.031.144q.044.056.219.05Q5.784,4.228,5.784,4.285ZM4.628,3.722V2.361a.75.75,0,0,0-.094-.418A.378.378,0,0,0,4.2,1.768q-.6,0-.6,1.33a2.209,2.209,0,0,0,.153.918.473.473,0,0,0,.428.325.416.416,0,0,0,.3-.147A.665.665,0,0,0,4.628,3.722Zm4.2-.643A1.309,1.309,0,0,1,8.3,4.16a1.431,1.431,0,0,1-.906.325A1.4,1.4,0,0,1,6.38,4.063a1.352,1.352,0,0,1-.428-1A1.381,1.381,0,0,1,6.38,2.045a1.419,1.419,0,0,1,1.034-.422,1.339,1.339,0,0,1,1,.428A1.422,1.422,0,0,1,8.825,3.079Zm-.943.006a3.533,3.533,0,0,0-.106-1.062q-.119-.319-.381-.319-.244,0-.381.334a2.488,2.488,0,0,0-.137.921,2.957,2.957,0,0,0,.162,1.162.406.406,0,0,0,.369.275q.294,0,.387-.35A4.006,4.006,0,0,0,7.882,3.085Z" transform="translate(5.126 3.531)" fill="#fff"/>
        <path id="Trazado_65" data-name="Trazado 65" d="M2.455.562a.421.421,0,0,1-.106.3.356.356,0,0,1-.275.116q-.337,0-.337-.312A.349.349,0,0,1,1.818.45.077.077,0,0,0,1.836.406q0-.056-.081-.056-.212,0-.325.331a3.919,3.919,0,0,0-.062.918v.456l.006.55a.162.162,0,0,0,.169.181q.1.006.237.006.069.006.069.044t-.056.05H1.668q-.056-.006-.543-.006l-.281.006-.306.006H.3Q.237,2.9.156,2.9T.087,2.854q0-.044.087-.044a.61.61,0,0,0,.309-.053q.053-.047.053-.278L.531.793A.524.524,0,0,0,.472.5.365.365,0,0,0,.206.4,1.836,1.836,0,0,1,.022.381Q0,.375,0,.337T.05.3A.857.857,0,0,1,.156.306H.281a3.076,3.076,0,0,0,1.037-.2,1.19,1.19,0,0,1,.031.287V.656A1.12,1.12,0,0,1,1.608.225.529.529,0,0,1,1.974.1.475.475,0,0,1,2.32.231.443.443,0,0,1,2.455.562Zm2.7,1.555A.692.692,0,0,1,5,2.48a1.079,1.079,0,0,1-.912.481,1.416,1.416,0,0,1-1.037-.4,1.375,1.375,0,0,1-.406-1.024A1.415,1.415,0,0,1,3.035.515,1.3,1.3,0,0,1,4.016.106,1.264,1.264,0,0,1,4.7.281.893.893,0,0,1,5.1.837a1.987,1.987,0,0,1,.037.269Q5,1.118,3.985,1.124q-.156,0-.393.012-.019.225-.019.381a1.435,1.435,0,0,0,.306,1.037.6.6,0,0,0,.443.181.7.7,0,0,0,.422-.15A.959.959,0,0,0,5.053,2.2q.05-.119.081-.119T5.159,2.117ZM4.372,1.031A1.961,1.961,0,0,0,4.3.362.266.266,0,0,0,4.041.175q-.381,0-.437.856.131-.006.55-.006Q4.278,1.024,4.372,1.031Zm3,.987a.923.923,0,0,1-.256.678.89.89,0,0,1-.662.259,1.426,1.426,0,0,1-.475-.1,1.17,1.17,0,0,0-.294-.081.152.152,0,0,0-.156.087q-.037.087-.056.087-.037,0-.037-.044a.876.876,0,0,1,.012-.119,3.056,3.056,0,0,0,.019-.412V2.311a1.171,1.171,0,0,1-.006-.137V2.067Q5.459,2,5.49,2t.056.094a.9.9,0,0,0,.319.553.887.887,0,0,0,.587.222A.439.439,0,0,0,6.914,2.4.364.364,0,0,0,6.8,2.13a1.555,1.555,0,0,0-.468-.206,1.638,1.638,0,0,1-.678-.378A.791.791,0,0,1,5.44.981.861.861,0,0,1,5.69.356.822.822,0,0,1,6.3.1a2.233,2.233,0,0,1,.475.087A.342.342,0,0,0,6.852.2q.137,0,.206-.169Q7.07,0,7.089,0q.044,0,.044.075L7.126.194A.414.414,0,0,0,7.12.281a4.542,4.542,0,0,0,.031.525V.837q0,.05-.037.05T7.064.831A.741.741,0,0,0,6.327.194a.512.512,0,0,0-.34.112.358.358,0,0,0-.134.287.316.316,0,0,0,.112.256,1.617,1.617,0,0,0,.437.212,2.149,2.149,0,0,1,.768.4A.751.751,0,0,1,7.37,2.017Z" transform="translate(2.228 8.648)" fill="#fff"/>
        <path id="Trazado_64" data-name="Trazado 64" d="M.326,1.459a.155.155,0,0,1-.161.161.162.162,0,0,1-.118-.046A.154.154,0,0,1,0,1.459a.163.163,0,0,1,.165-.165.155.155,0,0,1,.113.048A.16.16,0,0,1,.326,1.459Zm.934,0q0,.025-.043.066a.424.424,0,0,1-.306.107.262.262,0,0,1-.236-.088.147.147,0,0,1-.026-.063q0-.029,0-.152v-.2l0-.048v-.2l0-.163Q.641.669.63.662A.187.187,0,0,0,.562.655Q.494.655.494.637T.519.619A.461.461,0,0,0,.886.388Q.906.356.918.356T.931.388A.574.574,0,0,0,.947.6a.2.2,0,0,0,.111.018A.669.669,0,0,0,1.192.61l.009,0q.009,0,.009.014,0,.032-.029.032l-.206,0-.032,0V.7q0,.607.016.712.02.131.127.131a.21.21,0,0,0,.122-.068q.036-.032.045-.032S1.26,1.447,1.26,1.455Zm.9-.131a.251.251,0,0,1-.059.131.391.391,0,0,1-.331.174.514.514,0,0,1-.376-.145.5.5,0,0,1-.147-.372A.513.513,0,0,1,1.389.742.473.473,0,0,1,1.745.594a.459.459,0,0,1,.247.063.324.324,0,0,1,.147.2.721.721,0,0,1,.014.1q-.052,0-.419.007-.057,0-.143,0-.007.082-.007.138a.521.521,0,0,0,.111.376.219.219,0,0,0,.161.066.254.254,0,0,0,.153-.054.348.348,0,0,0,.112-.141q.018-.043.029-.043T2.16,1.323ZM1.874.929A.712.712,0,0,0,1.849.687a.1.1,0,0,0-.1-.068q-.138,0-.159.31.048,0,.2,0Zm1.235-.1a.124.124,0,0,1-.032.088A.107.107,0,0,1,3,.947q-.12,0-.12-.107A.181.181,0,0,1,2.89.776.173.173,0,0,0,2.905.723.1.1,0,0,0,2.872.649a.114.114,0,0,0-.08-.031q-.206,0-.206.46a.608.608,0,0,0,.091.376.215.215,0,0,0,.172.086A.3.3,0,0,0,3.066,1.4q.014-.018.025-.018T3.1,1.4q0,.043-.082.12a.4.4,0,0,1-.283.111.47.47,0,0,1-.348-.146.487.487,0,0,1-.144-.355A.525.525,0,0,1,2.4.747.5.5,0,0,1,2.769.591a.415.415,0,0,1,.241.068A.2.2,0,0,1,3.109.825Zm1.21.768q0,.014-.02.014H4.254l-.079,0H4.118q-.195,0-.24,0H3.841l-.054,0q-.029,0-.029-.016t.011-.014l.052,0q.05,0,.057-.027t0-.227V.984a.81.81,0,0,0-.02-.249A.114.114,0,0,0,3.748.675a.15.15,0,0,0-.136.079A.384.384,0,0,0,3.59.92v.356q0,.165,0,.181v.027l0,.054q0,.034.1.034.02,0,.02.014T3.676,1.6H3.658a.478.478,0,0,0-.054,0H3.5l-.127,0-.134,0H3.175q-.034,0-.034-.014a.009.009,0,0,1,0-.009.056.056,0,0,1,.02,0,.4.4,0,0,0,.1-.007q.016-.007.02-.052,0-.027,0-.272V.419A1.954,1.954,0,0,0,3.28.137Q3.27.1,3.184.1,3.118.1,3.118.086T3.2.068A1.423,1.423,0,0,0,3.524.009.167.167,0,0,1,3.567,0q.018,0,.018.127V.292q0,.073,0,.1v.36A.411.411,0,0,1,3.711.625.354.354,0,0,1,3.88.591a.26.26,0,0,1,.281.181.636.636,0,0,1,.02.19v.528q0,.059.019.073a.205.205,0,0,0,.1.014Q4.319,1.577,4.319,1.593Z" transform="translate(9.893 8.269)" fill="#fff"/>
      </g>
    </g>
  </g>
</svg>
