<svg xmlns="http://www.w3.org/2000/svg" xmlns:xlink="http://www.w3.org/1999/xlink" width="445" height="810" viewBox="0 0 445 810">
  <defs>
    <filter id="Rectángulo_195" x="0" y="0" width="445" height="810" filterUnits="userSpaceOnUse">
      <feOffset dy="40" input="SourceAlpha"/>
      <feGaussianBlur stdDeviation="15" result="blur"/>
      <feFlood flood-opacity="0.051"/>
      <feComposite operator="in" in2="blur"/>
      <feComposite in="SourceGraphic"/>
    </filter>
    <linearGradient id="linear-gradient" x1="0.471" x2="0.473" y2="1" gradientUnits="objectBoundingBox">
      <stop offset="0" stop-color="#344453"/>
      <stop offset="1" stop-color="#637e96"/>
    </linearGradient>
    <radialGradient id="radial-gradient" cx="0.5" cy="0.5" r="0.5" gradientUnits="objectBoundingBox">
      <stop offset="0" stop-color="#ffc114"/>
      <stop offset="1" stop-color="#fff" stop-opacity="0"/>
    </radialGradient>
    <radialGradient id="radial-gradient-2" cx="0.5" cy="0.5" r="0.5" gradientUnits="objectBoundingBox">
      <stop offset="0" stop-color="#e6c76f"/>
      <stop offset="1" stop-color="#fff" stop-opacity="0"/>
    </radialGradient>
    <radialGradient id="radial-gradient-3" cx="0.5" cy="0.5" r="0.5" gradientUnits="objectBoundingBox">
      <stop offset="0" stop-color="#ffbd00"/>
      <stop offset="1" stop-color="#fff" stop-opacity="0"/>
    </radialGradient>
    <linearGradient id="linear-gradient-2" x1="1" x2="0" y2="0.766" gradientUnits="objectBoundingBox">
      <stop offset="0" stop-color="#ea3b1d"/>
      <stop offset="1" stop-color="#dc2803"/>
    </linearGradient>
    <linearGradient id="linear-gradient-3" x1="1" x2="-0.062" y2="1.093" gradientUnits="objectBoundingBox">
      <stop offset="0" stop-color="#ff5720"/>
      <stop offset="1" stop-color="#f03d1c"/>
    </linearGradient>
    <linearGradient id="linear-gradient-4" x1="1" x2="0.363" y2="0.945" gradientUnits="objectBoundingBox">
      <stop offset="0" stop-color="#ef3814"/>
      <stop offset="1" stop-color="#de2713"/>
    </linearGradient>
    <linearGradient id="linear-gradient-5" x1="1.033" x2="0.041" y2="0.903" gradientUnits="objectBoundingBox">
      <stop offset="0" stop-color="#ff5c27"/>
      <stop offset="1" stop-color="#ef4627"/>
    </linearGradient>
    <linearGradient id="linear-gradient-6" x1="0.884" y1="0.08" x2="0" y2="1" gradientUnits="objectBoundingBox">
      <stop offset="0" stop-color="#fff"/>
      <stop offset="1" stop-color="#fae808"/>
    </linearGradient>
    <linearGradient id="linear-gradient-7" x1="0.675" x2="0.31" y2="1" gradientUnits="objectBoundingBox">
      <stop offset="0" stop-color="#609ad0"/>
      <stop offset="1" stop-color="#344453"/>
    </linearGradient>
    <linearGradient id="linear-gradient-8" x1="0.5" x2="0.81" y2="1" gradientUnits="objectBoundingBox">
      <stop offset="0" stop-color="#fe522d"/>
      <stop offset="1" stop-color="#ea3e28"/>
    </linearGradient>
    <linearGradient id="linear-gradient-9" x1="0.5" x2="0.5" y2="1" gradientUnits="objectBoundingBox">
      <stop offset="0" stop-color="#04dbff"/>
      <stop offset="1" stop-color="#1ebfee"/>
    </linearGradient>
  </defs>
  <g id="goalsio-example-2" transform="translate(-1022 -2996.999)">
    <g transform="matrix(1, 0, 0, 1, 1022, 2997)" filter="url(#Rectángulo_195)">
      <rect id="Rectángulo_195-2" data-name="Rectángulo 195" width="355" height="720" rx="60" transform="translate(45 5)" fill="#e6e6e6"/>
    </g>
    <rect id="Rectángulo_63" data-name="Rectángulo 63" width="328" height="690" rx="20" transform="translate(1081 3017)" fill="url(#linear-gradient)"/>
    <g id="Grupo_250" data-name="Grupo 250" transform="translate(694.245 -853.357)">
      <path id="Trazado_350" data-name="Trazado 350" d="M277.5,0c59.464,0,167.555,56.221,171.365,59.213L437.3,368.71c-45.209,32.19-99.877,61.4-159.8,61.4-52.318-.288-169.213-112.259-169.213-112.259V57.544A276.174,276.174,0,0,1,277.5,0Z" transform="translate(272.755 4139.357)" fill="url(#radial-gradient)"/>
      <path id="Trazado_324" data-name="Trazado 324" d="M-561.285,4371.211s8.56-15.663,26.52-11.877,14.566,23.532,14.566,23.532,7.972-14.005,18.905-11.655,10.473,16.736,10.473,16.736,7.2-11.657,17.352-9.133,10.348,16.071,10.348,16.071,9.97-12.313,23.063-6.938,8.823,16.692,8.823,16.692,8.7-7.411,18.378-5.994,10.446,13.238,10.446,13.238,3.679-9.674,15.693-10.1,12.269,12.474,12.269,12.474.553-16.9,10.175-19.374,15.66,9.754,15.66,9.754-1.907-14.242,9.7-16.692,17.232,13.838,17.232,13.838-4.082-26.884,19.491-28.1,23.7,14.26,23.7,14.26-.575-25.308,16.145-25.753a40.461,40.461,0,0,1,26.958,9.017v79.367h-325.9Z" transform="translate(948.384 98.236)" fill="#fff"/>
      <path id="Trazado_351" data-name="Trazado 351" d="M213,0A212.768,212.768,0,0,1,380.924,81.948s3.958,237.661-12.85,263.344l-307.8-4.158C31.233,304.885,46.062,80.7,46.062,80.7A212.616,212.616,0,0,1,213,0Z" transform="translate(336.755 4207.357)" fill="url(#radial-gradient-2)"/>
      <path id="Trazado_325" data-name="Trazado 325" d="M-561.285,4366.854s8.56-10.19,26.52-7.727,14.566,15.31,14.566,15.31,7.972-9.112,18.905-7.583,10.473,10.888,10.473,10.888,7.2-7.584,17.352-5.941,10.348,10.455,10.348,10.455,3.98-5.6,17.074-2.1,7.735,14.707,7.735,14.707,11.3-3.615,20.976-2.694,7.981,15.074,7.981,15.074a17.91,17.91,0,0,1,16.111-9.866c12.013-.277,12.244,7.65,12.244,7.65s9.509-12.732,10.269-12.859c9.622-1.611,15.722,2.694,15.722,2.694s-1.634-13.112,9.977-14.707,23.355,6.591,23.355,6.591-11.826-14.154,11.747-14.944,15.974,5.941,15.974,5.941a66.217,66.217,0,0,1,14.164-11.267c5.04-2.944,15.272,5.326,15.272,5.326s6.271-11.437,13.556-12.674,15.582,7.727,15.582,7.727v47.419l-32.565,26.07-269.22-1.886-24.117-16.77Z" transform="translate(948.384 120.883)" fill="#f5f5f5"/>
      <path id="Trazado_352" data-name="Trazado 352" d="M149.5,0C232.067,0,299,67.381,299,150.5a150.636,150.636,0,0,1-28.55,88.477L27.728,237.829A150.273,150.273,0,0,1,0,150.5C0,67.381,66.933,0,149.5,0Z" transform="translate(400.755 4325.357)" fill="url(#radial-gradient-3)"/>
      <g id="Grupo_245" data-name="Grupo 245" transform="matrix(0.719, -0.695, 0.695, 0.719, 378.143, 4433.237)">
        <path id="Trazado_326" data-name="Trazado 326" d="M23,0H58.95L87.921,145.671H0Z" transform="matrix(0.719, 0.695, -0.695, 0.719, 101.191, 81.19)" fill="#fca12a"/>
        <path id="Trazado_327" data-name="Trazado 327" d="M12.164,0H30.607l16.47,145.671H0Z" transform="matrix(0.719, 0.695, -0.695, 0.719, 115.882, 95.377)" fill="#ffc114"/>
        <path id="Trazado_138" data-name="Trazado 138" d="M25.253,0C10.056,12.567,0,17.855,0,17.855s10.982,10.1,1.715,27.6C37.875,28.042,25.253,0,25.253,0Z" transform="translate(160.448 95.389)" fill="url(#linear-gradient-2)"/>
        <path id="Trazado_152" data-name="Trazado 152" d="M0,42.874c3.889-3.839,7.556-7.247,7.2-20.517S19.181,5.675,24.325,0C31.93,24.857,7.8,40.22,0,42.874Z" transform="translate(162.163 97.975)" fill="url(#linear-gradient-3)"/>
        <path id="Trazado_156" data-name="Trazado 156" d="M0,18.041S1.69,12.113,1.2,8.08,1.52.18,3.157.01c3.6-.374,1.251,9.489.413,11.873A33.493,33.493,0,0,1,0,18.041Z" transform="translate(181.508 104.448)" fill="#ff833c"/>
        <path id="Trazado_137" data-name="Trazado 137" d="M0,25.43C15.949-10,45.433,1.931,45.433,1.931A130.98,130.98,0,0,0,27.765,26.819S19.39,16.386,0,25.43Z" transform="translate(98.953 51.858)" fill="url(#linear-gradient-4)"/>
        <path id="Trazado_150" data-name="Trazado 150" d="M42.294.959c-.9,1.8-9.72,14.6-18.187,16.416S5.883,16.535,0,25.193C5.851,9.862,20.556-3.792,42.294.959Z" transform="translate(99.064 51.969)" fill="url(#linear-gradient-5)"/>
        <path id="Trazado_151" data-name="Trazado 151" d="M0,4.838C4.138-.856,17.216-.637,17.763,1.029S15.425,3.8,9.664,3.368A20.357,20.357,0,0,0,0,4.838Z" transform="translate(117.422 53.263)" fill="#ff823d"/>
        <path id="Trazado_155" data-name="Trazado 155" d="M0,27.488C6.712,18.134.586,7.882,11.946,1.826S31.86,5.842,25.115,16.508,9.692,24.474,0,27.488Z" transform="translate(109.126 105.161)" fill="url(#linear-gradient-6)"/>
        <path id="Trazado_139" data-name="Trazado 139" d="M16.348,0c-5.221,1.6-3.223,6.076-3.223,6.076A91.931,91.931,0,0,0,2,9.808,3.807,3.807,0,0,0,.423,14.9C1.689,17.739,8.6,30.758,22.512,37.862c3.531,1.524,4.792-1.405,4.792-1.405,2.553-3.334,4.4-10.2,4.4-10.2s4.264,2.851,6.861-2.927C33.514,14.842,25.918,5.223,16.348,0Z" transform="translate(116.97 85.663)" fill="#32485d"/>
        <path id="Trazado_140" data-name="Trazado 140" d="M0,3.821c2.8,15.033,23.941,26.3,25.258,26.464,1.262-.444,4.432-10.148,4.432-10.148C19.048,13.093,14.167,4.58,11.172,0,5.183,1.739,1.38,2.637,0,3.821Z" transform="translate(118.95 91.764)" fill="#466077"/>
        <path id="Trazado_141" data-name="Trazado 141" d="M0,1.869A6.235,6.235,0,0,1,3.036,0c7.47,2.623,18.3,16,22.123,23.431a9.423,9.423,0,0,1-1.936,2.6C19.028,25.527,2.24,11.509,0,1.869Z" transform="translate(130.486 85.576)" fill="#466077"/>
        <path id="Trazado_142" data-name="Trazado 142" d="M0,5.832A17.666,17.666,0,0,1,11.163,0c1.587,2.529,1.828,2.694,2.8,4.219-4.331,2.112-9.836,8.561-9.836,8.561S.754,8.841,0,5.832Z" transform="translate(120.04 93.438)" fill="#5f7e9b"/>
        <path id="Trazado_143" data-name="Trazado 143" d="M4.6,0C2.752.076.889,2.174,0,2.887A30.293,30.293,0,0,0,2.847,7.618S5.789,2.806,7.871,2.347A17.734,17.734,0,0,0,4.6,0Z" transform="translate(131.508 87.449)" fill="#5f7e9b"/>
        <path id="Trazado_144" data-name="Trazado 144" d="M0,10.491C3.423,6.647,4.908,0,4.908,0L7.574,1.83A36.751,36.751,0,0,1,3.319,12.048Z" transform="translate(141.05 110.06)" fill="#61707e"/>
        <path id="Trazado_145" data-name="Trazado 145" d="M3.909,0C4.957,1.894,5.777,2.164,6.177,3.982A8.656,8.656,0,0,1,4.31,6.5C2.936,6.318,0,4.4,0,4.4A7.93,7.93,0,0,0,3.909,0Z" transform="translate(149.407 105.101)" fill="#61707e"/>
        <path id="Trazado_135" data-name="Trazado 135" d="M.218,69.468C2.005,64.147,34.477,16.077,69.559,0c10.693,4.347,32.692,28.04,34.625,33.811-8.436,21.912-49.808,60.036-70.2,70.073a3.005,3.005,0,0,1-3.586-2.183c-4.042-7.74-13.351-21.6-29.1-28.5C1.289,73.2-.635,72.311.218,69.468Z" transform="translate(126.379 9.367)" fill="url(#linear-gradient-7)"/>
        <path id="Trazado_136" data-name="Trazado 136" d="M0,9.367S19.67-2.5,43.276.48a76.691,76.691,0,0,1-8.513,42.853C33.3,38.934,11.707,14.141,0,9.367Z" transform="translate(195.868 0)" fill="url(#linear-gradient-8)"/>
        <path id="Trazado_146" data-name="Trazado 146" d="M36.715,0C29.466.382,8.946,2.293,0,10.6a38.9,38.9,0,0,1,8.452,6.265S32.449,1.734,36.715,0Z" transform="translate(201.506 0.467)" fill="#ff833d"/>
        <path id="Trazado_147" data-name="Trazado 147" d="M10.316,0C6.628,25.583,0,39.744,0,39.744A12.511,12.511,0,0,1,1.821,42.8,75.973,75.973,0,0,0,10.316,0Z" transform="translate(228.824 0.567)" fill="#ee7062"/>
        <path id="Trazado_148" data-name="Trazado 148" d="M.083,68.8a1.4,1.4,0,0,0,.7,1.769l5.734,3.517s1,.971,2.359-.626C24.423,48.334,62.246,13.94,75.784,6.643c0,0-6.907-7.21-8.538-6.607C43.3,9.081,5.759,56.593.083,68.8Z" transform="translate(131.467 12.609)" fill="#7ab0e3"/>
        <path id="Trazado_149" data-name="Trazado 149" d="M0,66.446s2.474,2.919,6.48.731C24.25,60.945,58.825,34.285,74.419,0c0,0,1.745,2.261,1.786,3.026C60.137,37.567,10,72,6.025,72.982a2.961,2.961,0,0,1-3.412-1.53C2.077,70.61,0,66.446,0,66.446Z" transform="translate(154.442 40.343)" fill="#6889a8"/>
        <ellipse id="Elipse_50" data-name="Elipse 50" cx="1.472" cy="1.227" rx="1.472" ry="1.227" transform="translate(195.695 12.01)" fill="#8dc1f2"/>
        <circle id="Elipse_51" data-name="Elipse 51" cx="1.227" cy="1.227" r="1.227" transform="translate(204.038 17.899)" fill="#8dc1f2"/>
        <ellipse id="Elipse_52" data-name="Elipse 52" cx="1.227" cy="1.472" rx="1.227" ry="1.472" transform="translate(211.889 25.26)" fill="#8dc1f2"/>
        <ellipse id="Elipse_53" data-name="Elipse 53" cx="1.472" cy="1.227" rx="1.472" ry="1.227" transform="translate(218.76 33.111)" fill="#8dc1f2"/>
        <ellipse id="Elipse_54" data-name="Elipse 54" cx="1.227" cy="1.472" rx="1.227" ry="1.472" transform="translate(225.139 40.963)" fill="#8dc1f2"/>
        <ellipse id="Elipse_55" data-name="Elipse 55" cx="12.759" cy="14.967" rx="12.759" ry="14.967" transform="translate(183.427 29.185)" fill="#a0c3e3"/>
        <ellipse id="Elipse_56" data-name="Elipse 56" cx="14.476" cy="14.722" rx="14.476" ry="14.722" transform="translate(178.52 31.148)" fill="#677e93"/>
        <circle id="Elipse_57" data-name="Elipse 57" cx="14.476" cy="14.476" r="14.476" transform="translate(179.501 30.658)" fill="#475c6f"/>
        <circle id="Elipse_58" data-name="Elipse 58" cx="11.041" cy="11.041" r="11.041" transform="translate(183.427 34.093)" fill="#34404b"/>
        <circle id="Elipse_59" data-name="Elipse 59" cx="9.569" cy="9.569" r="9.569" transform="translate(184.899 35.565)" fill="#00b2e1"/>
        <circle id="Elipse_60" data-name="Elipse 60" cx="8.588" cy="8.588" r="8.588" transform="translate(184.899 37.037)" fill="url(#linear-gradient-9)"/>
        <ellipse id="Elipse_61" data-name="Elipse 61" cx="2.454" cy="1.963" rx="2.454" ry="1.963" transform="translate(190.788 37.037)" fill="#fff"/>
        <ellipse id="Elipse_62" data-name="Elipse 62" cx="1.472" cy="1.227" rx="1.472" ry="1.227" transform="translate(196.186 39)" fill="#fff"/>
        <ellipse id="Elipse_63" data-name="Elipse 63" cx="1.472" cy="1.227" rx="1.472" ry="1.227" transform="translate(195.205 11.519)" fill="#475c6f"/>
        <ellipse id="Elipse_64" data-name="Elipse 64" cx="1.472" cy="1.227" rx="1.472" ry="1.227" transform="translate(203.547 17.408)" fill="#475c6f"/>
        <ellipse id="Elipse_65" data-name="Elipse 65" cx="1.227" cy="1.472" rx="1.227" ry="1.472" transform="translate(211.399 24.769)" fill="#475c6f"/>
        <ellipse id="Elipse_66" data-name="Elipse 66" cx="1.227" cy="1.472" rx="1.227" ry="1.472" transform="translate(218.76 32.621)" fill="#475c6f"/>
        <ellipse id="Elipse_67" data-name="Elipse 67" cx="0.981" cy="1.472" rx="0.981" ry="1.472" transform="translate(225.139 40.472)" fill="#475c6f"/>
      </g>
      <path id="Trazado_328" data-name="Trazado 328" d="M182.048,4587.639s-11.8-5.733-27.2,1.745-13.227,20.005-13.227,20.005-15.477-6.861-28.962,0-13.432,18.481-13.432,18.481-15.26-4.863-27.915,3.9-8.106,17.706-8.106,17.706-7.2-13.011-21.64-10.216-18.361,23.89-18.361,23.89l128.069,6.338,30.777-22.689Z" transform="translate(530.719 -105.606)" fill="#e3e2e2"/>
      <path id="Trazado_329" data-name="Trazado 329" d="M23.2,4587.639s12.087-5.733,27.856,1.745S64.6,4609.389,64.6,4609.389s15.848-6.861,29.656,0,13.754,18.481,13.754,18.481,15.626-4.863,28.585,3.9,8.3,17.706,8.3,17.706,7.372-13.011,22.159-10.216,18.8,23.89,18.8,23.89l-134.8,4.311-24.876-22.635Z" transform="translate(364.192 -105.606)" fill="#e3e2e2"/>
    </g>
    <g id="Grupo_101" data-name="Grupo 101" transform="translate(191.082 491.224)">
      <g id="Grupo_69" data-name="Grupo 69" transform="translate(876 2511)">
        <path id="Sustracción_1" data-name="Sustracción 1" d="M295,720H60a59.721,59.721,0,0,1-33.547-10.247,60.175,60.175,0,0,1-21.738-26.4A59.624,59.624,0,0,1,0,660V60A59.719,59.719,0,0,1,10.247,26.453a60.176,60.176,0,0,1,26.4-21.738A59.626,59.626,0,0,1,60,0H295a59.719,59.719,0,0,1,33.546,10.247,60.174,60.174,0,0,1,21.738,26.4A59.625,59.625,0,0,1,355,60V660a59.721,59.721,0,0,1-10.247,33.547,60.173,60.173,0,0,1-26.4,21.738A59.622,59.622,0,0,1,295,720ZM64.768,15.652a44.963,44.963,0,0,0-45,45v595.4a44.962,44.962,0,0,0,45,45H292.7a44.962,44.962,0,0,0,45-45V60.652a44.963,44.963,0,0,0-45-45Z" transform="translate(-0.082 -0.225)" fill="#e6e6e6"/>
        <path id="Trazado_61" data-name="Trazado 61" d="M-7.895-.033l189,.1s-7.247-1.859-7.14,7.331A16.337,16.337,0,0,1,157.5,23.859H15.071C5.977,23.859-1.4,14.722-1.4,7.393S-7.895-.033-7.895-.033Z" transform="translate(93.603 14.835)" fill="#e6e6e6"/>
      </g>
      <circle id="Elipse_34" data-name="Elipse 34" cx="5.5" cy="5.5" r="5.5" transform="translate(1086.918 2526.776)" fill="#fff"/>
      <rect id="Rectángulo_39" data-name="Rectángulo 39" width="45" height="6" rx="3" transform="translate(1033.918 2528.776)" fill="#fff"/>
    </g>
    <path id="Trazado_354" data-name="Trazado 354" d="M-35.82-1.5A16.942,16.942,0,0,1-40.14.06a21.938,21.938,0,0,1-4.59.48,13.085,13.085,0,0,1-4.59-.78,10.507,10.507,0,0,1-3.63-2.235A10.133,10.133,0,0,1-55.335-6a12,12,0,0,1-.855-4.62,12,12,0,0,1,.855-4.62,10.133,10.133,0,0,1,2.385-3.525A10.507,10.507,0,0,1-49.32-21a13.085,13.085,0,0,1,4.59-.78,16.988,16.988,0,0,1,4.695.615A9.192,9.192,0,0,1-36.27-19.05l-3.3,3.6a6.575,6.575,0,0,0-2.16-1.5,7.7,7.7,0,0,0-3-.51,6.951,6.951,0,0,0-2.715.51,6.093,6.093,0,0,0-2.085,1.425,6.259,6.259,0,0,0-1.335,2.175,7.825,7.825,0,0,0-.465,2.73,7.79,7.79,0,0,0,.465,2.745,6.287,6.287,0,0,0,1.335,2.16A6.093,6.093,0,0,0-47.445-4.29a6.951,6.951,0,0,0,2.715.51,8.945,8.945,0,0,0,2.64-.345,9.963,9.963,0,0,0,1.77-.7V-8.28h-3.81V-12.6h8.31Zm3-5.79a7.638,7.638,0,0,1,.63-3.15,7.251,7.251,0,0,1,1.725-2.415,7.618,7.618,0,0,1,2.58-1.545,9.19,9.19,0,0,1,3.165-.54,9.19,9.19,0,0,1,3.165.54,7.618,7.618,0,0,1,2.58,1.545A7.251,7.251,0,0,1-17.25-10.44a7.638,7.638,0,0,1,.63,3.15,7.638,7.638,0,0,1-.63,3.15,7.251,7.251,0,0,1-1.725,2.415A7.618,7.618,0,0,1-21.555-.18,9.19,9.19,0,0,1-24.72.36a9.19,9.19,0,0,1-3.165-.54,7.618,7.618,0,0,1-2.58-1.545A7.251,7.251,0,0,1-32.19-4.14,7.638,7.638,0,0,1-32.82-7.29Zm4.5,0a3.772,3.772,0,0,0,.945,2.67A3.44,3.44,0,0,0-24.72-3.6a3.44,3.44,0,0,0,2.655-1.02,3.772,3.772,0,0,0,.945-2.67,3.772,3.772,0,0,0-.945-2.67,3.44,3.44,0,0,0-2.655-1.02,3.44,3.44,0,0,0-2.655,1.02A3.772,3.772,0,0,0-28.32-7.29ZM-4.83-1.83h-.06a4.232,4.232,0,0,1-2,1.68A6.858,6.858,0,0,1-9.51.36,6.768,6.768,0,0,1-11.475.075,4.959,4.959,0,0,1-13.14-.78a4.129,4.129,0,0,1-1.14-1.41,4.307,4.307,0,0,1-.42-1.95,4.471,4.471,0,0,1,.465-2.13,4.161,4.161,0,0,1,1.26-1.44A6.257,6.257,0,0,1-11.16-8.6,13.249,13.249,0,0,1-9.045-9.06a20.2,20.2,0,0,1,2.19-.18q1.1-.03,2.025-.03a2.34,2.34,0,0,0-.855-1.905,3.083,3.083,0,0,0-2.025-.7,4.4,4.4,0,0,0-2.025.465A5.532,5.532,0,0,0-11.37-10.14l-2.4-2.46a8.258,8.258,0,0,1,2.94-1.755,10.507,10.507,0,0,1,3.48-.585,9.1,9.1,0,0,1,3.255.495,4.733,4.733,0,0,1,2.04,1.455A5.607,5.607,0,0,1-.99-10.635,15.455,15.455,0,0,1-.69-7.41V0H-4.83ZM-5.94-6.39q-.51,0-1.275.045a6.461,6.461,0,0,0-1.47.255,3.271,3.271,0,0,0-1.2.63,1.451,1.451,0,0,0-.495,1.17,1.287,1.287,0,0,0,.69,1.2,2.886,2.886,0,0,0,1.44.39,4.516,4.516,0,0,0,1.275-.18,3.8,3.8,0,0,0,1.1-.51,2.465,2.465,0,0,0,.765-.84,2.421,2.421,0,0,0,.285-1.2v-.96ZM2.19-22.68h4.5V0H2.19ZM18.18-10.29a3.186,3.186,0,0,0-2.61-1.23,2.455,2.455,0,0,0-1.11.27.955.955,0,0,0-.54.93.836.836,0,0,0,.555.8,7.341,7.341,0,0,0,1.41.45l1.83.42a6.876,6.876,0,0,1,1.83.705,4.1,4.1,0,0,1,1.41,1.3,3.893,3.893,0,0,1,.555,2.2A4.083,4.083,0,0,1,20.9-2.115,4.717,4.717,0,0,1,19.32-.645a6.774,6.774,0,0,1-2.16.78A12.839,12.839,0,0,1,14.79.36,11.464,11.464,0,0,1,11.7-.075,5.773,5.773,0,0,1,9.06-1.62l2.73-3.03a4.529,4.529,0,0,0,1.4,1.185,3.761,3.761,0,0,0,1.785.405,4.171,4.171,0,0,0,1.41-.225.83.83,0,0,0,.63-.825.914.914,0,0,0-.555-.855,6.077,6.077,0,0,0-1.41-.48l-1.83-.42a7.561,7.561,0,0,1-1.83-.675,3.829,3.829,0,0,1-1.41-1.275,3.893,3.893,0,0,1-.555-2.2,4.446,4.446,0,0,1,.525-2.22,4.612,4.612,0,0,1,1.38-1.53,5.971,5.971,0,0,1,1.965-.885,9.012,9.012,0,0,1,2.25-.285,10.555,10.555,0,0,1,2.91.42,5.4,5.4,0,0,1,2.49,1.5Zm5.73,7.71a2.809,2.809,0,0,1,.21-1.08,2.68,2.68,0,0,1,.585-.885,2.679,2.679,0,0,1,.885-.585,2.809,2.809,0,0,1,1.08-.21,2.809,2.809,0,0,1,1.08.21,2.679,2.679,0,0,1,.885.585,2.68,2.68,0,0,1,.585.885,2.809,2.809,0,0,1,.21,1.08,2.809,2.809,0,0,1-.21,1.08,2.68,2.68,0,0,1-.585.885,2.679,2.679,0,0,1-.885.585,2.809,2.809,0,0,1-1.08.21,2.809,2.809,0,0,1-1.08-.21A2.679,2.679,0,0,1,24.7-.615,2.68,2.68,0,0,1,24.12-1.5,2.809,2.809,0,0,1,23.91-2.58Zm8.85-12h4.5V0h-4.5Zm-.36-4.59a2.514,2.514,0,0,1,.765-1.845,2.514,2.514,0,0,1,1.845-.765,2.514,2.514,0,0,1,1.845.765,2.514,2.514,0,0,1,.765,1.845,2.514,2.514,0,0,1-.765,1.845,2.514,2.514,0,0,1-1.845.765,2.514,2.514,0,0,1-1.845-.765A2.514,2.514,0,0,1,32.4-19.17ZM39.96-7.29a7.638,7.638,0,0,1,.63-3.15,7.251,7.251,0,0,1,1.725-2.415A7.618,7.618,0,0,1,44.9-14.4a9.19,9.19,0,0,1,3.165-.54,9.19,9.19,0,0,1,3.165.54,7.618,7.618,0,0,1,2.58,1.545A7.251,7.251,0,0,1,55.53-10.44a7.638,7.638,0,0,1,.63,3.15,7.638,7.638,0,0,1-.63,3.15,7.251,7.251,0,0,1-1.725,2.415A7.618,7.618,0,0,1,51.225-.18,9.19,9.19,0,0,1,48.06.36,9.19,9.19,0,0,1,44.9-.18a7.618,7.618,0,0,1-2.58-1.545A7.251,7.251,0,0,1,40.59-4.14,7.638,7.638,0,0,1,39.96-7.29Zm4.5,0A3.772,3.772,0,0,0,45.4-4.62,3.44,3.44,0,0,0,48.06-3.6a3.44,3.44,0,0,0,2.655-1.02,3.772,3.772,0,0,0,.945-2.67,3.772,3.772,0,0,0-.945-2.67,3.44,3.44,0,0,0-2.655-1.02A3.44,3.44,0,0,0,45.4-9.96,3.772,3.772,0,0,0,44.46-7.29Z" transform="translate(1245 3110)" fill="#fff"/>
    <path id="Trazado_353" data-name="Trazado 353" d="M-120.187-16.284h1.564L-111.769,0h-1.7l-1.771-4.324h-8.625L-125.706,0h-1.587Zm.713,1.656L-123.269-5.7h7.475Zm18.561,13.064a4.968,4.968,0,0,1-1.771,1.392,5.118,5.118,0,0,1-2.139.448,6.014,6.014,0,0,1-2.254-.414A5.118,5.118,0,0,1-108.848-1.3,5.355,5.355,0,0,1-110-3.07a5.926,5.926,0,0,1-.414-2.243A5.926,5.926,0,0,1-110-7.556a5.355,5.355,0,0,1,1.15-1.771,5.119,5.119,0,0,1,1.771-1.161,6.014,6.014,0,0,1,2.254-.414,4.933,4.933,0,0,1,2.174.483,5.713,5.713,0,0,1,1.783,1.357l-1.1.828a4.78,4.78,0,0,0-1.311-1.046,3.23,3.23,0,0,0-1.541-.38,4.285,4.285,0,0,0-1.748.345,4.055,4.055,0,0,0-1.334.931,3.952,3.952,0,0,0-.84,1.38,4.924,4.924,0,0,0-.287,1.691,4.924,4.924,0,0,0,.287,1.691,3.952,3.952,0,0,0,.84,1.38,4.055,4.055,0,0,0,1.334.931,4.285,4.285,0,0,0,1.748.345,3.236,3.236,0,0,0,1.6-.4,4.178,4.178,0,0,0,1.254-1.069Zm2.162-15.824h1.38v8.625h.046a3.724,3.724,0,0,1,1.38-1.506A4.021,4.021,0,0,1-93.69-10.9a4.532,4.532,0,0,1,2.024.391,3.257,3.257,0,0,1,1.231,1.023,3.85,3.85,0,0,1,.621,1.46,8.323,8.323,0,0,1,.173,1.7V0h-1.38V-6.256a6.747,6.747,0,0,0-.115-1.253,3.32,3.32,0,0,0-.4-1.093,2.1,2.1,0,0,0-.805-.771A2.758,2.758,0,0,0-93.69-9.66a3.922,3.922,0,0,0-1.437.265,3.092,3.092,0,0,0-1.173.8,3.9,3.9,0,0,0-.782,1.357,5.787,5.787,0,0,0-.287,1.92V0h-1.38Zm13.018,6.762h1.38V0h-1.38Zm-.345-4.209a1,1,0,0,1,.3-.736,1,1,0,0,1,.736-.3,1,1,0,0,1,.736.3,1,1,0,0,1,.3.736,1,1,0,0,1-.3.736,1,1,0,0,1-.736.3,1,1,0,0,1-.736-.3A1,1,0,0,1-86.078-14.835ZM-71.059-2a4.653,4.653,0,0,1-1.99,1.748,6.33,6.33,0,0,1-2.61.529,5.666,5.666,0,0,1-2.208-.414,4.979,4.979,0,0,1-1.7-1.161A5.1,5.1,0,0,1-80.661-3.07a6.473,6.473,0,0,1-.38-2.266,6.076,6.076,0,0,1,.391-2.208,5.27,5.27,0,0,1,1.1-1.76,5.181,5.181,0,0,1,1.679-1.173,5.249,5.249,0,0,1,2.139-.425,5.127,5.127,0,0,1,2.15.425A4.708,4.708,0,0,1-72.013-9.35a4.771,4.771,0,0,1,.954,1.6,5.342,5.342,0,0,1,.322,1.817v.966H-79.66a4.721,4.721,0,0,0,.173,1.115,3.949,3.949,0,0,0,.632,1.323,4.008,4.008,0,0,0,1.23,1.1,3.84,3.84,0,0,0,1.99.46,4.441,4.441,0,0,0,2.047-.506,3.688,3.688,0,0,0,1.518-1.38ZM-72.117-6.21A3.136,3.136,0,0,0-72.4-7.544a3.566,3.566,0,0,0-.782-1.092,3.7,3.7,0,0,0-1.173-.748A3.778,3.778,0,0,0-75.8-9.66a3.52,3.52,0,0,0-1.875.46,4.1,4.1,0,0,0-1.184,1.058,4.206,4.206,0,0,0-.621,1.162,3.079,3.079,0,0,0-.184.77Zm2.967-4.416h1.564l3.542,9.131,3.45-9.131h1.4L-63.376,0H-64.8ZM-47.621-2A4.653,4.653,0,0,1-49.611-.253a6.33,6.33,0,0,1-2.611.529,5.666,5.666,0,0,1-2.208-.414,4.979,4.979,0,0,1-1.7-1.161A5.1,5.1,0,0,1-57.224-3.07,6.473,6.473,0,0,1-57.6-5.336a6.076,6.076,0,0,1,.391-2.208,5.27,5.27,0,0,1,1.1-1.76,5.181,5.181,0,0,1,1.679-1.173A5.249,5.249,0,0,1-52.29-10.9a5.127,5.127,0,0,1,2.151.425A4.708,4.708,0,0,1-48.576-9.35a4.771,4.771,0,0,1,.954,1.6A5.343,5.343,0,0,1-47.3-5.934v.966h-8.924a4.721,4.721,0,0,0,.172,1.115,3.949,3.949,0,0,0,.633,1.323,4.008,4.008,0,0,0,1.23,1.1,3.84,3.84,0,0,0,1.989.46,4.441,4.441,0,0,0,2.047-.506,3.688,3.688,0,0,0,1.518-1.38ZM-48.679-6.21a3.136,3.136,0,0,0-.287-1.334,3.567,3.567,0,0,0-.782-1.092,3.7,3.7,0,0,0-1.173-.748,3.778,3.778,0,0,0-1.437-.276,3.52,3.52,0,0,0-1.875.46,4.1,4.1,0,0,0-1.184,1.058,4.206,4.206,0,0,0-.621,1.162,3.079,3.079,0,0,0-.184.77ZM-28.854-2A4.653,4.653,0,0,1-30.843-.253a6.33,6.33,0,0,1-2.611.529,5.666,5.666,0,0,1-2.208-.414,4.979,4.979,0,0,1-1.7-1.161A5.1,5.1,0,0,1-38.456-3.07a6.473,6.473,0,0,1-.379-2.266,6.076,6.076,0,0,1,.391-2.208,5.27,5.27,0,0,1,1.1-1.76,5.181,5.181,0,0,1,1.679-1.173,5.249,5.249,0,0,1,2.139-.425,5.127,5.127,0,0,1,2.151.425A4.708,4.708,0,0,1-29.808-9.35a4.771,4.771,0,0,1,.954,1.6,5.343,5.343,0,0,1,.322,1.817v.966h-8.924a4.721,4.721,0,0,0,.172,1.115A3.949,3.949,0,0,0-36.65-2.53a4.008,4.008,0,0,0,1.23,1.1,3.84,3.84,0,0,0,1.989.46,4.441,4.441,0,0,0,2.047-.506,3.688,3.688,0,0,0,1.518-1.38ZM-29.911-6.21A3.136,3.136,0,0,0-30.2-7.544a3.567,3.567,0,0,0-.782-1.092,3.7,3.7,0,0,0-1.173-.748,3.778,3.778,0,0,0-1.437-.276,3.52,3.52,0,0,0-1.875.46A4.1,4.1,0,0,0-36.65-8.142a4.206,4.206,0,0,0-.621,1.162,3.079,3.079,0,0,0-.184.77Zm2.967-4.416h1.564l3.542,9.131,3.45-9.131h1.4L-21.171,0H-22.6ZM-5.417-2A4.653,4.653,0,0,1-7.406-.253a6.33,6.33,0,0,1-2.611.529,5.666,5.666,0,0,1-2.208-.414,4.979,4.979,0,0,1-1.7-1.161A5.1,5.1,0,0,1-15.019-3.07a6.473,6.473,0,0,1-.38-2.266,6.076,6.076,0,0,1,.391-2.208A5.27,5.27,0,0,1-13.9-9.3a5.181,5.181,0,0,1,1.679-1.173,5.249,5.249,0,0,1,2.139-.425,5.127,5.127,0,0,1,2.151.425A4.708,4.708,0,0,1-6.371-9.35a4.771,4.771,0,0,1,.955,1.6,5.343,5.343,0,0,1,.322,1.817v.966h-8.924a4.721,4.721,0,0,0,.173,1.115,3.949,3.949,0,0,0,.632,1.323,4.008,4.008,0,0,0,1.23,1.1,3.84,3.84,0,0,0,1.99.46,4.441,4.441,0,0,0,2.047-.506,3.688,3.688,0,0,0,1.518-1.38ZM-6.475-6.21a3.136,3.136,0,0,0-.288-1.334,3.567,3.567,0,0,0-.782-1.092,3.7,3.7,0,0,0-1.173-.748,3.778,3.778,0,0,0-1.437-.276,3.52,3.52,0,0,0-1.875.46,4.1,4.1,0,0,0-1.184,1.058,4.206,4.206,0,0,0-.621,1.162,3.079,3.079,0,0,0-.184.77Zm4.462-1.426q0-.3-.023-.725t-.034-.862q-.012-.437-.035-.817t-.023-.587h1.38q.023.6.035,1.15a3.612,3.612,0,0,0,.057.713A4.715,4.715,0,0,1,.7-10.3a3.365,3.365,0,0,1,2.024-.6,2.312,2.312,0,0,1,.4.035q.2.035.4.08L3.369-9.43a1.671,1.671,0,0,0-.529-.092,3.844,3.844,0,0,0-1.553.288,2.917,2.917,0,0,0-1.081.793A3.324,3.324,0,0,0-.426-7.256,4.981,4.981,0,0,0-.633-5.8V0h-1.38ZM8.636,3.289A3.961,3.961,0,0,1,7.555,4.922a2.711,2.711,0,0,1-1.84.6,4.19,4.19,0,0,1-.69-.057,6.042,6.042,0,0,1-.667-.149L4.5,4.025q.3.092.609.173a2.51,2.51,0,0,0,.633.08,1.318,1.318,0,0,0,.655-.161A1.717,1.717,0,0,0,6.888,3.7a2.812,2.812,0,0,0,.357-.563,6.485,6.485,0,0,0,.265-.633L8.475.046,4.151-10.626H5.692L9.211-1.679l3.427-8.947H14.11ZM21.493-9.384H18.457v6.923a1.493,1.493,0,0,0,.391,1.1,1.461,1.461,0,0,0,1.081.391,3.177,3.177,0,0,0,.794-.1,5.067,5.067,0,0,0,.771-.265l.115,1.242a8.121,8.121,0,0,1-.9.253,4.1,4.1,0,0,1-.9.115A3.306,3.306,0,0,1,18.549.057,2.247,2.247,0,0,1,17.7-.529a2.3,2.3,0,0,1-.472-.863,3.68,3.68,0,0,1-.149-1.069V-9.384h-2.3v-1.242h2.3v-3.059h1.38v3.059h3.036Zm2.484-8h1.38v8.625H25.4a3.724,3.724,0,0,1,1.38-1.506,4.021,4.021,0,0,1,2.254-.633,4.532,4.532,0,0,1,2.024.391,3.257,3.257,0,0,1,1.23,1.023,3.85,3.85,0,0,1,.621,1.46,8.323,8.323,0,0,1,.173,1.7V0h-1.38V-6.256a6.747,6.747,0,0,0-.115-1.253,3.32,3.32,0,0,0-.4-1.093,2.1,2.1,0,0,0-.8-.771,2.758,2.758,0,0,0-1.346-.287A3.922,3.922,0,0,0,27.6-9.4a3.093,3.093,0,0,0-1.173.8,3.9,3.9,0,0,0-.782,1.357,5.787,5.787,0,0,0-.288,1.92V0h-1.38ZM37-10.626h1.38V0H37Zm-.345-4.209a1,1,0,0,1,.3-.736,1,1,0,0,1,.736-.3,1,1,0,0,1,.736.3,1,1,0,0,1,.3.736,1,1,0,0,1-.3.736,1,1,0,0,1-.736.3,1,1,0,0,1-.736-.3A1,1,0,0,1,36.65-14.835Zm5.635,7.2q0-.3-.023-.725t-.035-.862q-.012-.437-.035-.817t-.023-.587h1.38q.023.6.035,1.15a3.612,3.612,0,0,0,.057.713h.069a3.724,3.724,0,0,1,1.38-1.506,4.021,4.021,0,0,1,2.254-.633,4.532,4.532,0,0,1,2.024.391A3.257,3.257,0,0,1,50.6-9.488a3.85,3.85,0,0,1,.621,1.46,8.323,8.323,0,0,1,.173,1.7V0h-1.38V-6.256A6.747,6.747,0,0,0,49.9-7.51,3.32,3.32,0,0,0,49.5-8.6a2.1,2.1,0,0,0-.805-.771,2.758,2.758,0,0,0-1.345-.287,3.922,3.922,0,0,0-1.437.265,3.092,3.092,0,0,0-1.173.8,3.9,3.9,0,0,0-.782,1.357,5.787,5.787,0,0,0-.287,1.92V0h-1.38ZM65.745-.69a7.549,7.549,0,0,1-.575,3.2,5.047,5.047,0,0,1-1.438,1.886,4.774,4.774,0,0,1-1.852.9,7.988,7.988,0,0,1-1.794.23,8.252,8.252,0,0,1-1.576-.149,7.5,7.5,0,0,1-1.46-.437,6.012,6.012,0,0,1-1.254-.7,4.967,4.967,0,0,1-.977-.943L55.9,2.277A4.392,4.392,0,0,0,57.741,3.8a5.789,5.789,0,0,0,2.346.483A5.033,5.033,0,0,0,61.87,4a3.537,3.537,0,0,0,1.2-.724,3.465,3.465,0,0,0,.736-.989,5.106,5.106,0,0,0,.391-1.081A5.69,5.69,0,0,0,64.342.184q.023-.483.023-.782V-2.07h-.046A4.234,4.234,0,0,1,62.7-.552a4.989,4.989,0,0,1-2.4.552,5.75,5.75,0,0,1-2.208-.426A5.648,5.648,0,0,1,56.281-1.6a5.645,5.645,0,0,1-1.219-1.736,5.063,5.063,0,0,1-.448-2.116,5.063,5.063,0,0,1,.448-2.116,5.506,5.506,0,0,1,1.219-1.725,5.919,5.919,0,0,1,1.806-1.173,5.618,5.618,0,0,1,2.208-.437,4.989,4.989,0,0,1,2.4.552,4.234,4.234,0,0,1,1.621,1.518h.046v-1.794h1.38ZM64.411-5.451A4.1,4.1,0,0,0,64.078-7.1a4.255,4.255,0,0,0-.9-1.334,4.255,4.255,0,0,0-1.334-.9A4.1,4.1,0,0,0,60.2-9.66a4.1,4.1,0,0,0-1.645.333,4.255,4.255,0,0,0-1.334.9,4.255,4.255,0,0,0-.9,1.334,4.1,4.1,0,0,0-.333,1.644,4.1,4.1,0,0,0,.333,1.645,4.255,4.255,0,0,0,.9,1.334,4.255,4.255,0,0,0,1.334.9,4.1,4.1,0,0,0,1.645.333,4.1,4.1,0,0,0,1.645-.333,4.255,4.255,0,0,0,1.334-.9,4.255,4.255,0,0,0,.9-1.334A4.1,4.1,0,0,0,64.411-5.451ZM69.173-.966a1.065,1.065,0,0,1,.322-.782,1.065,1.065,0,0,1,.782-.322,1.065,1.065,0,0,1,.782.322,1.065,1.065,0,0,1,.322.782,1.065,1.065,0,0,1-.322.782,1.065,1.065,0,0,1-.782.322,1.065,1.065,0,0,1-.782-.322A1.065,1.065,0,0,1,69.173-.966Zm12.3-15.318h9.752v1.38H83v5.8h7.659v1.38H83V0H81.478ZM102.131-4.462q0,.782.011,1.4t.035,1.15q.023.529.058.989t.1.92H101.05a9.956,9.956,0,0,1-.138-1.725h-.046A3.875,3.875,0,0,1,99.383-.207,4.648,4.648,0,0,1,97.14.276,5.4,5.4,0,0,1,95.783.1a3.56,3.56,0,0,1-1.2-.552,2.954,2.954,0,0,1-.863-.977,2.934,2.934,0,0,1-.333-1.449,2.84,2.84,0,0,1,.621-1.932,3.869,3.869,0,0,1,1.53-1.069,7.263,7.263,0,0,1,1.932-.46q1.024-.1,1.806-.1h1.61v-.644a2.247,2.247,0,0,0-.851-1.978,3.631,3.631,0,0,0-2.139-.6,4.851,4.851,0,0,0-3.243,1.2l-.805-.943a4.915,4.915,0,0,1,1.886-1.115A6.768,6.768,0,0,1,97.9-10.9a4.835,4.835,0,0,1,3.082.909,3.513,3.513,0,0,1,1.15,2.932Zm-2.76-.874a12.112,12.112,0,0,0-1.69.115,5.906,5.906,0,0,0-1.472.391,2.737,2.737,0,0,0-1.047.736,1.714,1.714,0,0,0-.391,1.15,1.7,1.7,0,0,0,.218.863,1.909,1.909,0,0,0,.563.621,2.65,2.65,0,0,0,.771.368,3.012,3.012,0,0,0,.863.127A4.433,4.433,0,0,0,99-1.288a3.087,3.087,0,0,0,1.138-.84,2.92,2.92,0,0,0,.587-1.173,5.525,5.525,0,0,0,.161-1.323v-.713Zm6.463,2.622a2.971,2.971,0,0,0,1.288,1.3,3.8,3.8,0,0,0,1.794.449,2.888,2.888,0,0,0,.874-.138,2.671,2.671,0,0,0,.782-.391,2.132,2.132,0,0,0,.563-.61,1.531,1.531,0,0,0,.219-.816,1.314,1.314,0,0,0-.472-1.1,3.5,3.5,0,0,0-1.161-.575,13.88,13.88,0,0,0-1.518-.357,6.5,6.5,0,0,1-1.518-.46,3.269,3.269,0,0,1-1.161-.863,2.338,2.338,0,0,1-.471-1.564,2.733,2.733,0,0,1,.322-1.357,2.962,2.962,0,0,1,.84-.955,3.634,3.634,0,0,1,1.161-.563,4.749,4.749,0,0,1,1.311-.184,4.962,4.962,0,0,1,2.265.483A3.349,3.349,0,0,1,112.436-8.9l-1.242.736a2.921,2.921,0,0,0-.978-1.115,2.774,2.774,0,0,0-1.529-.38,2.8,2.8,0,0,0-.771.115,2.7,2.7,0,0,0-.724.322,1.869,1.869,0,0,0-.541.529,1.28,1.28,0,0,0-.218.736A1.224,1.224,0,0,0,106.9-6.9a3.622,3.622,0,0,0,1.161.541,14.07,14.07,0,0,0,1.518.333,6.146,6.146,0,0,1,1.518.448,3.1,3.1,0,0,1,1.161.9,2.6,2.6,0,0,1,.472,1.668,3.129,3.129,0,0,1-.311,1.438,2.973,2.973,0,0,1-.851,1.023,3.8,3.8,0,0,1-1.23.621,5.016,5.016,0,0,1-1.449.207,5.9,5.9,0,0,1-2.518-.529,3.822,3.822,0,0,1-1.76-1.633Zm14.973-6.67h-3.036v6.923a1.493,1.493,0,0,0,.391,1.1,1.461,1.461,0,0,0,1.081.391,3.177,3.177,0,0,0,.794-.1,5.067,5.067,0,0,0,.771-.265l.115,1.242a8.121,8.121,0,0,1-.9.253,4.1,4.1,0,0,1-.9.115,3.306,3.306,0,0,1-1.265-.218,2.247,2.247,0,0,1-.851-.586,2.3,2.3,0,0,1-.472-.863,3.68,3.68,0,0,1-.149-1.069V-9.384h-2.3v-1.242h2.3v-3.059h1.38v3.059h3.036Zm2.507,8.418a1.065,1.065,0,0,1,.322-.782,1.065,1.065,0,0,1,.782-.322,1.065,1.065,0,0,1,.782.322,1.065,1.065,0,0,1,.322.782,1.065,1.065,0,0,1-.322.782,1.065,1.065,0,0,1-.782.322,1.065,1.065,0,0,1-.782-.322A1.065,1.065,0,0,1,123.315-.966Z" transform="translate(1249 3228)" fill="#fff"/>
    <path id="Trazado_110" data-name="Trazado 110" d="M11.224,0l2.825,8.177h8.4l-7.012,4.928,2.725,8.3-6.937-5.156L4.287,21.408l2.653-8.3L0,8.177H8.308Z" transform="translate(1119 3129.592)" fill="#fff"/>
    <path id="Trazado_330" data-name="Trazado 330" d="M6.316,0l1.59,4.6h4.726L8.686,7.375l1.534,4.672-3.9-2.9-3.9,2.9L3.905,7.375,0,4.6H4.675Z" transform="translate(1378.815 3185.592)" fill="#fff"/>
    <g id="Grupo_29" data-name="Grupo 29" transform="translate(512.357 3055.021)">
      <rect id="Rectángulo_36" data-name="Rectángulo 36" width="268" height="49" rx="3" transform="translate(598.643 237.979)" fill="#344453"/>
      <path id="Trazado_355" data-name="Trazado 355" d="M5.112-6.672a1.4,1.4,0,0,0-.642-.51,2.242,2.242,0,0,0-.846-.162,2.145,2.145,0,0,0-.51.06,1.385,1.385,0,0,0-.444.192,1,1,0,0,0-.318.342.987.987,0,0,0-.12.5.779.779,0,0,0,.3.66,2.95,2.95,0,0,0,.744.4q.444.168.972.324a3.952,3.952,0,0,1,.972.432,2.4,2.4,0,0,1,.744.732,2.175,2.175,0,0,1,.3,1.212A2.665,2.665,0,0,1,6.012-1.3a2.433,2.433,0,0,1-.678.846,2.931,2.931,0,0,1-.99.5A4.14,4.14,0,0,1,3.156.216,4.458,4.458,0,0,1,1.632-.048,2.936,2.936,0,0,1,.372-.936l1.14-1.1a1.907,1.907,0,0,0,.726.654,2.039,2.039,0,0,0,.954.234,2,2,0,0,0,.528-.072A1.633,1.633,0,0,0,4.2-1.44a1.127,1.127,0,0,0,.348-.366.979.979,0,0,0,.132-.51.888.888,0,0,0-.3-.72,2.65,2.65,0,0,0-.744-.426q-.444-.174-.972-.33a4.093,4.093,0,0,1-.972-.426,2.364,2.364,0,0,1-.744-.72,2.145,2.145,0,0,1-.3-1.206,2.289,2.289,0,0,1,.27-1.14,2.469,2.469,0,0,1,.708-.8,3.091,3.091,0,0,1,1-.474A4.3,4.3,0,0,1,3.78-8.712a4.2,4.2,0,0,1,1.3.2,3.018,3.018,0,0,1,1.134.672ZM8.4-8.5H9.912V0H8.4ZM19.92-.624A7.341,7.341,0,0,1,16.4.216,4.966,4.966,0,0,1,14.6-.1,4.121,4.121,0,0,1,13.182-1a4.135,4.135,0,0,1-.93-1.4,4.716,4.716,0,0,1-.336-1.812,4.92,4.92,0,0,1,.336-1.854,4.16,4.16,0,0,1,.93-1.422A4.076,4.076,0,0,1,14.6-8.394,4.966,4.966,0,0,1,16.4-8.712a6.862,6.862,0,0,1,1.824.234,3.754,3.754,0,0,1,1.524.834L18.636-6.516a2.8,2.8,0,0,0-.99-.612,3.506,3.506,0,0,0-1.23-.216,2.944,2.944,0,0,0-1.194.234,2.732,2.732,0,0,0-.918.648,2.943,2.943,0,0,0-.594.966,3.313,3.313,0,0,0-.21,1.188,3.653,3.653,0,0,0,.21,1.26,2.96,2.96,0,0,0,.594,1,2.764,2.764,0,0,0,.918.66,2.881,2.881,0,0,0,1.194.24A5.235,5.235,0,0,0,17.5-1.26a3.084,3.084,0,0,0,.906-.336v-2h-1.74V-4.968H19.92ZM22.308-8.5h2l4.116,6.312h.024V-8.5h1.512V0h-1.92l-4.2-6.516H23.82V0H22.308Zm14.268,0h1.512V0H36.576Zm3.972,0h2l4.116,6.312h.024V-8.5H48.2V0h-1.92l-4.2-6.516H42.06V0H40.548Z" transform="translate(709.643 265.979)" fill="#efefef"/>
    </g>
  </g>
</svg>
