<svg xmlns="http://www.w3.org/2000/svg" xmlns:xlink="http://www.w3.org/1999/xlink" width="445" height="810" viewBox="0 0 445 810">
  <defs>
    <filter id="Rectángulo_194" x="0" y="0" width="445" height="810" filterUnits="userSpaceOnUse">
      <feOffset dy="40" input="SourceAlpha"/>
      <feGaussianBlur stdDeviation="15" result="blur"/>
      <feFlood flood-opacity="0.051"/>
      <feComposite operator="in" in2="blur"/>
      <feComposite in="SourceGraphic"/>
    </filter>
    <linearGradient id="linear-gradient" x1="0.471" x2="0.473" y2="1" gradientUnits="objectBoundingBox">
      <stop offset="0" stop-color="#b0dcf5"/>
      <stop offset="1" stop-color="#d5f2ff"/>
    </linearGradient>
  </defs>
  <g id="goalsio-example-1" transform="translate(-1022 -2996.999)">
    <g transform="matrix(1, 0, 0, 1, 1022, 2997)" filter="url(#Rectángulo_194)">
      <rect id="Rectángulo_194-2" data-name="Rectángulo 194" width="355" height="720" rx="60" transform="translate(45 5)" fill="#e6e6e6"/>
    </g>
    <rect id="Rectángulo_63" data-name="Rectángulo 63" width="328" height="690" rx="20" transform="translate(1081 3017)" fill="url(#linear-gradient)"/>
    <g id="Grupo_101" data-name="Grupo 101" transform="translate(191.082 491.224)">
      <g id="Grupo_69" data-name="Grupo 69" transform="translate(876 2511)">
        <path id="Sustracción_1" data-name="Sustracción 1" d="M295,720H60a59.721,59.721,0,0,1-33.547-10.247,60.175,60.175,0,0,1-21.738-26.4A59.624,59.624,0,0,1,0,660V60A59.719,59.719,0,0,1,10.247,26.453a60.176,60.176,0,0,1,26.4-21.738A59.626,59.626,0,0,1,60,0H295a59.719,59.719,0,0,1,33.546,10.247,60.174,60.174,0,0,1,21.738,26.4A59.625,59.625,0,0,1,355,60V660a59.721,59.721,0,0,1-10.247,33.547,60.173,60.173,0,0,1-26.4,21.738A59.622,59.622,0,0,1,295,720ZM64.768,15.652a44.963,44.963,0,0,0-45,45v595.4a44.962,44.962,0,0,0,45,45H292.7a44.962,44.962,0,0,0,45-45V60.652a44.963,44.963,0,0,0-45-45Z" transform="translate(-0.082 -0.225)" fill="#e6e6e6"/>
        <path id="Trazado_61" data-name="Trazado 61" d="M-7.895-.033l189,.1s-7.247-1.859-7.14,7.331A16.337,16.337,0,0,1,157.5,23.859H15.071C5.977,23.859-1.4,14.722-1.4,7.393S-7.895-.033-7.895-.033Z" transform="translate(93.603 14.835)" fill="#e6e6e6"/>
      </g>
      <circle id="Elipse_34" data-name="Elipse 34" cx="5.5" cy="5.5" r="5.5" transform="translate(1086.918 2526.776)" fill="#fff"/>
      <rect id="Rectángulo_39" data-name="Rectángulo 39" width="45" height="6" rx="3" transform="translate(1033.918 2528.776)" fill="#fff"/>
    </g>
    <path id="Trazado_358" data-name="Trazado 358" d="M-35.82-1.5A16.942,16.942,0,0,1-40.14.06a21.938,21.938,0,0,1-4.59.48,13.085,13.085,0,0,1-4.59-.78,10.507,10.507,0,0,1-3.63-2.235A10.133,10.133,0,0,1-55.335-6a12,12,0,0,1-.855-4.62,12,12,0,0,1,.855-4.62,10.133,10.133,0,0,1,2.385-3.525A10.507,10.507,0,0,1-49.32-21a13.085,13.085,0,0,1,4.59-.78,16.988,16.988,0,0,1,4.695.615A9.192,9.192,0,0,1-36.27-19.05l-3.3,3.6a6.575,6.575,0,0,0-2.16-1.5,7.7,7.7,0,0,0-3-.51,6.951,6.951,0,0,0-2.715.51,6.093,6.093,0,0,0-2.085,1.425,6.259,6.259,0,0,0-1.335,2.175,7.825,7.825,0,0,0-.465,2.73,7.79,7.79,0,0,0,.465,2.745,6.287,6.287,0,0,0,1.335,2.16A6.093,6.093,0,0,0-47.445-4.29a6.951,6.951,0,0,0,2.715.51,8.945,8.945,0,0,0,2.64-.345,9.963,9.963,0,0,0,1.77-.7V-8.28h-3.81V-12.6h8.31Zm3-5.79a7.638,7.638,0,0,1,.63-3.15,7.251,7.251,0,0,1,1.725-2.415,7.618,7.618,0,0,1,2.58-1.545,9.19,9.19,0,0,1,3.165-.54,9.19,9.19,0,0,1,3.165.54,7.618,7.618,0,0,1,2.58,1.545A7.251,7.251,0,0,1-17.25-10.44a7.638,7.638,0,0,1,.63,3.15,7.638,7.638,0,0,1-.63,3.15,7.251,7.251,0,0,1-1.725,2.415A7.618,7.618,0,0,1-21.555-.18,9.19,9.19,0,0,1-24.72.36a9.19,9.19,0,0,1-3.165-.54,7.618,7.618,0,0,1-2.58-1.545A7.251,7.251,0,0,1-32.19-4.14,7.638,7.638,0,0,1-32.82-7.29Zm4.5,0a3.772,3.772,0,0,0,.945,2.67A3.44,3.44,0,0,0-24.72-3.6a3.44,3.44,0,0,0,2.655-1.02,3.772,3.772,0,0,0,.945-2.67,3.772,3.772,0,0,0-.945-2.67,3.44,3.44,0,0,0-2.655-1.02,3.44,3.44,0,0,0-2.655,1.02A3.772,3.772,0,0,0-28.32-7.29ZM-4.83-1.83h-.06a4.232,4.232,0,0,1-2,1.68A6.858,6.858,0,0,1-9.51.36,6.768,6.768,0,0,1-11.475.075,4.959,4.959,0,0,1-13.14-.78a4.129,4.129,0,0,1-1.14-1.41,4.307,4.307,0,0,1-.42-1.95,4.471,4.471,0,0,1,.465-2.13,4.161,4.161,0,0,1,1.26-1.44A6.257,6.257,0,0,1-11.16-8.6,13.249,13.249,0,0,1-9.045-9.06a20.2,20.2,0,0,1,2.19-.18q1.1-.03,2.025-.03a2.34,2.34,0,0,0-.855-1.905,3.083,3.083,0,0,0-2.025-.7,4.4,4.4,0,0,0-2.025.465A5.532,5.532,0,0,0-11.37-10.14l-2.4-2.46a8.258,8.258,0,0,1,2.94-1.755,10.507,10.507,0,0,1,3.48-.585,9.1,9.1,0,0,1,3.255.495,4.733,4.733,0,0,1,2.04,1.455A5.607,5.607,0,0,1-.99-10.635,15.455,15.455,0,0,1-.69-7.41V0H-4.83ZM-5.94-6.39q-.51,0-1.275.045a6.461,6.461,0,0,0-1.47.255,3.271,3.271,0,0,0-1.2.63,1.451,1.451,0,0,0-.495,1.17,1.287,1.287,0,0,0,.69,1.2,2.886,2.886,0,0,0,1.44.39,4.516,4.516,0,0,0,1.275-.18,3.8,3.8,0,0,0,1.1-.51,2.465,2.465,0,0,0,.765-.84,2.421,2.421,0,0,0,.285-1.2v-.96ZM2.19-22.68h4.5V0H2.19ZM18.18-10.29a3.186,3.186,0,0,0-2.61-1.23,2.455,2.455,0,0,0-1.11.27.955.955,0,0,0-.54.93.836.836,0,0,0,.555.8,7.341,7.341,0,0,0,1.41.45l1.83.42a6.876,6.876,0,0,1,1.83.705,4.1,4.1,0,0,1,1.41,1.3,3.893,3.893,0,0,1,.555,2.2A4.083,4.083,0,0,1,20.9-2.115,4.717,4.717,0,0,1,19.32-.645a6.774,6.774,0,0,1-2.16.78A12.839,12.839,0,0,1,14.79.36,11.464,11.464,0,0,1,11.7-.075,5.773,5.773,0,0,1,9.06-1.62l2.73-3.03a4.529,4.529,0,0,0,1.4,1.185,3.761,3.761,0,0,0,1.785.405,4.171,4.171,0,0,0,1.41-.225.83.83,0,0,0,.63-.825.914.914,0,0,0-.555-.855,6.077,6.077,0,0,0-1.41-.48l-1.83-.42a7.561,7.561,0,0,1-1.83-.675,3.829,3.829,0,0,1-1.41-1.275,3.893,3.893,0,0,1-.555-2.2,4.446,4.446,0,0,1,.525-2.22,4.612,4.612,0,0,1,1.38-1.53,5.971,5.971,0,0,1,1.965-.885,9.012,9.012,0,0,1,2.25-.285,10.555,10.555,0,0,1,2.91.42,5.4,5.4,0,0,1,2.49,1.5Zm5.73,7.71a2.809,2.809,0,0,1,.21-1.08,2.68,2.68,0,0,1,.585-.885,2.679,2.679,0,0,1,.885-.585,2.809,2.809,0,0,1,1.08-.21,2.809,2.809,0,0,1,1.08.21,2.679,2.679,0,0,1,.885.585,2.68,2.68,0,0,1,.585.885,2.809,2.809,0,0,1,.21,1.08,2.809,2.809,0,0,1-.21,1.08,2.68,2.68,0,0,1-.585.885,2.679,2.679,0,0,1-.885.585,2.809,2.809,0,0,1-1.08.21,2.809,2.809,0,0,1-1.08-.21A2.679,2.679,0,0,1,24.7-.615,2.68,2.68,0,0,1,24.12-1.5,2.809,2.809,0,0,1,23.91-2.58Zm8.85-12h4.5V0h-4.5Zm-.36-4.59a2.514,2.514,0,0,1,.765-1.845,2.514,2.514,0,0,1,1.845-.765,2.514,2.514,0,0,1,1.845.765,2.514,2.514,0,0,1,.765,1.845,2.514,2.514,0,0,1-.765,1.845,2.514,2.514,0,0,1-1.845.765,2.514,2.514,0,0,1-1.845-.765A2.514,2.514,0,0,1,32.4-19.17ZM39.96-7.29a7.638,7.638,0,0,1,.63-3.15,7.251,7.251,0,0,1,1.725-2.415A7.618,7.618,0,0,1,44.9-14.4a9.19,9.19,0,0,1,3.165-.54,9.19,9.19,0,0,1,3.165.54,7.618,7.618,0,0,1,2.58,1.545A7.251,7.251,0,0,1,55.53-10.44a7.638,7.638,0,0,1,.63,3.15,7.638,7.638,0,0,1-.63,3.15,7.251,7.251,0,0,1-1.725,2.415A7.618,7.618,0,0,1,51.225-.18,9.19,9.19,0,0,1,48.06.36,9.19,9.19,0,0,1,44.9-.18a7.618,7.618,0,0,1-2.58-1.545A7.251,7.251,0,0,1,40.59-4.14,7.638,7.638,0,0,1,39.96-7.29Zm4.5,0A3.772,3.772,0,0,0,45.4-4.62,3.44,3.44,0,0,0,48.06-3.6a3.44,3.44,0,0,0,2.655-1.02,3.772,3.772,0,0,0,.945-2.67,3.772,3.772,0,0,0-.945-2.67,3.44,3.44,0,0,0-2.655-1.02A3.44,3.44,0,0,0,45.4-9.96,3.772,3.772,0,0,0,44.46-7.29Z" transform="translate(1245 3110)" fill="#344453"/>
    <path id="Trazado_357" data-name="Trazado 357" d="M13.77,5.84h2l3.12,11.32h.04L22.27,5.84h2.2l3.34,11.32h.04L30.97,5.84h2L28.85,20H26.83L23.39,8.44h-.04L19.93,20H17.91Zm20.58-.96h1.8v7.1h.04a2.653,2.653,0,0,1,1.18-1.23,3.906,3.906,0,0,1,1.94-.47,4.115,4.115,0,0,1,1.31.21,2.956,2.956,0,0,1,1.1.65,3.134,3.134,0,0,1,.75,1.13,4.321,4.321,0,0,1,.28,1.63V20h-1.8V14.4a3.164,3.164,0,0,0-.18-1.13,2.065,2.065,0,0,0-.48-.76,1.8,1.8,0,0,0-.69-.42,2.545,2.545,0,0,0-.81-.13,2.938,2.938,0,0,0-1.04.18,2.167,2.167,0,0,0-.84.57,2.691,2.691,0,0,0-.56.99,4.5,4.5,0,0,0-.2,1.42V20h-1.8Zm11.16,6.8a5.011,5.011,0,0,1,1.76-1.05,6.021,6.021,0,0,1,2-.35,5.483,5.483,0,0,1,1.79.26,3.481,3.481,0,0,1,1.23.7A2.763,2.763,0,0,1,53,12.25a3.151,3.151,0,0,1,.23,1.19v4.84q0,.5.02.92t.06.8h-1.6q-.06-.72-.06-1.44h-.04a3.448,3.448,0,0,1-1.42,1.3,4.475,4.475,0,0,1-1.9.38,4.362,4.362,0,0,1-1.26-.18,3.075,3.075,0,0,1-1.05-.54,2.578,2.578,0,0,1-.71-.89,3.072,3.072,0,0,1,.15-2.77,3.1,3.1,0,0,1,1.12-1.01,5.406,5.406,0,0,1,1.66-.56,11.524,11.524,0,0,1,2.03-.17h1.32v-.4a1.974,1.974,0,0,0-.14-.72,1.944,1.944,0,0,0-.42-.65,2,2,0,0,0-.7-.46,2.66,2.66,0,0,0-1-.17,3.688,3.688,0,0,0-.91.1,4.028,4.028,0,0,0-.71.25,3.117,3.117,0,0,0-.58.35q-.26.2-.5.38Zm5.08,3.76a12.606,12.606,0,0,0-1.31.07,5.12,5.12,0,0,0-1.22.27,2.353,2.353,0,0,0-.9.56,1.265,1.265,0,0,0-.35.92,1.3,1.3,0,0,0,.55,1.18,2.693,2.693,0,0,0,1.49.36,2.889,2.889,0,0,0,1.26-.25,2.368,2.368,0,0,0,.84-.65,2.519,2.519,0,0,0,.46-.89,3.518,3.518,0,0,0,.14-.97v-.6Zm10.34-3.36H58.35v4.3q0,.4.02.79a2.074,2.074,0,0,0,.15.7,1.135,1.135,0,0,0,.4.5,1.368,1.368,0,0,0,.79.19,3.8,3.8,0,0,0,.66-.06,1.907,1.907,0,0,0,.62-.22v1.64a2.349,2.349,0,0,1-.83.25,6.229,6.229,0,0,1-.79.07,3.619,3.619,0,0,1-1.61-.29,1.978,1.978,0,0,1-.84-.75,2.426,2.426,0,0,1-.32-1.03q-.05-.57-.05-1.15V12.08H54.47V10.52h2.08V7.86h1.8v2.66h2.58Zm8.02-1.56h1.8V20h-1.8Zm-.42-3.4a1.332,1.332,0,1,1,.39.93A1.27,1.27,0,0,1,68.53,7.12ZM78.65,12.9a2.759,2.759,0,0,0-.79-.67,2.275,2.275,0,0,0-1.15-.27,2.191,2.191,0,0,0-1.11.27.861.861,0,0,0-.47.79.9.9,0,0,0,.27.68,2.133,2.133,0,0,0,.64.42,3.753,3.753,0,0,0,.79.24q.42.08.72.14a8.35,8.35,0,0,1,1.09.34,3.012,3.012,0,0,1,.88.52,2.255,2.255,0,0,1,.58.78,2.687,2.687,0,0,1,.21,1.12,2.627,2.627,0,0,1-.34,1.37,2.866,2.866,0,0,1-.88.93,3.7,3.7,0,0,1-1.23.52,6.134,6.134,0,0,1-1.39.16,5.494,5.494,0,0,1-2.07-.36,3.724,3.724,0,0,1-1.59-1.32l1.36-1.12a5.6,5.6,0,0,0,.98.78,2.429,2.429,0,0,0,1.32.34,3.512,3.512,0,0,0,.69-.07,2.128,2.128,0,0,0,.62-.22,1.357,1.357,0,0,0,.44-.38.868.868,0,0,0,.17-.53.914.914,0,0,0-.25-.66,1.811,1.811,0,0,0-.6-.41,4.367,4.367,0,0,0-.74-.24q-.39-.09-.69-.15-.58-.14-1.1-.32a3.344,3.344,0,0,1-.92-.48,2.217,2.217,0,0,1-.64-.76,2.445,2.445,0,0,1-.24-1.14,2.584,2.584,0,0,1,.31-1.29,2.755,2.755,0,0,1,.82-.91,3.709,3.709,0,0,1,1.16-.54,4.888,4.888,0,0,1,1.31-.18,4.814,4.814,0,0,1,1.84.36,2.914,2.914,0,0,1,1.4,1.2Zm14.48-.82H90.55v4.3q0,.4.02.79a2.074,2.074,0,0,0,.15.7,1.135,1.135,0,0,0,.4.5,1.368,1.368,0,0,0,.79.19,3.8,3.8,0,0,0,.66-.06,1.907,1.907,0,0,0,.62-.22v1.64a2.349,2.349,0,0,1-.83.25,6.229,6.229,0,0,1-.79.07,3.619,3.619,0,0,1-1.61-.29,1.978,1.978,0,0,1-.84-.75,2.426,2.426,0,0,1-.32-1.03q-.05-.57-.05-1.15V12.08H86.67V10.52h2.08V7.86h1.8v2.66h2.58Zm2.32-7.2h1.8v7.1h.04a2.653,2.653,0,0,1,1.18-1.23,3.906,3.906,0,0,1,1.94-.47,4.115,4.115,0,0,1,1.31.21,2.956,2.956,0,0,1,1.1.65,3.134,3.134,0,0,1,.75,1.13,4.321,4.321,0,0,1,.28,1.63V20h-1.8V14.4a3.164,3.164,0,0,0-.18-1.13,2.065,2.065,0,0,0-.48-.76,1.8,1.8,0,0,0-.69-.42,2.545,2.545,0,0,0-.81-.13,2.939,2.939,0,0,0-1.04.18,2.167,2.167,0,0,0-.84.57,2.691,2.691,0,0,0-.56.99,4.5,4.5,0,0,0-.2,1.42V20h-1.8Zm12.48,11.04a2.377,2.377,0,0,0,.27,1.13,2.811,2.811,0,0,0,.71.87,3.285,3.285,0,0,0,1.02.56,3.655,3.655,0,0,0,1.2.2,2.684,2.684,0,0,0,1.46-.39,4.7,4.7,0,0,0,1.14-1.03l1.36,1.04a5.005,5.005,0,0,1-4.2,1.94,5.22,5.22,0,0,1-2.03-.38,4.42,4.42,0,0,1-1.54-1.05,4.657,4.657,0,0,1-.97-1.58,5.585,5.585,0,0,1-.34-1.97,5.18,5.18,0,0,1,.37-1.97,4.884,4.884,0,0,1,1.02-1.58,4.655,4.655,0,0,1,1.55-1.05,4.987,4.987,0,0,1,1.96-.38,4.683,4.683,0,0,1,2.13.44,4.21,4.21,0,0,1,1.43,1.15,4.538,4.538,0,0,1,.81,1.6,6.662,6.662,0,0,1,.25,1.81v.64Zm5.68-1.44a3.8,3.8,0,0,0-.19-1.1,2.42,2.42,0,0,0-.51-.87,2.349,2.349,0,0,0-.85-.58,3.11,3.11,0,0,0-1.19-.21,2.89,2.89,0,0,0-1.21.25,2.947,2.947,0,0,0-.93.65,3,3,0,0,0-.59.89,2.448,2.448,0,0,0-.21.97Zm9.64-3.96h1.68V12h.04a1.566,1.566,0,0,1,.31-.5,3.186,3.186,0,0,1,.64-.57,3.952,3.952,0,0,1,.92-.46,3.446,3.446,0,0,1,1.17-.19,3.356,3.356,0,0,1,1.78.44,3.273,3.273,0,0,1,1.18,1.32,3.033,3.033,0,0,1,1.3-1.32,3.629,3.629,0,0,1,1.7-.44,3.93,3.93,0,0,1,1.8.36,2.9,2.9,0,0,1,1.1.95,3.627,3.627,0,0,1,.55,1.34,7.886,7.886,0,0,1,.15,1.55V20h-1.8V14.72a7.5,7.5,0,0,0-.07-1.04,2.4,2.4,0,0,0-.29-.88,1.651,1.651,0,0,0-.62-.61,2.561,2.561,0,0,0-2.92.57,3.514,3.514,0,0,0-.56,2.06V20h-1.8V15.04a10.051,10.051,0,0,0-.07-1.24,2.908,2.908,0,0,0-.28-.97,1.544,1.544,0,0,0-.6-.64,2.061,2.061,0,0,0-1.05-.23,2.368,2.368,0,0,0-.93.19,2.2,2.2,0,0,0-.79.57,2.766,2.766,0,0,0-.54.97,4.338,4.338,0,0,0-.2,1.39V20h-1.8Zm18.5,4.74a3.894,3.894,0,0,0,.22,1.33,3,3,0,0,0,.62,1.04,2.87,2.87,0,0,0,.98.68,3.505,3.505,0,0,0,2.6,0,2.87,2.87,0,0,0,.98-.68,3,3,0,0,0,.62-1.04,4.13,4.13,0,0,0,0-2.66,3,3,0,0,0-.62-1.04,2.87,2.87,0,0,0-.98-.68,3.505,3.505,0,0,0-2.6,0,2.87,2.87,0,0,0-.98.68,3,3,0,0,0-.62,1.04A3.894,3.894,0,0,0,141.75,15.26Zm-1.92,0a4.826,4.826,0,0,1,.39-1.94,5.054,5.054,0,0,1,1.07-1.58,5.093,5.093,0,0,1,7.16,0,5.054,5.054,0,0,1,1.07,1.58,4.826,4.826,0,0,1,.39,1.94,4.93,4.93,0,0,1-1.46,3.53,5.078,5.078,0,0,1-1.6,1.06,5.221,5.221,0,0,1-3.96,0,5.078,5.078,0,0,1-1.6-1.06,4.93,4.93,0,0,1-1.46-3.53Zm17.38-2.36a2.759,2.759,0,0,0-.79-.67,2.275,2.275,0,0,0-1.15-.27,2.191,2.191,0,0,0-1.11.27.861.861,0,0,0-.47.79.9.9,0,0,0,.27.68,2.133,2.133,0,0,0,.64.42,3.753,3.753,0,0,0,.79.24q.42.08.72.14a8.349,8.349,0,0,1,1.09.34,3.013,3.013,0,0,1,.88.52,2.255,2.255,0,0,1,.58.78,2.687,2.687,0,0,1,.21,1.12,2.627,2.627,0,0,1-.34,1.37,2.866,2.866,0,0,1-.88.93,3.7,3.7,0,0,1-1.23.52,6.134,6.134,0,0,1-1.39.16,5.494,5.494,0,0,1-2.07-.36,3.724,3.724,0,0,1-1.59-1.32l1.36-1.12a5.6,5.6,0,0,0,.98.78,2.429,2.429,0,0,0,1.32.34,3.512,3.512,0,0,0,.69-.07,2.129,2.129,0,0,0,.62-.22,1.357,1.357,0,0,0,.44-.38.868.868,0,0,0,.17-.53.914.914,0,0,0-.25-.66,1.811,1.811,0,0,0-.6-.41,4.367,4.367,0,0,0-.74-.24q-.39-.09-.69-.15-.58-.14-1.1-.32a3.344,3.344,0,0,1-.92-.48,2.217,2.217,0,0,1-.64-.76,2.445,2.445,0,0,1-.24-1.14,2.584,2.584,0,0,1,.31-1.29,2.755,2.755,0,0,1,.82-.91,3.709,3.709,0,0,1,1.16-.54,4.888,4.888,0,0,1,1.31-.18,4.813,4.813,0,0,1,1.84.36,2.914,2.914,0,0,1,1.4,1.2Zm8.92-.82h-2.58v4.3q0,.4.02.79a2.073,2.073,0,0,0,.15.7,1.135,1.135,0,0,0,.4.5,1.368,1.368,0,0,0,.79.19,3.8,3.8,0,0,0,.66-.06,1.907,1.907,0,0,0,.62-.22v1.64a2.349,2.349,0,0,1-.83.25,6.229,6.229,0,0,1-.79.07,3.619,3.619,0,0,1-1.61-.29,1.978,1.978,0,0,1-.84-.75,2.426,2.426,0,0,1-.32-1.03q-.05-.57-.05-1.15V12.08h-2.08V10.52h2.08V7.86h1.8v2.66h2.58Zm7.92-.4a5.011,5.011,0,0,1,1.76-1.05,6.021,6.021,0,0,1,2-.35,5.483,5.483,0,0,1,1.79.26,3.481,3.481,0,0,1,1.23.7,2.763,2.763,0,0,1,.71,1.01,3.151,3.151,0,0,1,.23,1.19v4.84q0,.5.02.92t.06.8h-1.6q-.06-.72-.06-1.44h-.04a3.448,3.448,0,0,1-1.42,1.3,4.475,4.475,0,0,1-1.9.38,4.362,4.362,0,0,1-1.26-.18,3.076,3.076,0,0,1-1.05-.54,2.578,2.578,0,0,1-.71-.89,3.072,3.072,0,0,1,.15-2.77,3.1,3.1,0,0,1,1.12-1.01,5.406,5.406,0,0,1,1.66-.56,11.524,11.524,0,0,1,2.03-.17h1.32v-.4a1.974,1.974,0,0,0-.14-.72,1.944,1.944,0,0,0-.42-.65,2,2,0,0,0-.7-.46,2.66,2.66,0,0,0-1-.17,3.688,3.688,0,0,0-.91.1,4.028,4.028,0,0,0-.71.25,3.117,3.117,0,0,0-.58.35q-.26.2-.5.38Zm5.08,3.76a12.606,12.606,0,0,0-1.31.07,5.12,5.12,0,0,0-1.22.27,2.353,2.353,0,0,0-.9.56,1.265,1.265,0,0,0-.35.92,1.3,1.3,0,0,0,.55,1.18,2.693,2.693,0,0,0,1.49.36,2.889,2.889,0,0,0,1.26-.25,2.368,2.368,0,0,0,.84-.65,2.519,2.519,0,0,0,.46-.89,3.518,3.518,0,0,0,.14-.97v-.6Zm4.12-4.92h2.02l2.14,7.08h.04l2.26-7.08h1.9l2.4,7.08h.04l2.04-7.08h1.9L194.93,20h-1.82l-2.5-7.08h-.04L188.31,20h-1.94Zm17.68,5.4a2.377,2.377,0,0,0,.27,1.13,2.811,2.811,0,0,0,.71.87,3.285,3.285,0,0,0,1.02.56,3.656,3.656,0,0,0,1.2.2,2.684,2.684,0,0,0,1.46-.39,4.7,4.7,0,0,0,1.14-1.03l1.36,1.04a5.005,5.005,0,0,1-4.2,1.94,5.221,5.221,0,0,1-2.03-.38,4.42,4.42,0,0,1-1.54-1.05,4.657,4.657,0,0,1-.97-1.58,5.584,5.584,0,0,1-.34-1.97,5.181,5.181,0,0,1,.37-1.97,4.884,4.884,0,0,1,1.02-1.58,4.655,4.655,0,0,1,1.55-1.05,4.987,4.987,0,0,1,1.96-.38,4.683,4.683,0,0,1,2.13.44,4.21,4.21,0,0,1,1.43,1.15,4.538,4.538,0,0,1,.81,1.6,6.662,6.662,0,0,1,.25,1.81v.64Zm5.68-1.44a3.8,3.8,0,0,0-.19-1.1,2.42,2.42,0,0,0-.51-.87,2.349,2.349,0,0,0-.85-.58,3.11,3.11,0,0,0-1.19-.21,2.89,2.89,0,0,0-1.21.25,2.947,2.947,0,0,0-.93.65,3,3,0,0,0-.59.89,2.448,2.448,0,0,0-.21.97Zm9.12-1.58a2.759,2.759,0,0,0-.79-.67,2.275,2.275,0,0,0-1.15-.27,2.191,2.191,0,0,0-1.11.27.861.861,0,0,0-.47.79.9.9,0,0,0,.27.68,2.133,2.133,0,0,0,.64.42,3.753,3.753,0,0,0,.79.24q.42.08.72.14a8.349,8.349,0,0,1,1.09.34,3.013,3.013,0,0,1,.88.52,2.255,2.255,0,0,1,.58.78,2.687,2.687,0,0,1,.21,1.12,2.627,2.627,0,0,1-.34,1.37,2.866,2.866,0,0,1-.88.93,3.7,3.7,0,0,1-1.23.52,6.134,6.134,0,0,1-1.39.16,5.494,5.494,0,0,1-2.07-.36,3.724,3.724,0,0,1-1.59-1.32l1.36-1.12a5.6,5.6,0,0,0,.98.78,2.429,2.429,0,0,0,1.32.34,3.512,3.512,0,0,0,.69-.07,2.129,2.129,0,0,0,.62-.22,1.357,1.357,0,0,0,.44-.38.868.868,0,0,0,.17-.53.914.914,0,0,0-.25-.66,1.811,1.811,0,0,0-.6-.41,4.367,4.367,0,0,0-.74-.24q-.39-.09-.69-.15-.58-.14-1.1-.32a3.344,3.344,0,0,1-.92-.48,2.217,2.217,0,0,1-.64-.76,2.445,2.445,0,0,1-.24-1.14,2.584,2.584,0,0,1,.31-1.29,2.755,2.755,0,0,1,.82-.91,3.709,3.709,0,0,1,1.16-.54,4.888,4.888,0,0,1,1.31-.18,4.813,4.813,0,0,1,1.84.36,2.914,2.914,0,0,1,1.4,1.2Zm5.3,2.36a3.894,3.894,0,0,0,.22,1.33,3,3,0,0,0,.62,1.04,2.87,2.87,0,0,0,.98.68,3.505,3.505,0,0,0,2.6,0,2.87,2.87,0,0,0,.98-.68,3,3,0,0,0,.62-1.04,4.13,4.13,0,0,0,0-2.66,3,3,0,0,0-.62-1.04,2.87,2.87,0,0,0-.98-.68,3.505,3.505,0,0,0-2.6,0,2.87,2.87,0,0,0-.98.68,3,3,0,0,0-.62,1.04A3.894,3.894,0,0,0,221.03,15.26Zm-1.92,0a4.826,4.826,0,0,1,.39-1.94,5.054,5.054,0,0,1,1.07-1.58,5.093,5.093,0,0,1,7.16,0,5.054,5.054,0,0,1,1.07,1.58,4.826,4.826,0,0,1,.39,1.94,4.93,4.93,0,0,1-1.46,3.53,5.078,5.078,0,0,1-1.6,1.06,5.221,5.221,0,0,1-3.96,0,5.078,5.078,0,0,1-1.6-1.06,4.93,4.93,0,0,1-1.46-3.53Zm12.34-4.74h1.68V12h.04a1.565,1.565,0,0,1,.31-.5,3.186,3.186,0,0,1,.64-.57,3.952,3.952,0,0,1,.92-.46,3.446,3.446,0,0,1,1.17-.19,3.356,3.356,0,0,1,1.78.44,3.273,3.273,0,0,1,1.18,1.32,3.033,3.033,0,0,1,1.3-1.32,3.629,3.629,0,0,1,1.7-.44,3.93,3.93,0,0,1,1.8.36,2.9,2.9,0,0,1,1.1.95,3.627,3.627,0,0,1,.55,1.34,7.886,7.886,0,0,1,.15,1.55V20h-1.8V14.72a7.5,7.5,0,0,0-.07-1.04,2.4,2.4,0,0,0-.29-.88,1.651,1.651,0,0,0-.62-.61,2.561,2.561,0,0,0-2.92.57,3.514,3.514,0,0,0-.56,2.06V20h-1.8V15.04a10.051,10.051,0,0,0-.07-1.24,2.908,2.908,0,0,0-.28-.97,1.544,1.544,0,0,0-.6-.64,2.061,2.061,0,0,0-1.05-.23,2.368,2.368,0,0,0-.93.19,2.2,2.2,0,0,0-.79.57,2.766,2.766,0,0,0-.54.97,4.338,4.338,0,0,0-.2,1.39V20h-1.8Zm18.4,5.4a2.377,2.377,0,0,0,.27,1.13,2.811,2.811,0,0,0,.71.87,3.285,3.285,0,0,0,1.02.56,3.656,3.656,0,0,0,1.2.2,2.684,2.684,0,0,0,1.46-.39,4.7,4.7,0,0,0,1.14-1.03l1.36,1.04a5.005,5.005,0,0,1-4.2,1.94,5.22,5.22,0,0,1-2.03-.38,4.42,4.42,0,0,1-1.54-1.05,4.657,4.657,0,0,1-.97-1.58,5.584,5.584,0,0,1-.34-1.97,5.181,5.181,0,0,1,.37-1.97,4.884,4.884,0,0,1,1.02-1.58,4.655,4.655,0,0,1,1.55-1.05,4.987,4.987,0,0,1,1.96-.38,4.683,4.683,0,0,1,2.13.44,4.21,4.21,0,0,1,1.43,1.15,4.538,4.538,0,0,1,.81,1.6,6.663,6.663,0,0,1,.25,1.81v.64Zm5.68-1.44a3.8,3.8,0,0,0-.19-1.1,2.42,2.42,0,0,0-.51-.87,2.349,2.349,0,0,0-.85-.58,3.11,3.11,0,0,0-1.19-.21,2.89,2.89,0,0,0-1.21.25,2.947,2.947,0,0,0-.93.65,3,3,0,0,0-.59.89,2.448,2.448,0,0,0-.21.97ZM19.82,39.08H17.24v4.3q0,.4.02.79a2.074,2.074,0,0,0,.15.7,1.135,1.135,0,0,0,.4.5,1.368,1.368,0,0,0,.79.19,3.8,3.8,0,0,0,.66-.06,1.907,1.907,0,0,0,.62-.22v1.64a2.349,2.349,0,0,1-.83.25,6.229,6.229,0,0,1-.79.07,3.619,3.619,0,0,1-1.61-.29,1.978,1.978,0,0,1-.84-.75,2.426,2.426,0,0,1-.32-1.03q-.05-.57-.05-1.15V39.08H13.36V37.52h2.08V34.86h1.8v2.66h2.58Zm2.32-7.2h1.8v7.1h.04a2.653,2.653,0,0,1,1.18-1.23,3.906,3.906,0,0,1,1.94-.47,4.115,4.115,0,0,1,1.31.21,2.956,2.956,0,0,1,1.1.65,3.134,3.134,0,0,1,.75,1.13,4.321,4.321,0,0,1,.28,1.63V47h-1.8V41.4a3.164,3.164,0,0,0-.18-1.13,2.065,2.065,0,0,0-.48-.76,1.8,1.8,0,0,0-.69-.42,2.545,2.545,0,0,0-.81-.13,2.939,2.939,0,0,0-1.04.18,2.167,2.167,0,0,0-.84.57,2.691,2.691,0,0,0-.56.99,4.5,4.5,0,0,0-.2,1.42V47h-1.8ZM33.4,37.52h1.8V47H33.4Zm-.42-3.4a1.332,1.332,0,1,1,.39.93A1.27,1.27,0,0,1,32.98,34.12Zm5.08,3.4h1.8v1.46h.04a2.653,2.653,0,0,1,1.18-1.23,3.906,3.906,0,0,1,1.94-.47,4.115,4.115,0,0,1,1.31.21,2.956,2.956,0,0,1,1.1.65,3.134,3.134,0,0,1,.75,1.13,4.321,4.321,0,0,1,.28,1.63V47h-1.8V41.4a3.164,3.164,0,0,0-.18-1.13,2.065,2.065,0,0,0-.48-.76,1.8,1.8,0,0,0-.69-.42,2.545,2.545,0,0,0-.81-.13,2.939,2.939,0,0,0-1.04.18,2.167,2.167,0,0,0-.84.57,2.691,2.691,0,0,0-.56.99,4.5,4.5,0,0,0-.2,1.42V47h-1.8Zm20.62,9.4a5.084,5.084,0,0,1-.37,1.97,4.488,4.488,0,0,1-1.05,1.54,4.758,4.758,0,0,1-1.64,1.01,6,6,0,0,1-2.12.36,7.773,7.773,0,0,1-2.49-.38,6.009,6.009,0,0,1-2.15-1.32l1.22-1.52a4.984,4.984,0,0,0,1.52,1.15,4.279,4.279,0,0,0,1.86.39,4.139,4.139,0,0,0,1.66-.29,2.85,2.85,0,0,0,1.05-.75,2.693,2.693,0,0,0,.55-1.05,4.528,4.528,0,0,0,.16-1.19v-1.4h-.06a3.166,3.166,0,0,1-1.41,1.27,4.418,4.418,0,0,1-1.87.41,4.978,4.978,0,0,1-1.93-.37,4.6,4.6,0,0,1-1.53-1.02,4.657,4.657,0,0,1-1-1.54,5.1,5.1,0,0,1-.36-1.93,5.526,5.526,0,0,1,.34-1.95,4.767,4.767,0,0,1,.97-1.59,4.4,4.4,0,0,1,1.52-1.06,5.02,5.02,0,0,1,1.99-.38,4.417,4.417,0,0,1,1.87.42,3.429,3.429,0,0,1,1.43,1.18h.04V37.52h1.8Zm-4.92-7.96a3.253,3.253,0,0,0-1.3.25,2.87,2.87,0,0,0-.98.68,3,3,0,0,0-.62,1.04,3.893,3.893,0,0,0-.22,1.33,3.185,3.185,0,0,0,.84,2.31,3.423,3.423,0,0,0,4.56,0,3.185,3.185,0,0,0,.84-2.31,3.893,3.893,0,0,0-.22-1.33,3,3,0,0,0-.62-1.04,2.87,2.87,0,0,0-.98-.68A3.253,3.253,0,0,0,53.76,38.96Zm18.28.12H69.46v4.3q0,.4.02.79a2.074,2.074,0,0,0,.15.7,1.135,1.135,0,0,0,.4.5,1.368,1.368,0,0,0,.79.19,3.8,3.8,0,0,0,.66-.06,1.907,1.907,0,0,0,.62-.22v1.64a2.349,2.349,0,0,1-.83.25,6.229,6.229,0,0,1-.79.07,3.619,3.619,0,0,1-1.61-.29,1.978,1.978,0,0,1-.84-.75,2.426,2.426,0,0,1-.32-1.03q-.05-.57-.05-1.15V39.08H65.58V37.52h2.08V34.86h1.8v2.66h2.58Zm2.32-7.2h1.8v7.1h.04a2.653,2.653,0,0,1,1.18-1.23,3.906,3.906,0,0,1,1.94-.47,4.115,4.115,0,0,1,1.31.21,2.956,2.956,0,0,1,1.1.65,3.134,3.134,0,0,1,.75,1.13,4.321,4.321,0,0,1,.28,1.63V47h-1.8V41.4a3.164,3.164,0,0,0-.18-1.13,2.065,2.065,0,0,0-.48-.76,1.8,1.8,0,0,0-.69-.42,2.545,2.545,0,0,0-.81-.13,2.939,2.939,0,0,0-1.04.18,2.167,2.167,0,0,0-.84.57,2.691,2.691,0,0,0-.56.99,4.5,4.5,0,0,0-.2,1.42V47h-1.8Zm11.16,6.8a5.011,5.011,0,0,1,1.76-1.05,6.021,6.021,0,0,1,2-.35,5.483,5.483,0,0,1,1.79.26,3.481,3.481,0,0,1,1.23.7,2.763,2.763,0,0,1,.71,1.01,3.151,3.151,0,0,1,.23,1.19v4.84q0,.5.02.92t.06.8h-1.6q-.06-.72-.06-1.44h-.04a3.448,3.448,0,0,1-1.42,1.3,4.475,4.475,0,0,1-1.9.38,4.362,4.362,0,0,1-1.26-.18,3.075,3.075,0,0,1-1.05-.54,2.578,2.578,0,0,1-.71-.89,3.072,3.072,0,0,1,.15-2.77,3.1,3.1,0,0,1,1.12-1.01,5.406,5.406,0,0,1,1.66-.56,11.524,11.524,0,0,1,2.03-.17h1.32v-.4a1.974,1.974,0,0,0-.14-.72,1.944,1.944,0,0,0-.42-.65,2,2,0,0,0-.7-.46,2.66,2.66,0,0,0-1-.17,3.688,3.688,0,0,0-.91.1,4.028,4.028,0,0,0-.71.25,3.117,3.117,0,0,0-.58.35q-.26.2-.5.38Zm5.08,3.76a12.6,12.6,0,0,0-1.31.07,5.12,5.12,0,0,0-1.22.27,2.353,2.353,0,0,0-.9.56,1.265,1.265,0,0,0-.35.92,1.3,1.3,0,0,0,.55,1.18,2.693,2.693,0,0,0,1.49.36,2.889,2.889,0,0,0,1.26-.25,2.368,2.368,0,0,0,.84-.65,2.519,2.519,0,0,0,.46-.89,3.518,3.518,0,0,0,.14-.97v-.6Zm10.34-3.36H98.36v4.3q0,.4.02.79a2.074,2.074,0,0,0,.15.7,1.135,1.135,0,0,0,.4.5,1.368,1.368,0,0,0,.79.19,3.8,3.8,0,0,0,.66-.06,1.907,1.907,0,0,0,.62-.22v1.64a2.349,2.349,0,0,1-.83.25,6.229,6.229,0,0,1-.79.07,3.619,3.619,0,0,1-1.61-.29,1.978,1.978,0,0,1-.84-.75,2.426,2.426,0,0,1-.32-1.03q-.05-.57-.05-1.15V39.08H94.48V37.52h2.08V34.86h1.8v2.66h2.58Zm7.88-1.56h1.68V39h.04a1.566,1.566,0,0,1,.31-.5,3.186,3.186,0,0,1,.64-.57,3.952,3.952,0,0,1,.92-.46,3.446,3.446,0,0,1,1.17-.19,3.356,3.356,0,0,1,1.78.44,3.273,3.273,0,0,1,1.18,1.32,3.034,3.034,0,0,1,1.3-1.32,3.629,3.629,0,0,1,1.7-.44,3.93,3.93,0,0,1,1.8.36,2.9,2.9,0,0,1,1.1.95,3.628,3.628,0,0,1,.55,1.34,7.886,7.886,0,0,1,.15,1.55V47h-1.8V41.72a7.5,7.5,0,0,0-.07-1.04,2.4,2.4,0,0,0-.29-.88,1.651,1.651,0,0,0-.62-.61,2.561,2.561,0,0,0-2.92.57,3.514,3.514,0,0,0-.56,2.06V47h-1.8V42.04a10.049,10.049,0,0,0-.07-1.24,2.908,2.908,0,0,0-.28-.97,1.544,1.544,0,0,0-.6-.64,2.061,2.061,0,0,0-1.05-.23,2.368,2.368,0,0,0-.93.19,2.2,2.2,0,0,0-.79.57,2.766,2.766,0,0,0-.54.97,4.338,4.338,0,0,0-.2,1.39V47h-1.8Zm17.18,0h1.8V47H126Zm-.42-3.4a1.332,1.332,0,1,1,.39.93A1.27,1.27,0,0,1,125.58,34.12Zm14.58,12.8a5.084,5.084,0,0,1-.37,1.97,4.488,4.488,0,0,1-1.05,1.54,4.758,4.758,0,0,1-1.64,1.01,6,6,0,0,1-2.12.36,7.773,7.773,0,0,1-2.49-.38,6.009,6.009,0,0,1-2.15-1.32l1.22-1.52a4.984,4.984,0,0,0,1.52,1.15,4.279,4.279,0,0,0,1.86.39,4.139,4.139,0,0,0,1.66-.29,2.85,2.85,0,0,0,1.05-.75,2.693,2.693,0,0,0,.55-1.05,4.528,4.528,0,0,0,.16-1.19v-1.4h-.06a3.166,3.166,0,0,1-1.41,1.27,4.418,4.418,0,0,1-1.87.41,4.978,4.978,0,0,1-1.93-.37,4.6,4.6,0,0,1-1.53-1.02,4.657,4.657,0,0,1-1-1.54,5.1,5.1,0,0,1-.36-1.93,5.526,5.526,0,0,1,.34-1.95,4.767,4.767,0,0,1,.97-1.59,4.4,4.4,0,0,1,1.52-1.06,5.02,5.02,0,0,1,1.99-.38,4.417,4.417,0,0,1,1.87.42,3.429,3.429,0,0,1,1.43,1.18h.04V37.52h1.8Zm-4.92-7.96a3.253,3.253,0,0,0-1.3.25,2.87,2.87,0,0,0-.98.68,3,3,0,0,0-.62,1.04,3.894,3.894,0,0,0-.22,1.33,3.185,3.185,0,0,0,.84,2.31,3.423,3.423,0,0,0,4.56,0,3.185,3.185,0,0,0,.84-2.31,3.893,3.893,0,0,0-.22-1.33,3,3,0,0,0-.62-1.04,2.87,2.87,0,0,0-.98-.68A3.253,3.253,0,0,0,135.24,38.96Zm7.64-7.08h1.8v7.1h.04a2.653,2.653,0,0,1,1.18-1.23,3.906,3.906,0,0,1,1.94-.47,4.115,4.115,0,0,1,1.31.21,2.956,2.956,0,0,1,1.1.65,3.134,3.134,0,0,1,.75,1.13,4.322,4.322,0,0,1,.28,1.63V47h-1.8V41.4a3.163,3.163,0,0,0-.18-1.13,2.065,2.065,0,0,0-.48-.76,1.8,1.8,0,0,0-.69-.42,2.545,2.545,0,0,0-.81-.13,2.939,2.939,0,0,0-1.04.18,2.167,2.167,0,0,0-.84.57,2.69,2.69,0,0,0-.56.99,4.5,4.5,0,0,0-.2,1.42V47h-1.8Zm16.2,7.2H156.5v4.3q0,.4.02.79a2.073,2.073,0,0,0,.15.7,1.135,1.135,0,0,0,.4.5,1.368,1.368,0,0,0,.79.19,3.8,3.8,0,0,0,.66-.06,1.907,1.907,0,0,0,.62-.22v1.64a2.349,2.349,0,0,1-.83.25,6.229,6.229,0,0,1-.79.07,3.619,3.619,0,0,1-1.61-.29,1.978,1.978,0,0,1-.84-.75,2.426,2.426,0,0,1-.32-1.03q-.05-.57-.05-1.15V39.08h-2.08V37.52h2.08V34.86h1.8v2.66h2.58Zm7.88-7.2h1.8v7.1h.04a2.653,2.653,0,0,1,1.18-1.23,3.906,3.906,0,0,1,1.94-.47,4.115,4.115,0,0,1,1.31.21,2.956,2.956,0,0,1,1.1.65,3.134,3.134,0,0,1,.75,1.13,4.322,4.322,0,0,1,.28,1.63V47h-1.8V41.4a3.163,3.163,0,0,0-.18-1.13,2.065,2.065,0,0,0-.48-.76,1.8,1.8,0,0,0-.69-.42,2.545,2.545,0,0,0-.81-.13,2.939,2.939,0,0,0-1.04.18,2.167,2.167,0,0,0-.84.57,2.69,2.69,0,0,0-.56.99,4.5,4.5,0,0,0-.2,1.42V47h-1.8Zm11.16,6.8a5.011,5.011,0,0,1,1.76-1.05,6.021,6.021,0,0,1,2-.35,5.483,5.483,0,0,1,1.79.26,3.481,3.481,0,0,1,1.23.7,2.763,2.763,0,0,1,.71,1.01,3.151,3.151,0,0,1,.23,1.19v4.84q0,.5.02.92t.06.8h-1.6q-.06-.72-.06-1.44h-.04a3.448,3.448,0,0,1-1.42,1.3,4.475,4.475,0,0,1-1.9.38,4.362,4.362,0,0,1-1.26-.18,3.075,3.075,0,0,1-1.05-.54,2.578,2.578,0,0,1-.71-.89,3.072,3.072,0,0,1,.15-2.77,3.1,3.1,0,0,1,1.12-1.01,5.406,5.406,0,0,1,1.66-.56,11.524,11.524,0,0,1,2.03-.17h1.32v-.4a1.974,1.974,0,0,0-.14-.72,1.944,1.944,0,0,0-.42-.65,2,2,0,0,0-.7-.46,2.66,2.66,0,0,0-1-.17,3.688,3.688,0,0,0-.91.1,4.028,4.028,0,0,0-.71.25,3.117,3.117,0,0,0-.58.35q-.26.2-.5.38Zm5.08,3.76a12.6,12.6,0,0,0-1.31.07,5.12,5.12,0,0,0-1.22.27,2.353,2.353,0,0,0-.9.56,1.265,1.265,0,0,0-.35.92,1.3,1.3,0,0,0,.55,1.18,2.693,2.693,0,0,0,1.49.36,2.889,2.889,0,0,0,1.26-.25,2.368,2.368,0,0,0,.84-.65,2.519,2.519,0,0,0,.46-.89,3.518,3.518,0,0,0,.14-.97v-.6Zm5.26-4.92h1.8v1.36h.04a3.429,3.429,0,0,1,1.43-1.18,4.417,4.417,0,0,1,1.87-.42,5.02,5.02,0,0,1,1.99.38,4.4,4.4,0,0,1,1.52,1.06,4.767,4.767,0,0,1,.97,1.59,5.526,5.526,0,0,1,.34,1.95,5.584,5.584,0,0,1-.34,1.97,4.657,4.657,0,0,1-.97,1.58,4.464,4.464,0,0,1-1.52,1.05,5.02,5.02,0,0,1-1.99.38,4.4,4.4,0,0,1-1.92-.43,3.281,3.281,0,0,1-1.38-1.17h-.04v7h-1.8Zm4.92,1.44a3.253,3.253,0,0,0-1.3.25,2.87,2.87,0,0,0-.98.68,3,3,0,0,0-.62,1.04,4.13,4.13,0,0,0,0,2.66,3,3,0,0,0,.62,1.04,2.87,2.87,0,0,0,.98.68,3.505,3.505,0,0,0,2.6,0,2.87,2.87,0,0,0,.98-.68,3,3,0,0,0,.62-1.04,4.13,4.13,0,0,0,0-2.66,3,3,0,0,0-.62-1.04,2.87,2.87,0,0,0-.98-.68A3.253,3.253,0,0,0,193.38,38.96Zm7.3-1.44h1.8v1.36h.04a3.429,3.429,0,0,1,1.43-1.18,4.417,4.417,0,0,1,1.87-.42,5.02,5.02,0,0,1,1.99.38,4.4,4.4,0,0,1,1.52,1.06,4.767,4.767,0,0,1,.97,1.59,5.526,5.526,0,0,1,.34,1.95,5.584,5.584,0,0,1-.34,1.97,4.657,4.657,0,0,1-.97,1.58,4.464,4.464,0,0,1-1.52,1.05,5.02,5.02,0,0,1-1.99.38,4.4,4.4,0,0,1-1.92-.43,3.281,3.281,0,0,1-1.38-1.17h-.04v7h-1.8Zm4.92,1.44a3.253,3.253,0,0,0-1.3.25,2.87,2.87,0,0,0-.98.68,3,3,0,0,0-.62,1.04,4.13,4.13,0,0,0,0,2.66,3,3,0,0,0,.62,1.04,2.87,2.87,0,0,0,.98.68,3.505,3.505,0,0,0,2.6,0,2.87,2.87,0,0,0,.98-.68,3,3,0,0,0,.62-1.04,4.13,4.13,0,0,0,0-2.66,3,3,0,0,0-.62-1.04,2.87,2.87,0,0,0-.98-.68A3.253,3.253,0,0,0,205.6,38.96Zm8.66,3.96a2.377,2.377,0,0,0,.27,1.13,2.811,2.811,0,0,0,.71.87,3.285,3.285,0,0,0,1.02.56,3.655,3.655,0,0,0,1.2.2,2.684,2.684,0,0,0,1.46-.39,4.7,4.7,0,0,0,1.14-1.03l1.36,1.04a5.005,5.005,0,0,1-4.2,1.94,5.22,5.22,0,0,1-2.03-.38,4.42,4.42,0,0,1-1.54-1.05,4.657,4.657,0,0,1-.97-1.58,5.584,5.584,0,0,1-.34-1.97,5.181,5.181,0,0,1,.37-1.97,4.884,4.884,0,0,1,1.02-1.58,4.655,4.655,0,0,1,1.55-1.05,4.987,4.987,0,0,1,1.96-.38,4.683,4.683,0,0,1,2.13.44,4.21,4.21,0,0,1,1.43,1.15,4.538,4.538,0,0,1,.81,1.6,6.662,6.662,0,0,1,.25,1.81v.64Zm5.68-1.44a3.8,3.8,0,0,0-.19-1.1,2.42,2.42,0,0,0-.51-.87,2.349,2.349,0,0,0-.85-.58,3.11,3.11,0,0,0-1.19-.21,2.89,2.89,0,0,0-1.21.25,2.947,2.947,0,0,0-.93.65,3,3,0,0,0-.59.89,2.448,2.448,0,0,0-.21.97Zm4.08-3.96h1.8v1.46h.04a2.653,2.653,0,0,1,1.18-1.23,3.906,3.906,0,0,1,1.94-.47,4.115,4.115,0,0,1,1.31.21,2.956,2.956,0,0,1,1.1.65,3.134,3.134,0,0,1,.75,1.13,4.322,4.322,0,0,1,.28,1.63V47h-1.8V41.4a3.163,3.163,0,0,0-.18-1.13,2.065,2.065,0,0,0-.48-.76,1.8,1.8,0,0,0-.69-.42,2.545,2.545,0,0,0-.81-.13,2.939,2.939,0,0,0-1.04.18,2.167,2.167,0,0,0-.84.57,2.69,2.69,0,0,0-.56.99,4.5,4.5,0,0,0-.2,1.42V47h-1.8Zm21.76,1.56H243.2v4.3q0,.4.02.79a2.073,2.073,0,0,0,.15.7,1.135,1.135,0,0,0,.4.5,1.368,1.368,0,0,0,.79.19,3.8,3.8,0,0,0,.66-.06,1.907,1.907,0,0,0,.62-.22v1.64a2.349,2.349,0,0,1-.83.25,6.229,6.229,0,0,1-.79.07,3.619,3.619,0,0,1-1.61-.29,1.978,1.978,0,0,1-.84-.75,2.426,2.426,0,0,1-.32-1.03q-.05-.57-.05-1.15V39.08h-2.08V37.52h2.08V34.86h1.8v2.66h2.58Zm3.78,3.18a3.894,3.894,0,0,0,.22,1.33,3,3,0,0,0,.62,1.04,2.87,2.87,0,0,0,.98.68,3.505,3.505,0,0,0,2.6,0,2.87,2.87,0,0,0,.98-.68,3,3,0,0,0,.62-1.04,4.13,4.13,0,0,0,0-2.66,3,3,0,0,0-.62-1.04,2.87,2.87,0,0,0-.98-.68,3.505,3.505,0,0,0-2.6,0,2.87,2.87,0,0,0-.98.68,3,3,0,0,0-.62,1.04A3.894,3.894,0,0,0,249.56,42.26Zm-1.92,0a4.826,4.826,0,0,1,.39-1.94,5.054,5.054,0,0,1,1.07-1.58,5.093,5.093,0,0,1,7.16,0,5.054,5.054,0,0,1,1.07,1.58,4.826,4.826,0,0,1,.39,1.94,4.93,4.93,0,0,1-1.46,3.53,5.078,5.078,0,0,1-1.6,1.06,5.221,5.221,0,0,1-3.96,0,5.077,5.077,0,0,1-1.6-1.06,4.93,4.93,0,0,1-1.46-3.53ZM28.58,64.52h2.08l2.82,7.4h.04l2.68-7.4h1.94l-4.5,11.52a12.146,12.146,0,0,1-.5,1.13,3.4,3.4,0,0,1-.62.87,2.507,2.507,0,0,1-.87.56,3.436,3.436,0,0,1-1.25.2,6.687,6.687,0,0,1-.81-.05,2.945,2.945,0,0,1-.79-.21l.22-1.64a2.843,2.843,0,0,0,1.08.22,2.011,2.011,0,0,0,.71-.11,1.4,1.4,0,0,0,.5-.32,1.869,1.869,0,0,0,.35-.49q.14-.28.28-.64l.58-1.5Zm12.6,4.74a3.893,3.893,0,0,0,.22,1.33,3,3,0,0,0,.62,1.04,2.87,2.87,0,0,0,.98.68,3.5,3.5,0,0,0,2.6,0,2.87,2.87,0,0,0,.98-.68,3,3,0,0,0,.62-1.04,4.13,4.13,0,0,0,0-2.66,3,3,0,0,0-.62-1.04,2.87,2.87,0,0,0-.98-.68,3.5,3.5,0,0,0-2.6,0,2.87,2.87,0,0,0-.98.68,3,3,0,0,0-.62,1.04A3.893,3.893,0,0,0,41.18,69.26Zm-1.92,0a4.826,4.826,0,0,1,.39-1.94,5.054,5.054,0,0,1,1.07-1.58,5.093,5.093,0,0,1,7.16,0,5.054,5.054,0,0,1,1.07,1.58,4.826,4.826,0,0,1,.39,1.94,4.93,4.93,0,0,1-1.46,3.53,5.078,5.078,0,0,1-1.6,1.06,5.221,5.221,0,0,1-3.96,0,5.078,5.078,0,0,1-1.6-1.06,4.93,4.93,0,0,1-1.46-3.53ZM60,74H58.2V72.54h-.04a2.653,2.653,0,0,1-1.18,1.23,3.906,3.906,0,0,1-1.94.47,4.087,4.087,0,0,1-1.32-.21,2.969,2.969,0,0,1-1.09-.65,3.134,3.134,0,0,1-.75-1.13,4.322,4.322,0,0,1-.28-1.63v-6.1h1.8v5.6a3.164,3.164,0,0,0,.18,1.13,2.065,2.065,0,0,0,.48.76,1.8,1.8,0,0,0,.69.42,2.545,2.545,0,0,0,.81.13,2.938,2.938,0,0,0,1.04-.18,2.167,2.167,0,0,0,.84-.57,2.691,2.691,0,0,0,.56-.99,4.5,4.5,0,0,0,.2-1.42V64.52H60Zm8.42-9.48h1.8V74h-1.8ZM68,61.12a1.332,1.332,0,1,1,.39.93A1.27,1.27,0,0,1,68,61.12Zm5.08,3.4h1.8v1.46h.04a2.653,2.653,0,0,1,1.18-1.23,3.906,3.906,0,0,1,1.94-.47,4.115,4.115,0,0,1,1.31.21,2.956,2.956,0,0,1,1.1.65,3.134,3.134,0,0,1,.75,1.13,4.321,4.321,0,0,1,.28,1.63V74h-1.8V68.4a3.164,3.164,0,0,0-.18-1.13,2.065,2.065,0,0,0-.48-.76,1.8,1.8,0,0,0-.69-.42,2.545,2.545,0,0,0-.81-.13,2.938,2.938,0,0,0-1.04.18,2.167,2.167,0,0,0-.84.57,2.691,2.691,0,0,0-.56.99,4.5,4.5,0,0,0-.2,1.42V74h-1.8Zm21.76,1.56H92.26v4.3q0,.4.02.79a2.074,2.074,0,0,0,.15.7,1.135,1.135,0,0,0,.4.5,1.368,1.368,0,0,0,.79.19,3.8,3.8,0,0,0,.66-.06,1.907,1.907,0,0,0,.62-.22v1.64a2.349,2.349,0,0,1-.83.25,6.229,6.229,0,0,1-.79.07,3.619,3.619,0,0,1-1.61-.29,1.978,1.978,0,0,1-.84-.75,2.426,2.426,0,0,1-.32-1.03q-.05-.57-.05-1.15V66.08H88.38V64.52h2.08V61.86h1.8v2.66h2.58Zm2.32-7.2h1.8v7.1H99a2.653,2.653,0,0,1,1.18-1.23,3.906,3.906,0,0,1,1.94-.47,4.115,4.115,0,0,1,1.31.21,2.956,2.956,0,0,1,1.1.65,3.134,3.134,0,0,1,.75,1.13,4.321,4.321,0,0,1,.28,1.63V74h-1.8V68.4a3.164,3.164,0,0,0-.18-1.13,2.065,2.065,0,0,0-.48-.76,1.8,1.8,0,0,0-.69-.42,2.545,2.545,0,0,0-.81-.13,2.938,2.938,0,0,0-1.04.18,2.167,2.167,0,0,0-.84.57,2.691,2.691,0,0,0-.56.99,4.5,4.5,0,0,0-.2,1.42V74h-1.8Zm12.48,11.04a2.377,2.377,0,0,0,.27,1.13,2.811,2.811,0,0,0,.71.87,3.286,3.286,0,0,0,1.02.56,3.656,3.656,0,0,0,1.2.2,2.684,2.684,0,0,0,1.46-.39,4.7,4.7,0,0,0,1.14-1.03l1.36,1.04a5.005,5.005,0,0,1-4.2,1.94,5.22,5.22,0,0,1-2.03-.38,4.42,4.42,0,0,1-1.54-1.05,4.657,4.657,0,0,1-.97-1.58,5.585,5.585,0,0,1-.34-1.97,5.18,5.18,0,0,1,.37-1.97,4.884,4.884,0,0,1,1.02-1.58,4.655,4.655,0,0,1,1.55-1.05,4.987,4.987,0,0,1,1.96-.38,4.683,4.683,0,0,1,2.13.44,4.21,4.21,0,0,1,1.43,1.15,4.538,4.538,0,0,1,.81,1.6,6.662,6.662,0,0,1,.25,1.81v.64Zm5.68-1.44a3.8,3.8,0,0,0-.19-1.1,2.42,2.42,0,0,0-.51-.87,2.349,2.349,0,0,0-.85-.58,3.11,3.11,0,0,0-1.19-.21,2.89,2.89,0,0,0-1.21.25,2.947,2.947,0,0,0-.93.65,3,3,0,0,0-.59.89,2.448,2.448,0,0,0-.21.97Zm9.64-3.96h1.8v1.46h.04a2.653,2.653,0,0,1,1.18-1.23,3.906,3.906,0,0,1,1.94-.47,4.115,4.115,0,0,1,1.31.21,2.956,2.956,0,0,1,1.1.65,3.134,3.134,0,0,1,.75,1.13,4.322,4.322,0,0,1,.28,1.63V74h-1.8V68.4a3.164,3.164,0,0,0-.18-1.13,2.065,2.065,0,0,0-.48-.76,1.8,1.8,0,0,0-.69-.42,2.545,2.545,0,0,0-.81-.13,2.938,2.938,0,0,0-1.04.18,2.167,2.167,0,0,0-.84.57,2.691,2.691,0,0,0-.56.99,4.5,4.5,0,0,0-.2,1.42V74h-1.8Zm12.48,5.4a2.377,2.377,0,0,0,.27,1.13,2.811,2.811,0,0,0,.71.87,3.285,3.285,0,0,0,1.02.56,3.656,3.656,0,0,0,1.2.2,2.684,2.684,0,0,0,1.46-.39,4.7,4.7,0,0,0,1.14-1.03l1.36,1.04a5.005,5.005,0,0,1-4.2,1.94,5.22,5.22,0,0,1-2.03-.38,4.42,4.42,0,0,1-1.54-1.05,4.657,4.657,0,0,1-.97-1.58,5.584,5.584,0,0,1-.34-1.97,5.181,5.181,0,0,1,.37-1.97,4.884,4.884,0,0,1,1.02-1.58,4.655,4.655,0,0,1,1.55-1.05,4.987,4.987,0,0,1,1.96-.38,4.683,4.683,0,0,1,2.13.44,4.21,4.21,0,0,1,1.43,1.15,4.538,4.538,0,0,1,.81,1.6,6.662,6.662,0,0,1,.25,1.81v.64Zm5.68-1.44a3.8,3.8,0,0,0-.19-1.1,2.42,2.42,0,0,0-.51-.87,2.35,2.35,0,0,0-.85-.58,3.11,3.11,0,0,0-1.19-.21,2.89,2.89,0,0,0-1.21.25,2.947,2.947,0,0,0-.93.65,3,3,0,0,0-.59.89,2.448,2.448,0,0,0-.21.97Zm6.68.46-3.36-4.42h2.32l2.3,3.36,2.26-3.36h2.18l-3.24,4.42L156.1,74h-2.32l-2.8-3.98L148.18,74h-2.22Zm12.86-2.86h-2.58v4.3q0,.4.02.79a2.073,2.073,0,0,0,.15.7,1.136,1.136,0,0,0,.4.5,1.368,1.368,0,0,0,.79.19,3.8,3.8,0,0,0,.66-.06,1.907,1.907,0,0,0,.62-.22v1.64a2.349,2.349,0,0,1-.83.25,6.229,6.229,0,0,1-.79.07,3.619,3.619,0,0,1-1.61-.29,1.978,1.978,0,0,1-.84-.75,2.426,2.426,0,0,1-.32-1.03q-.05-.57-.05-1.15V66.08H156.2V64.52h2.08V61.86h1.8v2.66h2.58Zm9.46,4.46a3.409,3.409,0,0,0,.91,1.52,2.5,2.5,0,0,0,1.69.5,2.879,2.879,0,0,0,1.05-.19,2.93,2.93,0,0,0,.87-.52,2.385,2.385,0,0,0,.6-.8,2.447,2.447,0,0,0,.22-1.05,2.418,2.418,0,0,0-.37-1.41,2.35,2.35,0,0,0-.95-.8,4.121,4.121,0,0,0-1.28-.35,12.147,12.147,0,0,0-1.38-.08V65.68a8.85,8.85,0,0,0,1.8-.15,3.028,3.028,0,0,0,1.1-.43,1.5,1.5,0,0,0,.56-.7,2.623,2.623,0,0,0,.16-.94,2.135,2.135,0,0,0-.68-1.72,2.528,2.528,0,0,0-1.7-.58,2.369,2.369,0,0,0-1.41.45,2.792,2.792,0,0,0-.95,1.19l-1.96-.66a3.939,3.939,0,0,1,1.71-2.01,5.131,5.131,0,0,1,2.57-.65,5.873,5.873,0,0,1,1.65.23,3.979,3.979,0,0,1,1.39.71,3.414,3.414,0,0,1,.95,1.21,3.916,3.916,0,0,1,.35,1.71,3.215,3.215,0,0,1-.67,2,3.332,3.332,0,0,1-1.75,1.2v.04a3.383,3.383,0,0,1,1.18.44,3.157,3.157,0,0,1,.88.8,3.442,3.442,0,0,1,.54,1.07,4.261,4.261,0,0,1,.18,1.25,3.911,3.911,0,0,1-.39,1.79,3.764,3.764,0,0,1-1.04,1.28,4.568,4.568,0,0,1-1.5.77,6.086,6.086,0,0,1-1.79.26,5.42,5.42,0,0,1-2.85-.74,3.906,3.906,0,0,1-1.71-2.34Zm13.96-6.02h2.08l2.82,7.4h.04l2.68-7.4h1.94l-4.5,11.52a12.15,12.15,0,0,1-.5,1.13,3.4,3.4,0,0,1-.62.87,2.507,2.507,0,0,1-.87.56,3.436,3.436,0,0,1-1.25.2,6.687,6.687,0,0,1-.81-.05,2.945,2.945,0,0,1-.79-.21l.22-1.64a2.843,2.843,0,0,0,1.08.22,2.011,2.011,0,0,0,.71-.11,1.4,1.4,0,0,0,.5-.32,1.869,1.869,0,0,0,.35-.49q.14-.28.28-.64l.58-1.5Zm12.5,5.4a2.377,2.377,0,0,0,.27,1.13,2.811,2.811,0,0,0,.71.87,3.285,3.285,0,0,0,1.02.56,3.656,3.656,0,0,0,1.2.2,2.684,2.684,0,0,0,1.46-.39,4.7,4.7,0,0,0,1.14-1.03l1.36,1.04a5.005,5.005,0,0,1-4.2,1.94,5.22,5.22,0,0,1-2.03-.38,4.42,4.42,0,0,1-1.54-1.05,4.657,4.657,0,0,1-.97-1.58,5.584,5.584,0,0,1-.34-1.97,5.181,5.181,0,0,1,.37-1.97,4.884,4.884,0,0,1,1.02-1.58,4.655,4.655,0,0,1,1.55-1.05,4.987,4.987,0,0,1,1.96-.38,4.683,4.683,0,0,1,2.13.44,4.21,4.21,0,0,1,1.43,1.15,4.538,4.538,0,0,1,.81,1.6,6.662,6.662,0,0,1,.25,1.81v.64Zm5.68-1.44a3.8,3.8,0,0,0-.19-1.1,2.42,2.42,0,0,0-.51-.87,2.35,2.35,0,0,0-.85-.58,3.11,3.11,0,0,0-1.19-.21,2.89,2.89,0,0,0-1.21.25,2.947,2.947,0,0,0-.93.65,3,3,0,0,0-.59.89,2.448,2.448,0,0,0-.21.97Zm4.12-2.8a5.011,5.011,0,0,1,1.76-1.05,6.021,6.021,0,0,1,2-.35,5.483,5.483,0,0,1,1.79.26,3.481,3.481,0,0,1,1.23.7,2.763,2.763,0,0,1,.71,1.01,3.151,3.151,0,0,1,.23,1.19v4.84q0,.5.02.92t.06.8h-1.6q-.06-.72-.06-1.44h-.04a3.448,3.448,0,0,1-1.42,1.3,4.475,4.475,0,0,1-1.9.38,4.362,4.362,0,0,1-1.26-.18,3.076,3.076,0,0,1-1.05-.54,2.578,2.578,0,0,1-.71-.89,3.072,3.072,0,0,1,.15-2.77,3.1,3.1,0,0,1,1.12-1.01,5.406,5.406,0,0,1,1.66-.56,11.524,11.524,0,0,1,2.03-.17h1.32v-.4a1.974,1.974,0,0,0-.14-.72,1.944,1.944,0,0,0-.42-.65,2,2,0,0,0-.7-.46,2.66,2.66,0,0,0-1-.17,3.688,3.688,0,0,0-.91.1,4.028,4.028,0,0,0-.71.25,3.117,3.117,0,0,0-.58.35q-.26.2-.5.38Zm5.08,3.76a12.6,12.6,0,0,0-1.31.07,5.12,5.12,0,0,0-1.22.27,2.353,2.353,0,0,0-.9.56,1.265,1.265,0,0,0-.35.92,1.3,1.3,0,0,0,.55,1.18,2.693,2.693,0,0,0,1.49.36,2.889,2.889,0,0,0,1.26-.25,2.368,2.368,0,0,0,.84-.65,2.519,2.519,0,0,0,.46-.89,3.518,3.518,0,0,0,.14-.97v-.6Zm5.26-4.92h1.8v1.46h.04a2.568,2.568,0,0,1,.48-.69,3.214,3.214,0,0,1,.67-.53,3.539,3.539,0,0,1,.81-.35,3.092,3.092,0,0,1,.88-.13,2.519,2.519,0,0,1,.8.12l-.08,1.94q-.22-.06-.44-.1a2.455,2.455,0,0,0-.44-.04,2.648,2.648,0,0,0-2.02.74,3.252,3.252,0,0,0-.7,2.3V74h-1.8Zm12.44,2.38a2.759,2.759,0,0,0-.79-.67,2.275,2.275,0,0,0-1.15-.27,2.191,2.191,0,0,0-1.11.27.861.861,0,0,0-.47.79.9.9,0,0,0,.27.68,2.133,2.133,0,0,0,.64.42,3.753,3.753,0,0,0,.79.24q.42.08.72.14a8.349,8.349,0,0,1,1.09.34,3.013,3.013,0,0,1,.88.52,2.255,2.255,0,0,1,.58.78,2.687,2.687,0,0,1,.21,1.12,2.627,2.627,0,0,1-.34,1.37,2.866,2.866,0,0,1-.88.93,3.7,3.7,0,0,1-1.23.52,6.134,6.134,0,0,1-1.39.16,5.494,5.494,0,0,1-2.07-.36,3.724,3.724,0,0,1-1.59-1.32l1.36-1.12a5.6,5.6,0,0,0,.98.78,2.429,2.429,0,0,0,1.32.34,3.512,3.512,0,0,0,.69-.07,2.129,2.129,0,0,0,.62-.22,1.357,1.357,0,0,0,.44-.38.868.868,0,0,0,.17-.53.914.914,0,0,0-.25-.66,1.811,1.811,0,0,0-.6-.41,4.367,4.367,0,0,0-.74-.24q-.39-.09-.69-.15-.58-.14-1.1-.32a3.344,3.344,0,0,1-.92-.48,2.217,2.217,0,0,1-.64-.76,2.445,2.445,0,0,1-.24-1.14,2.584,2.584,0,0,1,.31-1.29,2.755,2.755,0,0,1,.82-.91,3.71,3.71,0,0,1,1.16-.54,4.888,4.888,0,0,1,1.31-.18,4.814,4.814,0,0,1,1.84.36,2.914,2.914,0,0,1,1.4,1.2Zm6.68,3.14V68.82a4.242,4.242,0,0,1,.08-.9,2.428,2.428,0,0,1,.24-.65,2.515,2.515,0,0,1,.43-.56q.27-.27.67-.65.32-.3.64-.61a6.448,6.448,0,0,0,.58-.64,3.468,3.468,0,0,0,.43-.7,1.965,1.965,0,0,0,.17-.83,2.1,2.1,0,0,0-.17-.85,2.152,2.152,0,0,0-.45-.67,2.019,2.019,0,0,0-.67-.44,2.165,2.165,0,0,0-.83-.16,2.132,2.132,0,0,0-1.59.62,2.69,2.69,0,0,0-.73,1.62l-2.04-.2a4.214,4.214,0,0,1,1.45-2.73,4.458,4.458,0,0,1,2.95-.99,4.814,4.814,0,0,1,1.57.25,3.772,3.772,0,0,1,1.27.72,3.316,3.316,0,0,1,.85,1.16,3.793,3.793,0,0,1,.31,1.57,3.683,3.683,0,0,1-.22,1.33,4.03,4.03,0,0,1-.62,1.07l-1.2,1.24-.2.18q-.32.3-.51.51a1.841,1.841,0,0,0-.3.44,1.747,1.747,0,0,0-.15.51,5.085,5.085,0,0,0-.04.7v.88Zm-.38,2.76a1.332,1.332,0,1,1,.39.93A1.27,1.27,0,0,1,237.46,72.8Z" transform="translate(1109 3281)" fill="#344453"/>
    <g id="Grupo_243" data-name="Grupo 243" transform="translate(659.496 3206)">
      <rect id="Rectángulo_29" data-name="Rectángulo 29" width="271.732" height="36.622" rx="3" transform="translate(451 225)" fill="#fff"/>
      <path id="Trazado_356" data-name="Trazado 356" d="M.819-6.372h.864V0H.819ZM5.382-3.195a1.241,1.241,0,0,0-.356-.3,1.024,1.024,0,0,0-.517-.122.986.986,0,0,0-.5.122.387.387,0,0,0-.211.355.406.406,0,0,0,.122.306.96.96,0,0,0,.288.189,1.689,1.689,0,0,0,.356.108l.324.063a3.757,3.757,0,0,1,.49.153,1.356,1.356,0,0,1,.4.234,1.015,1.015,0,0,1,.261.351,1.209,1.209,0,0,1,.094.5,1.182,1.182,0,0,1-.153.616,1.29,1.29,0,0,1-.4.418,1.667,1.667,0,0,1-.554.234A2.76,2.76,0,0,1,4.4.108,2.472,2.472,0,0,1,3.47-.054a1.676,1.676,0,0,1-.715-.594l.612-.5A2.52,2.52,0,0,0,3.807-.8,1.093,1.093,0,0,0,4.4-.648a1.58,1.58,0,0,0,.311-.031.958.958,0,0,0,.279-.1.611.611,0,0,0,.2-.171.391.391,0,0,0,.076-.238.411.411,0,0,0-.113-.3.815.815,0,0,0-.27-.184,1.965,1.965,0,0,0-.333-.108q-.176-.041-.311-.067-.261-.063-.5-.144A1.5,1.5,0,0,1,3.33-2.2a1,1,0,0,1-.288-.342,1.1,1.1,0,0,1-.108-.513,1.163,1.163,0,0,1,.14-.581,1.24,1.24,0,0,1,.369-.409,1.669,1.669,0,0,1,.522-.243,2.2,2.2,0,0,1,.589-.081,2.166,2.166,0,0,1,.828.162,1.311,1.311,0,0,1,.63.54Zm4,0a1.241,1.241,0,0,0-.356-.3,1.024,1.024,0,0,0-.517-.122.986.986,0,0,0-.5.122.387.387,0,0,0-.211.355.406.406,0,0,0,.122.306.96.96,0,0,0,.288.189,1.689,1.689,0,0,0,.356.108l.324.063a3.757,3.757,0,0,1,.491.153,1.356,1.356,0,0,1,.4.234,1.015,1.015,0,0,1,.261.351,1.209,1.209,0,0,1,.094.5,1.182,1.182,0,0,1-.153.616,1.29,1.29,0,0,1-.4.418,1.667,1.667,0,0,1-.554.234A2.76,2.76,0,0,1,8.4.108a2.472,2.472,0,0,1-.931-.162A1.676,1.676,0,0,1,6.75-.648l.612-.5A2.52,2.52,0,0,0,7.8-.8,1.093,1.093,0,0,0,8.4-.648a1.58,1.58,0,0,0,.311-.031.958.958,0,0,0,.279-.1.611.611,0,0,0,.2-.171.391.391,0,0,0,.076-.238.411.411,0,0,0-.112-.3.815.815,0,0,0-.27-.184,1.965,1.965,0,0,0-.333-.108q-.175-.041-.31-.067-.261-.063-.5-.144A1.5,1.5,0,0,1,7.326-2.2a1,1,0,0,1-.288-.342A1.1,1.1,0,0,1,6.93-3.06a1.163,1.163,0,0,1,.139-.581,1.24,1.24,0,0,1,.369-.409,1.669,1.669,0,0,1,.522-.243,2.2,2.2,0,0,1,.589-.081,2.166,2.166,0,0,1,.828.162,1.311,1.311,0,0,1,.63.54ZM14.886,0h-.81V-.657h-.018a1.194,1.194,0,0,1-.531.554,1.758,1.758,0,0,1-.873.212A1.839,1.839,0,0,1,12.06.014a1.336,1.336,0,0,1-.491-.292,1.41,1.41,0,0,1-.337-.508,1.945,1.945,0,0,1-.126-.734V-4.266h.81v2.52A1.424,1.424,0,0,0,12-1.238a.929.929,0,0,0,.216.342.811.811,0,0,0,.311.189,1.145,1.145,0,0,0,.365.059,1.322,1.322,0,0,0,.468-.081.975.975,0,0,0,.378-.257,1.211,1.211,0,0,0,.252-.446,2.027,2.027,0,0,0,.09-.639v-2.2h.81Zm1.836-1.836a1.07,1.07,0,0,0,.122.508,1.265,1.265,0,0,0,.319.391,1.478,1.478,0,0,0,.459.252,1.645,1.645,0,0,0,.54.09,1.208,1.208,0,0,0,.657-.176,2.115,2.115,0,0,0,.513-.463l.612.468a2.252,2.252,0,0,1-1.89.873,2.349,2.349,0,0,1-.913-.171,1.989,1.989,0,0,1-.693-.472,2.1,2.1,0,0,1-.437-.711,2.513,2.513,0,0,1-.153-.887,2.331,2.331,0,0,1,.167-.886,2.2,2.2,0,0,1,.459-.711,2.1,2.1,0,0,1,.7-.473,2.244,2.244,0,0,1,.882-.171,2.107,2.107,0,0,1,.958.2,1.894,1.894,0,0,1,.644.517,2.042,2.042,0,0,1,.364.72,3,3,0,0,1,.113.814v.288Zm2.556-.648a1.708,1.708,0,0,0-.085-.5,1.089,1.089,0,0,0-.23-.391,1.057,1.057,0,0,0-.382-.261,1.4,1.4,0,0,0-.535-.095,1.3,1.3,0,0,0-.545.113,1.326,1.326,0,0,0-.418.293,1.351,1.351,0,0,0-.266.4,1.1,1.1,0,0,0-.094.437Zm4.356-1.26a2.255,2.255,0,0,1,.792-.472,2.709,2.709,0,0,1,.9-.158,2.467,2.467,0,0,1,.806.117,1.566,1.566,0,0,1,.553.315A1.243,1.243,0,0,1,27-3.487a1.418,1.418,0,0,1,.1.535V-.774q0,.225.009.414t.027.36h-.72Q26.4-.324,26.4-.648h-.018a1.552,1.552,0,0,1-.639.585,2.014,2.014,0,0,1-.855.171,1.963,1.963,0,0,1-.567-.081,1.384,1.384,0,0,1-.472-.243,1.16,1.16,0,0,1-.319-.4,1.242,1.242,0,0,1-.117-.553,1.23,1.23,0,0,1,.184-.693,1.4,1.4,0,0,1,.5-.454,2.433,2.433,0,0,1,.747-.252,5.186,5.186,0,0,1,.913-.076h.594v-.18a.888.888,0,0,0-.063-.324.875.875,0,0,0-.189-.293.9.9,0,0,0-.315-.207,1.2,1.2,0,0,0-.45-.077,1.659,1.659,0,0,0-.41.045,1.813,1.813,0,0,0-.319.112,1.4,1.4,0,0,0-.261.158l-.225.171ZM25.92-2.052a5.672,5.672,0,0,0-.59.032,2.3,2.3,0,0,0-.549.122,1.059,1.059,0,0,0-.405.252.569.569,0,0,0-.157.414.587.587,0,0,0,.247.531,1.212,1.212,0,0,0,.67.162A1.3,1.3,0,0,0,25.7-.652a1.066,1.066,0,0,0,.378-.293,1.134,1.134,0,0,0,.207-.4,1.583,1.583,0,0,0,.063-.436v-.27Zm4.869-2.214h.81v.657h.018a1.194,1.194,0,0,1,.531-.553,1.758,1.758,0,0,1,.873-.212,1.852,1.852,0,0,1,.59.095,1.33,1.33,0,0,1,.495.293,1.41,1.41,0,0,1,.338.509,1.945,1.945,0,0,1,.126.733V0h-.81V-2.52a1.424,1.424,0,0,0-.081-.508.929.929,0,0,0-.216-.342.811.811,0,0,0-.311-.189,1.145,1.145,0,0,0-.365-.059,1.322,1.322,0,0,0-.468.081.975.975,0,0,0-.378.257,1.211,1.211,0,0,0-.252.445,2.027,2.027,0,0,0-.09.639V0h-.81ZM36.4-1.836a1.07,1.07,0,0,0,.122.508,1.265,1.265,0,0,0,.319.391,1.478,1.478,0,0,0,.459.252,1.645,1.645,0,0,0,.54.09A1.208,1.208,0,0,0,38.5-.77a2.115,2.115,0,0,0,.513-.463l.612.468a2.252,2.252,0,0,1-1.89.873,2.349,2.349,0,0,1-.913-.171,1.989,1.989,0,0,1-.693-.472,2.1,2.1,0,0,1-.437-.711,2.513,2.513,0,0,1-.153-.887,2.331,2.331,0,0,1,.167-.886,2.2,2.2,0,0,1,.459-.711,2.1,2.1,0,0,1,.7-.473,2.244,2.244,0,0,1,.882-.171,2.107,2.107,0,0,1,.958.2,1.894,1.894,0,0,1,.644.517,2.042,2.042,0,0,1,.365.72,3,3,0,0,1,.112.814v.288Zm2.556-.648a1.708,1.708,0,0,0-.085-.5,1.089,1.089,0,0,0-.229-.391,1.057,1.057,0,0,0-.382-.261,1.4,1.4,0,0,0-.535-.095,1.3,1.3,0,0,0-.545.113,1.326,1.326,0,0,0-.418.293,1.351,1.351,0,0,0-.265.4,1.1,1.1,0,0,0-.095.437Zm1.323-1.782h.909l.963,3.186h.018l1.017-3.186h.855l1.08,3.186h.018l.918-3.186h.855L45.54,0h-.819L43.6-3.186h-.018L42.561,0h-.873Zm9.864.522a2.255,2.255,0,0,1,.792-.472,2.709,2.709,0,0,1,.9-.158,2.467,2.467,0,0,1,.806.117,1.566,1.566,0,0,1,.554.315,1.243,1.243,0,0,1,.319.454,1.418,1.418,0,0,1,.1.535V-.774q0,.225.009.414t.027.36h-.72q-.027-.324-.027-.648h-.018a1.552,1.552,0,0,1-.639.585A2.014,2.014,0,0,1,51.4.108a1.963,1.963,0,0,1-.567-.081,1.384,1.384,0,0,1-.472-.243,1.16,1.16,0,0,1-.319-.4,1.242,1.242,0,0,1-.117-.553,1.23,1.23,0,0,1,.185-.693,1.4,1.4,0,0,1,.5-.454,2.433,2.433,0,0,1,.747-.252,5.186,5.186,0,0,1,.914-.076h.594v-.18A.888.888,0,0,0,52.8-3.15a.875.875,0,0,0-.189-.293.9.9,0,0,0-.315-.207,1.2,1.2,0,0,0-.45-.077,1.659,1.659,0,0,0-.41.045,1.812,1.812,0,0,0-.319.112,1.4,1.4,0,0,0-.261.158l-.225.171Zm2.286,1.692a5.672,5.672,0,0,0-.59.032A2.3,2.3,0,0,0,51.3-1.9a1.059,1.059,0,0,0-.4.252.569.569,0,0,0-.158.414.587.587,0,0,0,.248.531,1.212,1.212,0,0,0,.67.162,1.3,1.3,0,0,0,.567-.113A1.066,1.066,0,0,0,52.6-.945a1.134,1.134,0,0,0,.207-.4,1.583,1.583,0,0,0,.063-.436v-.27ZM54.864-6.8h.81V0h-.81Zm2.1,0h.81v3.15h.018a1.477,1.477,0,0,1,.621-.527,1.979,1.979,0,0,1,.864-.194,2.259,2.259,0,0,1,.9.171,2.009,2.009,0,0,1,.684.473,2.1,2.1,0,0,1,.437.711,2.513,2.513,0,0,1,.153.886,2.476,2.476,0,0,1-.153.882,2.155,2.155,0,0,1-.437.711,1.979,1.979,0,0,1-.684.477,2.259,2.259,0,0,1-.9.171,1.988,1.988,0,0,1-.841-.189,1.543,1.543,0,0,1-.644-.531h-.018V0h-.81ZM59.175-.648a1.464,1.464,0,0,0,.585-.113,1.292,1.292,0,0,0,.441-.306,1.35,1.35,0,0,0,.279-.468,1.752,1.752,0,0,0,.1-.6,1.752,1.752,0,0,0-.1-.6A1.35,1.35,0,0,0,60.2-3.2a1.292,1.292,0,0,0-.441-.306,1.464,1.464,0,0,0-.585-.113,1.464,1.464,0,0,0-.585.113,1.292,1.292,0,0,0-.441.306,1.35,1.35,0,0,0-.279.468,1.752,1.752,0,0,0-.1.6,1.752,1.752,0,0,0,.1.6,1.35,1.35,0,0,0,.279.468,1.292,1.292,0,0,0,.441.306A1.464,1.464,0,0,0,59.175-.648ZM66.24,0h-.81V-.657h-.018a1.194,1.194,0,0,1-.531.554,1.758,1.758,0,0,1-.873.212,1.839,1.839,0,0,1-.594-.095,1.336,1.336,0,0,1-.491-.292,1.41,1.41,0,0,1-.338-.508,1.945,1.945,0,0,1-.126-.734V-4.266h.81v2.52a1.424,1.424,0,0,0,.081.508.929.929,0,0,0,.216.342.811.811,0,0,0,.31.189,1.145,1.145,0,0,0,.364.059,1.322,1.322,0,0,0,.468-.081.975.975,0,0,0,.378-.257,1.211,1.211,0,0,0,.252-.446,2.027,2.027,0,0,0,.09-.639v-2.2h.81Zm1.224-4.266h.756V-3.6h.018a.7.7,0,0,1,.139-.225,1.434,1.434,0,0,1,.288-.257,1.778,1.778,0,0,1,.414-.207,1.551,1.551,0,0,1,.526-.086,1.51,1.51,0,0,1,.8.2,1.473,1.473,0,0,1,.531.594,1.365,1.365,0,0,1,.585-.594,1.633,1.633,0,0,1,.765-.2,1.768,1.768,0,0,1,.81.162,1.3,1.3,0,0,1,.495.427,1.632,1.632,0,0,1,.248.6,3.549,3.549,0,0,1,.067.7V0H73.1V-2.376a3.373,3.373,0,0,0-.032-.468,1.082,1.082,0,0,0-.131-.4.743.743,0,0,0-.279-.274.953.953,0,0,0-.477-.1.949.949,0,0,0-.837.36,1.581,1.581,0,0,0-.252.927V0h-.81V-2.232a4.521,4.521,0,0,0-.032-.558,1.309,1.309,0,0,0-.126-.437.7.7,0,0,0-.27-.288.927.927,0,0,0-.473-.1,1.066,1.066,0,0,0-.419.086.99.99,0,0,0-.355.257,1.245,1.245,0,0,0-.243.437,1.952,1.952,0,0,0-.09.625V0h-.81Z" transform="translate(468.915 245.394)" fill="#212121"/>
      <line id="Línea_6" data-name="Línea 6" y2="13.021" transform="translate(546.138 235.8)" fill="none" stroke="#707070" stroke-width="1"/>
    </g>
    <g id="Grupo_29" data-name="Grupo 29" transform="translate(512.357 3308.443)">
      <rect id="Rectángulo_36" data-name="Rectángulo 36" width="268" height="76" rx="3" transform="translate(598.643 237.557)" fill="#344453"/>
      <path id="Trazado_359" data-name="Trazado 359" d="M-77.076-6.5a2.532,2.532,0,0,0-.906-.672,2.446,2.446,0,0,0-.882-.168,2.944,2.944,0,0,0-1.194.234,2.732,2.732,0,0,0-.918.648,2.943,2.943,0,0,0-.594.966,3.313,3.313,0,0,0-.21,1.188,3.653,3.653,0,0,0,.21,1.26,2.96,2.96,0,0,0,.594,1,2.764,2.764,0,0,0,.918.66,2.881,2.881,0,0,0,1.194.24,2.193,2.193,0,0,0,1-.246,2.735,2.735,0,0,0,.906-.786l1.248.888a3.4,3.4,0,0,1-1.4,1.152,4.376,4.376,0,0,1-1.764.36A4.965,4.965,0,0,1-80.682-.1,4.121,4.121,0,0,1-82.1-1a4.135,4.135,0,0,1-.93-1.4,4.716,4.716,0,0,1-.336-1.812,4.92,4.92,0,0,1,.336-1.854,4.16,4.16,0,0,1,.93-1.422,4.076,4.076,0,0,1,1.416-.906,4.965,4.965,0,0,1,1.806-.318,4.141,4.141,0,0,1,1.6.306A3.735,3.735,0,0,1-75.9-7.368ZM-74.088-8.5h2.952a6.014,6.014,0,0,1,1.182.114,3.027,3.027,0,0,1,1.014.39,2.04,2.04,0,0,1,.708.744,2.4,2.4,0,0,1,.264,1.188,2.366,2.366,0,0,1-.51,1.548,2.188,2.188,0,0,1-1.458.756L-67.68,0H-69.5l-1.968-3.6h-1.1V0h-1.512ZM-71.4-4.9q.324,0,.648-.03a1.99,1.99,0,0,0,.594-.144,1.014,1.014,0,0,0,.438-.348,1.106,1.106,0,0,0,.168-.654,1.043,1.043,0,0,0-.156-.6.97.97,0,0,0-.408-.342,1.878,1.878,0,0,0-.558-.15,5.084,5.084,0,0,0-.594-.036h-1.308v2.3Zm5.472-3.6H-60.3v1.368h-4.116V-5.04h3.9v1.368h-3.9v2.3h4.332V0h-5.844Zm10.68,0h1.308L-50.28,0h-1.728L-52.8-1.944h-3.684L-57.252,0h-1.692Zm1.92,5.256L-54.636-6.7-55.968-3.24ZM-48.1-7.128h-2.6V-8.5h6.72v1.368h-2.6V0H-48.1ZM-42.348-8.5h5.628v1.368h-4.116V-5.04h3.9v1.368h-3.9v2.3H-36.5V0h-5.844Zm14.16,4.86L-31.38-8.5h1.9L-27.4-5.112-25.284-8.5h1.8l-3.192,4.86V0h-1.512Zm5.628-.576a4.92,4.92,0,0,1,.336-1.854,4.16,4.16,0,0,1,.93-1.422,4.076,4.076,0,0,1,1.416-.906,4.965,4.965,0,0,1,1.806-.318,5.047,5.047,0,0,1,1.824.294,3.987,3.987,0,0,1,1.428.894,4.129,4.129,0,0,1,.936,1.416,4.874,4.874,0,0,1,.336,1.848,4.716,4.716,0,0,1-.336,1.812,4.156,4.156,0,0,1-.936,1.4,4.276,4.276,0,0,1-1.428.918,5.052,5.052,0,0,1-1.824.342A4.965,4.965,0,0,1-19.878-.1,4.121,4.121,0,0,1-21.294-1a4.135,4.135,0,0,1-.93-1.4A4.717,4.717,0,0,1-22.56-4.212Zm1.584-.1a3.653,3.653,0,0,0,.21,1.26,2.96,2.96,0,0,0,.594,1,2.764,2.764,0,0,0,.918.66,2.881,2.881,0,0,0,1.194.24,2.923,2.923,0,0,0,1.2-.24,2.748,2.748,0,0,0,.924-.66,2.96,2.96,0,0,0,.594-1,3.653,3.653,0,0,0,.21-1.26,3.313,3.313,0,0,0-.21-1.188,2.943,2.943,0,0,0-.594-.966,2.717,2.717,0,0,0-.924-.648,2.987,2.987,0,0,0-1.2-.234,2.944,2.944,0,0,0-1.194.234,2.732,2.732,0,0,0-.918.648,2.943,2.943,0,0,0-.594.966A3.313,3.313,0,0,0-20.976-4.308ZM-4.7-3.12a3.5,3.5,0,0,1-.264,1.386,3.107,3.107,0,0,1-.72,1.05,3.167,3.167,0,0,1-1.08.666A3.832,3.832,0,0,1-8.124.216,3.832,3.832,0,0,1-9.48-.018a3.232,3.232,0,0,1-1.086-.666,3,3,0,0,1-.72-1.05,3.566,3.566,0,0,1-.258-1.386V-8.5h1.512v5.328a2.419,2.419,0,0,0,.1.654,1.837,1.837,0,0,0,.318.63,1.7,1.7,0,0,0,.588.474,1.987,1.987,0,0,0,.906.186,1.987,1.987,0,0,0,.906-.186,1.7,1.7,0,0,0,.588-.474,1.837,1.837,0,0,0,.318-.63,2.419,2.419,0,0,0,.1-.654V-8.5H-4.7ZM-2.244-8.5H.708a6.014,6.014,0,0,1,1.182.114,3.027,3.027,0,0,1,1.014.39,2.04,2.04,0,0,1,.708.744A2.4,2.4,0,0,1,3.876-6.06a2.366,2.366,0,0,1-.51,1.548,2.188,2.188,0,0,1-1.458.756L4.164,0H2.34L.372-3.6h-1.1V0H-2.244ZM.444-4.9q.324,0,.648-.03a1.99,1.99,0,0,0,.594-.144,1.014,1.014,0,0,0,.438-.348,1.106,1.106,0,0,0,.168-.654,1.043,1.043,0,0,0-.156-.6.97.97,0,0,0-.408-.342,1.878,1.878,0,0,0-.558-.15A5.084,5.084,0,0,0,.576-7.2H-.732v2.3Zm9.624-3.6h5.484v1.368H11.58V-4.9h3.744v1.368H11.58V0H10.068Zm7.452,0h1.512V0H17.52Zm3.972,0h2.952a6.014,6.014,0,0,1,1.182.114,3.027,3.027,0,0,1,1.014.39,2.04,2.04,0,0,1,.708.744,2.4,2.4,0,0,1,.264,1.188,2.366,2.366,0,0,1-.51,1.548,2.188,2.188,0,0,1-1.458.756L27.9,0H26.076L24.108-3.6H23V0H21.492ZM24.18-4.9q.324,0,.648-.03a1.99,1.99,0,0,0,.594-.144,1.014,1.014,0,0,0,.438-.348,1.106,1.106,0,0,0,.168-.654,1.043,1.043,0,0,0-.156-.6.969.969,0,0,0-.408-.342,1.878,1.878,0,0,0-.558-.15,5.084,5.084,0,0,0-.594-.036H23v2.3Zm9.636-1.776a1.4,1.4,0,0,0-.642-.51,2.242,2.242,0,0,0-.846-.162,2.145,2.145,0,0,0-.51.06,1.385,1.385,0,0,0-.444.192,1,1,0,0,0-.318.342.987.987,0,0,0-.12.5.779.779,0,0,0,.3.66,2.95,2.95,0,0,0,.744.4q.444.168.972.324a3.952,3.952,0,0,1,.972.432,2.4,2.4,0,0,1,.744.732,2.175,2.175,0,0,1,.3,1.212A2.665,2.665,0,0,1,34.716-1.3a2.433,2.433,0,0,1-.678.846,2.931,2.931,0,0,1-.99.5A4.14,4.14,0,0,1,31.86.216a4.458,4.458,0,0,1-1.524-.264,2.936,2.936,0,0,1-1.26-.888l1.14-1.1a1.906,1.906,0,0,0,.726.654,2.039,2.039,0,0,0,.954.234,2,2,0,0,0,.528-.072,1.633,1.633,0,0,0,.48-.216,1.127,1.127,0,0,0,.348-.366.979.979,0,0,0,.132-.51.888.888,0,0,0-.3-.72,2.65,2.65,0,0,0-.744-.426q-.444-.174-.972-.33a4.093,4.093,0,0,1-.972-.426,2.364,2.364,0,0,1-.744-.72,2.145,2.145,0,0,1-.3-1.206,2.289,2.289,0,0,1,.27-1.14,2.469,2.469,0,0,1,.708-.8,3.091,3.091,0,0,1,1-.474,4.3,4.3,0,0,1,1.152-.156,4.2,4.2,0,0,1,1.3.2,3.018,3.018,0,0,1,1.134.672Zm5.064-.456h-2.6V-8.5H43v1.368h-2.6V0H38.88Zm17.448,6.5a7.341,7.341,0,0,1-3.516.84A4.965,4.965,0,0,1,51.006-.1,4.121,4.121,0,0,1,49.59-1a4.135,4.135,0,0,1-.93-1.4,4.717,4.717,0,0,1-.336-1.812,4.92,4.92,0,0,1,.336-1.854,4.16,4.16,0,0,1,.93-1.422,4.076,4.076,0,0,1,1.416-.906,4.965,4.965,0,0,1,1.806-.318,6.862,6.862,0,0,1,1.824.234,3.754,3.754,0,0,1,1.524.834L55.044-6.516a2.8,2.8,0,0,0-.99-.612,3.506,3.506,0,0,0-1.23-.216,2.944,2.944,0,0,0-1.194.234,2.732,2.732,0,0,0-.918.648,2.943,2.943,0,0,0-.594.966,3.313,3.313,0,0,0-.21,1.188,3.653,3.653,0,0,0,.21,1.26,2.959,2.959,0,0,0,.594,1,2.764,2.764,0,0,0,.918.66,2.881,2.881,0,0,0,1.194.24A5.235,5.235,0,0,0,53.91-1.26a3.084,3.084,0,0,0,.906-.336v-2h-1.74V-4.968h3.252ZM58.26-4.212A4.92,4.92,0,0,1,58.6-6.066a4.16,4.16,0,0,1,.93-1.422,4.076,4.076,0,0,1,1.416-.906,4.965,4.965,0,0,1,1.806-.318,5.047,5.047,0,0,1,1.824.294A3.987,3.987,0,0,1,66-7.524a4.129,4.129,0,0,1,.936,1.416,4.874,4.874,0,0,1,.336,1.848,4.717,4.717,0,0,1-.336,1.812A4.156,4.156,0,0,1,66-1.044a4.276,4.276,0,0,1-1.428.918,5.052,5.052,0,0,1-1.824.342A4.965,4.965,0,0,1,60.942-.1,4.121,4.121,0,0,1,59.526-1a4.135,4.135,0,0,1-.93-1.4A4.717,4.717,0,0,1,58.26-4.212Zm1.584-.1a3.653,3.653,0,0,0,.21,1.26,2.959,2.959,0,0,0,.594,1,2.764,2.764,0,0,0,.918.66,2.881,2.881,0,0,0,1.194.24,2.923,2.923,0,0,0,1.2-.24,2.748,2.748,0,0,0,.924-.66,2.959,2.959,0,0,0,.594-1,3.653,3.653,0,0,0,.21-1.26,3.313,3.313,0,0,0-.21-1.188,2.943,2.943,0,0,0-.594-.966,2.717,2.717,0,0,0-.924-.648,2.987,2.987,0,0,0-1.2-.234,2.944,2.944,0,0,0-1.194.234,2.732,2.732,0,0,0-.918.648,2.943,2.943,0,0,0-.594.966A3.313,3.313,0,0,0,59.844-4.308ZM72.06-8.5h1.308L77.028,0H75.3l-.792-1.944H70.824L70.056,0H68.364ZM73.98-3.24,72.672-6.7,71.34-3.24Zm4.6-5.256h1.512v7.128H83.7V0H78.576Z" transform="translate(732.643 280.557)" fill="#efefef"/>
    </g>
    <g id="bird-svgrepo-com_1_" data-name="bird-svgrepo-com (1)" transform="translate(1268.524 3107.868)">
      <path id="Trazado_337" data-name="Trazado 337" d="M76.7,354.215v1.2a3.04,3.04,0,0,1-3.037,3.037h-2.1a4.241,4.241,0,0,0-3.992-2.823v2.823a1.412,1.412,0,1,1,0,2.823V364.1a4.241,4.241,0,0,0,3.992-2.823h2.1a5.867,5.867,0,0,0,5.86-5.86v-1.2H76.7Z" transform="translate(-47.976 -258.865)" fill="#fca12a"/>
      <path id="Trazado_330" data-name="Trazado 330" d="M0,5.5,5.3,0l.1,5.4,5.024,1.985L3.416,10.425Z" transform="matrix(0.788, 0.616, -0.616, 0.788, 60.36, 65.597)" fill="#fca12a"/>
      <path id="Trazado_336" data-name="Trazado 336" d="M5.534,0,3.762,2.342c-4.372,5.78-2.663,13-1.738,15.806a14.931,14.931,0,0,0-1.612,3.84A11.435,11.435,0,0,0,2.978,32.765a11.8,11.8,0,0,0,8.006,4.122q.448.034.9.034a14.719,14.719,0,0,0,8.652-3.1,14.61,14.61,0,0,0,4.906-6.281l.488-1.2Z" transform="translate(20.148 45.561) rotate(8)" fill="#ffc114"/>
      <path id="Trazado_331" data-name="Trazado 331" d="M5.534,0,3.762,2.342c-4.372,5.78-2.663,13-1.738,15.806a14.931,14.931,0,0,0-1.612,3.84A11.435,11.435,0,0,0,2.978,32.765a11.8,11.8,0,0,0,8.006,4.122q.448.034.9.034a14.719,14.719,0,0,0,8.652-3.1,14.61,14.61,0,0,0,4.906-6.281l.488-1.2Z" transform="translate(6.424 53.779) rotate(-13)" fill="#eac04b"/>
      <path id="Trazado_333" data-name="Trazado 333" d="M49.347,191.081l-.416-.675-9.3-3.294-.99.865c-.12.1-12.1,10.526-20.083,13.855a51.127,51.127,0,0,1-9.582,2.451L0,205.565l14.654,5.249-7.5,12.69,6.759-3.324c.1-.05,10.187-4.95,21.025-4.95a16.907,16.907,0,0,0,12.237-4.685,15.57,15.57,0,0,0,4.517-11.162A15.815,15.815,0,0,0,49.347,191.081Z" transform="translate(0 -117.943)" fill="#fca12a"/>
      <path id="Trazado_334" data-name="Trazado 334" d="M48.8,111.9a11.975,11.975,0,0,0-11.962,11.961c0,.158.006.314.012.47-3.658,3.034-12.152,9.782-18.291,12.34a51.126,51.126,0,0,1-9.582,2.451L0,140.4l14.654,5.249-7.5,12.69,6.759-3.324a56.659,56.659,0,0,1,11.013-3.731c5.982-2.827,12.521-6.929,15.509-12.244a10.18,10.18,0,0,0,1.5-5.395A11.958,11.958,0,1,0,48.8,111.9Z" transform="translate(0 -52.783)" fill="#ffc114"/>
      <circle id="Elipse_143" data-name="Elipse 143" cx="2.247" cy="2.247" r="2.247" transform="translate(49.148 67.715)"/>
      <path id="Trazado_335" data-name="Trazado 335" d="M311.785,113.254A11.854,11.854,0,0,0,306.2,111.9a11.28,11.28,0,0,0-7.4,2.6,10.314,10.314,0,0,0,5.77,1.688A9.746,9.746,0,0,0,311.785,113.254Z" transform="translate(-257.458 -52.782)" fill="#ffd769"/>
    </g>
    <g id="bird-svgrepo-com_1_2" data-name="bird-svgrepo-com (1)" transform="translate(1171.122 3154.14)">
      <path id="Trazado_337-2" data-name="Trazado 337" d="M71.749,354.215v.548a1.391,1.391,0,0,1-1.39,1.39H69.4a1.941,1.941,0,0,0-1.827-1.292v1.292a.646.646,0,0,1,0,1.292v1.292a1.941,1.941,0,0,0,1.827-1.292h.961a2.684,2.684,0,0,0,2.681-2.681v-.548H71.749Z" transform="translate(-58.605 -285.872)" fill="#fca12a"/>
      <path id="Trazado_330-2" data-name="Trazado 330" d="M0,2.517,2.426,0l.046,2.471,2.3.908L1.563,4.77Z" transform="matrix(0.788, 0.616, -0.616, 0.788, 27.619, 54.729)" fill="#fca12a"/>
      <path id="Trazado_336-2" data-name="Trazado 336" d="M2.532,0,1.721,1.072C-.279,3.716.5,7.019.926,8.3a6.832,6.832,0,0,0-.738,1.757,5.232,5.232,0,0,0,1.174,4.932,5.4,5.4,0,0,0,3.663,1.886q.205.016.412.016A6.735,6.735,0,0,0,9.4,15.477,6.685,6.685,0,0,0,11.641,12.6l.223-.549Z" transform="translate(9.219 45.561) rotate(8)" fill="#ffc114"/>
      <path id="Trazado_331-2" data-name="Trazado 331" d="M2.532,0,1.721,1.072C-.279,3.716.5,7.019.926,8.3a6.832,6.832,0,0,0-.738,1.757,5.232,5.232,0,0,0,1.174,4.932,5.4,5.4,0,0,0,3.663,1.886q.205.016.412.016A6.735,6.735,0,0,0,9.4,15.477,6.685,6.685,0,0,0,11.641,12.6l.223-.549Z" transform="translate(2.94 49.322) rotate(-13)" fill="#eac04b"/>
      <path id="Trazado_333-2" data-name="Trazado 333" d="M22.58,188.928l-.19-.309-4.255-1.507-.453.4c-.055.048-5.535,4.817-9.19,6.34a23.4,23.4,0,0,1-4.384,1.121L0,195.556l6.705,2.4-3.431,5.807,3.093-1.521a24.917,24.917,0,0,1,9.621-2.265,7.736,7.736,0,0,0,5.6-2.144,7.125,7.125,0,0,0,2.067-5.108A7.237,7.237,0,0,0,22.58,188.928Z" transform="translate(0 -130.748)" fill="#fca12a"/>
      <path id="Trazado_334-2" data-name="Trazado 334" d="M22.329,111.9a5.48,5.48,0,0,0-5.473,5.473c0,.072,0,.144.006.215-1.674,1.388-5.561,4.476-8.37,5.646a23.393,23.393,0,0,1-4.384,1.121L0,124.943l6.705,2.4-3.431,5.807,3.093-1.521a25.925,25.925,0,0,1,5.039-1.707c2.737-1.293,5.73-3.171,7.1-5.6a4.658,4.658,0,0,0,.687-2.468,5.472,5.472,0,1,0,3.14-9.952Z" transform="translate(0 -60.136)" fill="#ffc114"/>
      <circle id="Elipse_143-2" data-name="Elipse 143" cx="1.028" cy="1.028" r="1.028" transform="translate(22.489 55.698)"/>
      <path id="Trazado_335-2" data-name="Trazado 335" d="M304.743,112.519a5.424,5.424,0,0,0-2.556-.62,5.162,5.162,0,0,0-3.385,1.189,4.72,4.72,0,0,0,2.64.772A4.46,4.46,0,0,0,304.743,112.519Z" transform="translate(-279.884 -60.135)" fill="#ffd769"/>
    </g>
  </g>
</svg>
