<svg xmlns="http://www.w3.org/2000/svg" xmlns:xlink="http://www.w3.org/1999/xlink" width="422" height="198" viewBox="0 0 422 198">
  <defs>
    <filter id="Rect치ngulo_213" x="0" y="0" width="422" height="198" filterUnits="userSpaceOnUse">
      <feOffset dy="3" input="SourceAlpha"/>
      <feGaussianBlur stdDeviation="3" result="blur"/>
      <feFlood flood-opacity="0.161"/>
      <feComposite operator="in" in2="blur"/>
      <feComposite in="SourceGraphic"/>
    </filter>
  </defs>
  <g id="Grupo_290" data-name="Grupo 290" transform="translate(-749 -5647)">
    <g transform="matrix(1, 0, 0, 1, 749, 5647)" filter="url(#Rect치ngulo_213)">
      <rect id="Rect치ngulo_213-2" data-name="Rect치ngulo 213" width="404" height="180" rx="10" transform="translate(9 6)" fill="#fff"/>
    </g>
    <g id="mongodb" transform="translate(782 5685.797)">
      <path id="Trazado_379" data-name="Trazado 379" d="M447.754,58.913c-.319.064-.64.769-.64,1.153-.064,2.564-.128,9.359-.128,13.974a.475.475,0,0,0,.384.385c.961.064,3.269.128,5.256.128a13.72,13.72,0,0,0,5.257-.768c2.307-1.154,3.4-3.654,3.4-6.411,0-6.217-4.359-8.589-10.833-8.589a10.282,10.282,0,0,0-2.692.129Zm16.538,28.652c0-6.346-4.68-9.872-13.14-9.872-.385,0-3.077-.064-3.718.064-.192.065-.448.193-.448.385,0,4.55-.065,11.794.128,14.614a4.837,4.837,0,0,0,2.116,3.461c1.153.641,3.781.769,5.576.769,5.064,0,9.487-2.82,9.487-9.422ZM434.678,55.388c.64,0,2.563.192,7.5.192,4.68,0,8.4-.128,12.948-.128,5.576,0,13.268,1.987,13.268,10.32,0,4.1-2.885,7.372-6.666,8.974-.192.064-.192.192,0,.256,5.384,1.347,10.128,4.68,10.128,10.961,0,6.154-3.846,10.064-9.423,12.5a30.66,30.66,0,0,1-11.922,1.987c-3.27,0-12.051-.384-16.922-.256-.513-.193.449-2.5.9-2.885a11.965,11.965,0,0,0,3.27-.513c1.731-.448,1.923-.961,2.179-3.589.129-2.244.129-10.193.129-15.833,0-7.756.065-13.012,0-15.576-.064-1.987-.769-2.628-2.179-3.013-1.091-.192-2.885-.449-4.359-.64-.321-.321.769-2.5,1.154-2.756ZM397.692,95.257c1.539,1.217,4.552,1.73,7.244,1.73a14.2,14.2,0,0,0,10.256-3.654c3.4-3.076,5.769-7.819,5.769-15.383,0-7.244-2.756-13.141-8.4-16.6-3.2-1.988-7.307-2.82-12.051-2.82a9.606,9.606,0,0,0-3.589.448A1.884,1.884,0,0,0,396.283,60c-.128,1.282-.128,11.153-.128,16.923,0,5.961,0,14.294.128,15.256a3.975,3.975,0,0,0,1.41,3.077Zm-14.551-39.87c1.218,0,5.9.192,8.141.192,4.039,0,6.923-.192,14.551-.192,6.41,0,11.794,1.73,15.64,5,4.679,4.038,7.115,9.615,7.115,16.409,0,9.679-4.423,15.256-8.846,18.461-4.422,3.269-10.191,5.191-18.4,5.191-4.359,0-11.858-.128-18.076-.192h-.064c-.32-.577.513-2.82,1.025-2.884a10.218,10.218,0,0,0,2.949-.577c1.345-.513,1.6-1.218,1.795-3.59.192-4.423.128-9.743.128-15.769,0-4.294.064-12.692-.065-15.384-.192-2.243-1.153-2.82-3.076-3.2-.961-.192-2.244-.449-4.038-.64-.257-.449.9-2.436,1.217-2.82Z" transform="translate(-116.628 -16.853)" fill="#8e714e" fill-rule="evenodd"/>
      <path id="Trazado_380" data-name="Trazado 380" d="M214.2,104.295a12.892,12.892,0,0,1-4.166-1.089,1.953,1.953,0,0,1-.513-1.026c-.128-2.244-.128-8.653-.128-12.947,0-3.462-.577-6.474-2.051-8.589A8.751,8.751,0,0,0,199.9,76.8c-2.82,0-6.6,1.923-9.743,4.615-.064.064-.577.513-.513-.192,0-.705.128-2.115.192-3.077a1.662,1.662,0,0,0-.449-1.345,42.78,42.78,0,0,1-9.936,2.563c-1.538.322-1.923,1.8-.32,2.308h.064a14.223,14.223,0,0,1,3.781,1.667,1.994,1.994,0,0,1,.577,1.795c.064,4.807.064,12.178-.128,16.217-.064,1.6-.513,2.179-1.667,2.435l.128-.064a25.31,25.31,0,0,1-2.692.513,3.747,3.747,0,0,0,0,2.885c.705,0,4.423-.192,7.5-.192,4.23,0,6.41.192,7.5.192a4.173,4.173,0,0,0,.321-2.885,11.867,11.867,0,0,1-2.949-.449c-1.154-.257-1.475-.833-1.539-2.179-.127-3.4-.127-10.577-.127-15.448a3.091,3.091,0,0,1,.768-2.372,9.7,9.7,0,0,1,5.962-2.179,6.627,6.627,0,0,1,4.423,1.475,6.3,6.3,0,0,1,2.051,4.038c.32,2.756.192,8.2.192,12.948,0,2.564-.192,3.2-1.153,3.525a12.2,12.2,0,0,1-2.949.577c-.449.449-.32,2.437,0,2.885,1.859,0,4.038-.192,7.243-.192,3.974,0,6.538.192,7.564.192a4.471,4.471,0,0,0,.192-2.757ZM231.954,79.81c-3.4,0-5.512,2.628-5.512,6.729,0,4.167,1.859,8.974,7.115,8.974a4.966,4.966,0,0,0,3.333-1.282,8.487,8.487,0,0,0,2.052-5.9c0-5.32-2.628-8.525-6.987-8.525Zm-.449,28.331a5.51,5.51,0,0,0-2.756.706c-2.692,1.73-3.91,3.4-3.91,5.385a5.67,5.67,0,0,0,2.244,4.614c1.859,1.6,4.423,2.372,7.691,2.372,6.538,0,9.423-3.526,9.423-6.986,0-2.437-1.218-4.039-3.717-4.936-1.795-.77-5.064-1.154-8.974-1.154Zm.449,16.666c-3.91,0-6.731-.834-9.166-2.692a8.448,8.448,0,0,1-3.4-6.346,4.91,4.91,0,0,1,1.282-3.2,33.994,33.994,0,0,1,5.9-4.743c.128-.064.192-.128.192-.257a.424.424,0,0,0-.256-.32c-3.012-1.154-3.91-3.013-4.167-4.038v-.128c-.063-.385-.192-.769.385-1.154.449-.32,1.09-.705,1.794-1.153a26.331,26.331,0,0,0,2.949-1.924.469.469,0,0,0,.128-.384.424.424,0,0,0-.257-.32c-4.486-1.475-6.729-4.808-6.729-9.808a9.732,9.732,0,0,1,4.1-8.076,18.846,18.846,0,0,1,9.231-3.141h.192a19.656,19.656,0,0,1,7.05,1.539,11.865,11.865,0,0,0,4.168.64,5.548,5.548,0,0,0,4.486-1.666,3.481,3.481,0,0,1,.257,1.282,4.841,4.841,0,0,1-.834,2.949,3.641,3.641,0,0,1-2.82,1.218h-.321a14.281,14.281,0,0,1-1.667-.257l-.256.129c-.064.129,0,.256.064.449l.065.129a23.662,23.662,0,0,1,.384,2.756c0,5.256-2.115,7.563-4.359,9.294a14.761,14.761,0,0,1-7.5,2.885,8.072,8.072,0,0,0-.9.064c-.32,0-.769.065-.834.065h-.064c-.513.128-1.794.769-1.794,1.858,0,.961.577,2.116,3.333,2.308.577.064,1.153.064,1.795.128,3.654.256,8.2.577,10.32,1.282a7.183,7.183,0,0,1,4.807,6.858c0,4.744-3.4,9.167-9.037,11.922a20.62,20.62,0,0,1-8.526,1.859ZM268.491,80.13a5.953,5.953,0,0,0-3.461.961c-2.5,1.539-3.781,4.616-3.781,9.1,0,8.4,4.23,14.295,10.256,14.295a6.522,6.522,0,0,0,4.423-1.539c1.859-1.539,2.821-4.616,2.821-8.91,0-8.332-4.167-13.909-10.256-13.909Zm1.154,27.434c-10.9,0-14.807-8.012-14.807-15.512a13.877,13.877,0,0,1,6.345-12.179,19.293,19.293,0,0,1,9.808-2.884c8.332,0,14.166,5.961,14.166,14.551,0,5.833-2.307,10.448-6.731,13.268a17.775,17.775,0,0,1-8.782,2.756h0ZM155.421,80.13a5.955,5.955,0,0,0-3.462.961c-2.5,1.539-3.781,4.616-3.781,9.1,0,8.4,4.23,14.295,10.256,14.295a6.525,6.525,0,0,0,4.423-1.539c1.858-1.539,2.82-4.616,2.82-8.91,0-8.332-4.1-13.909-10.256-13.909Zm1.154,27.435c-10.9,0-14.807-8.012-14.807-15.512a13.877,13.877,0,0,1,6.345-12.179,19.293,19.293,0,0,1,9.808-2.884c8.333,0,14.166,5.961,14.166,14.551,0,5.833-2.307,10.448-6.731,13.268a17.364,17.364,0,0,1-8.781,2.756Zm-73.265-.641a2.74,2.74,0,0,1-.192-1.474,2.166,2.166,0,0,1,.192-.961,23.644,23.644,0,0,0,2.82-.577c1.282-.321,1.795-1.025,1.859-2.628.193-3.846.193-11.154.129-16.218v-.129a1.942,1.942,0,0,0-.705-1.795,14.482,14.482,0,0,0-3.846-1.667c-.577-.191-.961-.512-.9-.9,0-.385.385-.834,1.218-.962a46.9,46.9,0,0,0,9.806-2.5,1.586,1.586,0,0,1,.321,1.026l-.064.7c-.065.706-.129,1.539-.129,2.372a.5.5,0,0,0,.513.449.9.9,0,0,0,.385-.128c4.1-3.2,7.82-4.359,9.742-4.359,3.142,0,5.578,1.475,7.436,4.551a.483.483,0,0,0,.449.257.456.456,0,0,0,.384-.192c3.782-2.885,7.564-4.616,10.063-4.616,5.961,0,9.487,4.423,9.487,11.923,0,2.115,0,4.871-.064,7.372,0,2.243-.064,4.294-.064,5.769a2.017,2.017,0,0,0,1.153,1.538,13.687,13.687,0,0,0,3.718.9h.064a5.141,5.141,0,0,1-.384,2.436,15.752,15.752,0,0,1-1.6-.064q-2.434-.127-4.872-.128c-3.974,0-6.025.064-8.013.192a6.254,6.254,0,0,1,0-2.436,19.9,19.9,0,0,0,2.437-.577c1.282-.385,1.6-.962,1.667-2.628,0-1.218.256-11.6-.129-14.1a6.32,6.32,0,0,0-6.538-5.576,11.367,11.367,0,0,0-6.538,2.5,1.143,1.143,0,0,0-.257.641V85a29.521,29.521,0,0,1,.257,5.256v4.166c0,2.885-.065,5.577,0,7.627a1.878,1.878,0,0,0,1.539,1.988c.385.063.64.128.961.192.577.129,1.154.257,2.051.449a3.46,3.46,0,0,1-.064,1.795,1.229,1.229,0,0,1-.257.641c-2.179-.064-4.423-.129-7.691-.129-.961,0-2.628.065-4.038.065-1.154,0-2.244.064-2.884.064a3.381,3.381,0,0,1-.193-1.282,2,2,0,0,1,.257-1.154,4.334,4.334,0,0,1,.9-.128c.768-.128,1.41-.257,2.05-.385,1.091-.32,1.475-.9,1.539-2.307.192-3.2.385-12.371-.064-14.679-.769-3.718-2.884-5.576-6.282-5.576A11.761,11.761,0,0,0,94.4,84.1a2.07,2.07,0,0,0-.577,1.473V89.36c0,4.615,0,10.384.064,12.884a1.988,1.988,0,0,0,1.795,1.987,13.422,13.422,0,0,0,1.475.257l1.153.192a5.375,5.375,0,0,1-.192,2.436c-.641,0-1.41-.064-2.308-.064-1.345-.065-3.076-.129-5-.129-2.244,0-3.846.064-5.128.129a15.485,15.485,0,0,0-2.371-.129Z" transform="translate(-25.245 -23.392)" fill="#442d22" fill-rule="evenodd"/>
      <path id="Trazado_381" data-name="Trazado 381" d="M31.441,104.364l-2.628-.9s.321-13.4-4.487-14.357c-3.2-3.718.514-157.684,12.051-.513,0,0-3.975,1.987-4.68,5.385-.77,3.333-.257,10.384-.257,10.384Z" transform="translate(-7.093 -5.449)" fill="#fff" fill-rule="evenodd"/>
      <path id="Trazado_382" data-name="Trazado 382" d="M31.441,104.364l-2.628-.9s.321-13.4-4.487-14.357c-3.2-3.718.514-157.684,12.051-.513,0,0-3.975,1.987-4.68,5.385-.77,3.333-.257,10.384-.257,10.384Z" transform="translate(-7.093 -5.449)" fill="#a6a385" fill-rule="evenodd"/>
      <path id="Trazado_383" data-name="Trazado 383" d="M35.308,86.081s23.012-15.128,17.627-46.6C47.744,16.6,35.5,9.1,34.155,6.213A32.358,32.358,0,0,1,31.27.573l.962,63.649c0,.065-1.987,19.486,3.077,21.859" transform="translate(-9.55 -0.113)" fill="#fff" fill-rule="evenodd"/>
      <path id="Trazado_384" data-name="Trazado 384" d="M35.308,86.081s23.012-15.128,17.627-46.6C47.744,16.6,35.5,9.1,34.155,6.213A32.358,32.358,0,0,1,31.27.573l.962,63.649c0,.065-1.987,19.486,3.077,21.859" transform="translate(-9.55 -0.113)" fill="#499d4a" fill-rule="evenodd"/>
      <path id="Trazado_385" data-name="Trazado 385" d="M20.375,86.8S-1.227,72.057.055,46.1C1.272,20.138,16.528,7.382,19.477,5.075,21.4,3.024,21.464,2.254,21.592.2c1.346,2.885,1.09,43.139,1.282,47.882C23.45,66.353,21.849,83.34,20.375,86.8Z" transform="translate(0)" fill="#fff" fill-rule="evenodd"/>
      <path id="Trazado_386" data-name="Trazado 386" d="M20.375,86.8S-1.227,72.057.055,46.1C1.272,20.138,16.528,7.382,19.477,5.075,21.4,3.024,21.464,2.254,21.592.2c1.346,2.885,1.09,43.139,1.282,47.882C23.45,66.353,21.849,83.34,20.375,86.8Z" transform="translate(0)" fill="#58aa50" fill-rule="evenodd"/>
    </g>
  </g>
</svg>
