<svg xmlns="http://www.w3.org/2000/svg" xmlns:xlink="http://www.w3.org/1999/xlink" width="422" height="198" viewBox="0 0 422 198">
  <defs>
    <filter id="Rect치ngulo_214" x="0" y="0" width="422" height="198" filterUnits="userSpaceOnUse">
      <feOffset dy="3" input="SourceAlpha"/>
      <feGaussianBlur stdDeviation="3" result="blur"/>
      <feFlood flood-opacity="0.161"/>
      <feComposite operator="in" in2="blur"/>
      <feComposite in="SourceGraphic"/>
    </filter>
    <linearGradient id="linear-gradient" x1="0.682" y1="0.175" x2="0.278" y2="0.898" gradientUnits="objectBoundingBox">
      <stop offset="0" stop-color="#41873f"/>
      <stop offset="0.329" stop-color="#418b3d"/>
      <stop offset="0.635" stop-color="#419637"/>
      <stop offset="0.932" stop-color="#3fa92d"/>
      <stop offset="1" stop-color="#3fae2a"/>
    </linearGradient>
    <linearGradient id="linear-gradient-2" x1="0.433" y1="0.552" x2="1.592" y2="-0.183" gradientUnits="objectBoundingBox">
      <stop offset="0.138" stop-color="#41873f"/>
      <stop offset="0.403" stop-color="#54a044"/>
      <stop offset="0.714" stop-color="#66b848"/>
      <stop offset="0.908" stop-color="#6cc04a"/>
    </linearGradient>
    <linearGradient id="linear-gradient-3" x1="-44.138" y1="0.134" x2="53.279" y2="0.134" gradientUnits="objectBoundingBox">
      <stop offset="0.092" stop-color="#6cc04a"/>
      <stop offset="0.286" stop-color="#66b848"/>
      <stop offset="0.597" stop-color="#54a044"/>
      <stop offset="0.862" stop-color="#41873f"/>
    </linearGradient>
    <linearGradient id="linear-gradient-4" x1="-0.044" y1="0.5" x2="1.015" y2="0.5" xlink:href="#linear-gradient-3"/>
    <linearGradient id="linear-gradient-5" x1="-97.138" y1="0.362" x2="0.279" y2="0.362" xlink:href="#linear-gradient-3"/>
    <linearGradient id="linear-gradient-6" x1="-1.039" y1="0.503" x2="1.008" y2="0.503" xlink:href="#linear-gradient-3"/>
    <linearGradient id="linear-gradient-7" x1="1.306" y1="-2.111" x2="0.044" y2="2.016" xlink:href="#linear-gradient"/>
  </defs>
  <g id="Grupo_289" data-name="Grupo 289" transform="translate(-1179 -5647)">
    <g transform="matrix(1, 0, 0, 1, 1179, 5647)" filter="url(#Rect치ngulo_214)">
      <rect id="Rect치ngulo_214-2" data-name="Rect치ngulo 214" width="404" height="180" rx="10" transform="translate(9 6)" fill="#fff"/>
    </g>
    <g id="nodejs-1" transform="translate(1268.769 5669)">
      <path id="Trazado_387" data-name="Trazado 387" d="M223.816,247.076a4.818,4.818,0,0,1-2.307-.6l-7.3-4.339c-1.1-.6-.549-.824-.22-.934a13.324,13.324,0,0,0,3.3-1.483.5.5,0,0,1,.549.055l5.6,3.35a.7.7,0,0,0,.659,0l21.915-12.688a.631.631,0,0,0,.33-.6V204.51a.632.632,0,0,0-.33-.6l-21.915-12.633a.7.7,0,0,0-.659,0l-21.915,12.633a.689.689,0,0,0-.33.6v25.32a.69.69,0,0,0,.33.6l5.987,3.46c3.241,1.648,5.273-.275,5.273-2.2V206.706a.668.668,0,0,1,.659-.659h2.8a.668.668,0,0,1,.659.659V231.7c0,4.339-2.362,6.866-6.481,6.866-1.263,0-2.252,0-5.053-1.373l-5.767-3.3a4.635,4.635,0,0,1-2.307-4.01v-25.32a4.635,4.635,0,0,1,2.307-4.01l21.915-12.688a4.9,4.9,0,0,1,4.614,0l21.915,12.688a4.636,4.636,0,0,1,2.307,4.01v25.32a4.636,4.636,0,0,1-2.307,4.01l-21.915,12.688a5.618,5.618,0,0,1-2.307.494Zm6.756-17.411c-9.612,0-11.589-4.394-11.589-8.129a.668.668,0,0,1,.659-.659H222.5a.564.564,0,0,1,.6.549c.44,2.911,1.7,4.339,7.525,4.339,4.614,0,6.591-1.044,6.591-3.515,0-1.428-.55-2.471-7.745-3.185-5.987-.6-9.722-1.922-9.722-6.7,0-4.449,3.735-7.086,10-7.086,7.03,0,10.491,2.417,10.93,7.689a.887.887,0,0,1-.165.495.679.679,0,0,1-.44.22h-2.856a.643.643,0,0,1-.6-.494c-.659-3.021-2.362-4.01-6.866-4.01-5.053,0-5.658,1.758-5.658,3.076,0,1.593.714,2.087,7.525,2.966,6.756.879,9.942,2.142,9.942,6.866C241.5,226.919,237.548,229.665,230.572,229.665Z" transform="translate(-103.409 -98.284)" fill="#539e43"/>
      <path id="Trazado_388" data-name="Trazado 388" d="M52.41,49.762a2.8,2.8,0,0,0-1.428-2.417l-23.288-13.4a3.382,3.382,0,0,0-1.263-.385h-.22a2.61,2.61,0,0,0-1.263.385L1.659,47.345A2.794,2.794,0,0,0,.231,49.762L.286,85.793A1.366,1.366,0,0,0,1,87a1.247,1.247,0,0,0,1.373,0l13.841-7.909a2.8,2.8,0,0,0,1.428-2.417V59.814A2.794,2.794,0,0,1,19.071,57.4l5.877-3.406a2.662,2.662,0,0,1,1.428-.385,2.361,2.361,0,0,1,1.373.385L33.626,57.4a2.793,2.793,0,0,1,1.428,2.417V76.676a2.8,2.8,0,0,0,1.428,2.417L50.323,87a1.34,1.34,0,0,0,1.428,0,1.365,1.365,0,0,0,.714-1.209L52.41,49.762ZM164.348.165a1.51,1.51,0,0,0-1.373,0,1.431,1.431,0,0,0-.714,1.208v35.7a.989.989,0,0,1-1.483.879l-5.822-3.35a2.831,2.831,0,0,0-2.8,0L128.866,48.06a2.8,2.8,0,0,0-1.428,2.417V77.334a2.8,2.8,0,0,0,1.428,2.417l23.288,13.457a2.831,2.831,0,0,0,2.8,0l23.288-13.457a2.8,2.8,0,0,0,1.428-2.417V10.381a2.817,2.817,0,0,0-1.428-2.472L164.348.165Zm-2.142,68.327a.63.63,0,0,1-.33.6l-7.964,4.614a.815.815,0,0,1-.714,0L145.234,69.1a.688.688,0,0,1-.33-.6V59.264a.63.63,0,0,1,.33-.6l7.964-4.614a.815.815,0,0,1,.714,0l7.964,4.614a.688.688,0,0,1,.33.6v9.228Zm79.641-9.447a2.743,2.743,0,0,0,1.373-2.417V50.092a2.861,2.861,0,0,0-1.373-2.417l-23.123-13.4a2.831,2.831,0,0,0-2.8,0L192.635,47.73a2.794,2.794,0,0,0-1.428,2.417V77.005a2.794,2.794,0,0,0,1.428,2.417L215.758,92.6a2.728,2.728,0,0,0,2.746,0l14.006-7.8a1.38,1.38,0,0,0,0-2.417l-23.4-13.457a1.431,1.431,0,0,1-.714-1.208v-8.4a1.366,1.366,0,0,1,.714-1.209l7.305-4.174a1.341,1.341,0,0,1,1.428,0l7.3,4.174a1.431,1.431,0,0,1,.714,1.209v6.591a1.365,1.365,0,0,0,.714,1.208,1.34,1.34,0,0,0,1.428,0l13.841-8.074Z" transform="translate(0 0)" fill="#333"/>
      <path id="Trazado_389" data-name="Trazado 389" d="M451.077,121.5a.5.5,0,0,1,.549,0l4.449,2.581a.575.575,0,0,1,.275.494v5.163a.576.576,0,0,1-.275.494l-4.449,2.581a.5.5,0,0,1-.549,0l-4.449-2.581a.577.577,0,0,1-.275-.494v-5.163a.575.575,0,0,1,.275-.494Z" transform="translate(-234.11 -63.714)" fill="#539e43"/>
      <g id="Grupo_285" data-name="Grupo 285" transform="translate(63.835 29.495)">
        <path id="Trazado_390" data-name="Trazado 390" d="M27.76,1.441a2.831,2.831,0,0,0-2.8,0L1.835,14.787A2.743,2.743,0,0,0,.462,17.2V43.952a2.861,2.861,0,0,0,1.373,2.417L24.959,59.716a2.831,2.831,0,0,0,2.8,0L50.884,46.369a2.744,2.744,0,0,0,1.373-2.417V17.2a2.862,2.862,0,0,0-1.373-2.417Z" transform="translate(-0.242 3.448)" fill="url(#linear-gradient)"/>
        <g id="Grupo_283" data-name="Grupo 283" transform="translate(0 4.509)">
          <path id="Trazado_391" data-name="Trazado 391" d="M24.661,1.431,1.483,14.777A2.849,2.849,0,0,0,0,17.194V43.943A2.646,2.646,0,0,0,.714,45.7L26.748,1.1a3.138,3.138,0,0,0-2.087.329Zm2.252,58.55a3.377,3.377,0,0,0,.659-.275L50.751,46.359a2.794,2.794,0,0,0,1.428-2.417V17.194a2.8,2.8,0,0,0-.824-1.922L26.914,59.981Z" transform="translate(0 -1.051)" fill="none"/>
          <path id="Trazado_392" data-name="Trazado 392" d="M51.484,14.893,28.251,1.547a3.814,3.814,0,0,0-.714-.275L1.5,45.872a2.89,2.89,0,0,0,.769.659L25.5,59.878a2.676,2.676,0,0,0,2.142.274L52.089,15.443a2.882,2.882,0,0,0-.6-.549Z" transform="translate(-0.788 -1.167)" fill="url(#linear-gradient-2)"/>
        </g>
        <g id="Grupo_284" data-name="Grupo 284" transform="translate(0 0)">
          <path id="Trazado_393" data-name="Trazado 393" d="M52.179,44V17.249A2.848,2.848,0,0,0,50.7,14.833L27.462,1.486a2.427,2.427,0,0,0-.878-.329L52.014,44.6a1.108,1.108,0,0,0,.165-.6ZM1.483,14.833A2.85,2.85,0,0,0,0,17.25V44a2.97,2.97,0,0,0,1.483,2.417L24.716,59.762a2.586,2.586,0,0,0,1.813.329L1.648,14.778l-.164.055Z" transform="translate(0 3.402)" fill="none"/>
          <path id="Trazado_394" data-name="Trazado 394" d="M50.027.809,49.7.974h.439Z" transform="translate(-26.08 -0.809)" fill-rule="evenodd" fill="url(#linear-gradient-3)"/>
          <path id="Trazado_395" data-name="Trazado 395" d="M52.51,55.605a3.125,3.125,0,0,0,1.373-1.757L28.4,10.347a2.789,2.789,0,0,0-1.977.329L3.351,23.968,28.232,69.336a3.829,3.829,0,0,0,1.044-.329l23.234-13.4Z" transform="translate(-1.758 -5.788)" fill-rule="evenodd" fill="url(#linear-gradient-4)"/>
          <path id="Trazado_396" data-name="Trazado 396" d="M111.118,104.409l-.165-.275v.384l.164-.11Z" transform="translate(-58.225 -55.031)" fill-rule="evenodd" fill="url(#linear-gradient-5)"/>
          <path id="Trazado_397" data-name="Trazado 397" d="M80.045,103.635,56.867,116.981a3.314,3.314,0,0,1-1.044.329l.44.824,25.7-14.884v-.33l-.659-1.1a2.552,2.552,0,0,1-1.263,1.813Z" transform="translate(-29.294 -53.817)" fill-rule="evenodd" fill="url(#linear-gradient-6)"/>
          <path id="Trazado_398" data-name="Trazado 398" d="M80.045,103.635,56.867,116.981a3.314,3.314,0,0,1-1.044.329l.44.824,25.7-14.884v-.33l-.659-1.1a2.552,2.552,0,0,1-1.263,1.813Z" transform="translate(-29.294 -53.817)" fill-rule="evenodd" fill="url(#linear-gradient-7)"/>
        </g>
      </g>
    </g>
  </g>
</svg>
