<svg xmlns="http://www.w3.org/2000/svg" xmlns:xlink="http://www.w3.org/1999/xlink" width="422" height="198" viewBox="0 0 422 198">
  <defs>
    <filter id="Rect치ngulo_216" x="0" y="0" width="422" height="198" filterUnits="userSpaceOnUse">
      <feOffset dy="3" input="SourceAlpha"/>
      <feGaussianBlur stdDeviation="3" result="blur"/>
      <feFlood flood-opacity="0.161"/>
      <feComposite operator="in" in2="blur"/>
      <feComposite in="SourceGraphic"/>
    </filter>
  </defs>
  <g id="Grupo_286" data-name="Grupo 286" transform="translate(-316 -5445)">
    <g transform="matrix(1, 0, 0, 1, 316, 5445)" filter="url(#Rect치ngulo_216)">
      <rect id="Rect치ngulo_216-2" data-name="Rect치ngulo 216" width="404" height="180" rx="10" transform="translate(9 6)" fill="#fff"/>
    </g>
    <g id="react" transform="translate(466.246 5486.215)">
      <path id="Trazado_374" data-name="Trazado 374" d="M.754,54.976c0,9.137,8.922,17.666,22.987,22.474-2.809,14.14-.5,25.538,7.2,29.978,7.915,4.565,19.706,1.405,30.9-8.378,10.91,9.388,21.935,13.083,29.629,8.629,7.908-4.578,10.312-16.748,7.426-31.33,14.65-4.844,22.845-12.116,22.845-21.374,0-8.925-8.938-16.646-22.814-21.423,3.107-15.184.475-26.305-7.545-30.929-7.731-4.458-18.885-.573-29.955,9.061C49.906,1.46,38.863-1.662,30.852,2.975c-7.724,4.471-9.928,16.076-7.11,30.478C10.15,38.191.754,46.087.754,54.976Z" transform="translate(0 0)" fill="#fff"/>
      <path id="Trazado_375" data-name="Trazado 375" d="M103.584,45.5q-1.715-.588-3.459-1.09.289-1.174.534-2.359c2.618-12.709.906-22.948-4.94-26.318-5.6-3.232-14.772.138-24.03,8.194q-1.368,1.194-2.675,2.455-.875-.839-1.78-1.644c-9.7-8.615-19.428-12.245-25.268-8.865-5.6,3.242-7.258,12.867-4.9,24.912q.352,1.789.794,3.559c-1.376.391-2.705.807-3.977,1.251-11.375,3.966-18.64,10.182-18.64,16.628,0,6.659,7.8,13.338,19.647,17.387q1.441.49,2.905.908-.476,1.906-.844,3.836c-2.247,11.835-.492,21.233,5.093,24.454,5.768,3.326,15.45-.093,24.877-8.333q1.118-.977,2.242-2.067,1.415,1.365,2.9,2.65c9.132,7.858,18.15,11.031,23.73,7.8,5.763-3.336,7.636-13.432,5.2-25.714q-.278-1.407-.644-2.872,1.02-.3,2-.624c12.318-4.081,20.331-10.678,20.331-17.426,0-6.47-7.5-12.728-19.1-16.723Z" transform="translate(-7.599 -7.201)" fill="#53c1de"/>
      <path id="Trazado_376" data-name="Trazado 376" d="M105.974,80.342c-.587.194-1.19.382-1.8.564a107.73,107.73,0,0,0-5.441-13.611,107.682,107.682,0,0,0,5.229-13.413c1.1.319,2.166.654,3.194,1.008,9.943,3.422,16.007,8.483,16.007,12.382,0,4.154-6.55,9.546-17.185,13.07Zm-4.413,8.744a38.866,38.866,0,0,1,.516,14.181c-.64,3.449-1.927,5.749-3.518,6.67-3.386,1.96-10.628-.588-18.436-7.308q-1.343-1.155-2.7-2.463A107.86,107.86,0,0,0,86.428,88.73a107.146,107.146,0,0,0,14.552-2.243q.328,1.327.582,2.6ZM56.935,109.6c-3.308,1.168-5.943,1.2-7.535.283-3.389-1.954-4.8-9.5-2.876-19.622q.343-1.794.785-3.567a107.932,107.932,0,0,0,14.479,2.1,111.692,111.692,0,0,0,9.223,11.4q-1,.968-2.047,1.885a38.874,38.874,0,0,1-12.027,7.53Zm-15.5-29.282a38.884,38.884,0,0,1-12.531-6.657c-2.665-2.282-4.01-4.548-4.01-6.387,0-3.912,5.833-8.9,15.561-12.294q1.832-.636,3.7-1.164a110.079,110.079,0,0,0,5.237,13.57,111.751,111.751,0,0,0-5.3,13.763q-1.336-.382-2.652-.83Zm5.2-35.363c-2.019-10.32-.679-18.1,2.7-20.058,3.595-2.081,11.543.886,19.92,8.325.535.476,1.073.973,1.612,1.488a109.993,109.993,0,0,0-9.153,11.327,112.152,112.152,0,0,0-14.337,2.228q-.411-1.646-.738-3.31ZM92.979,56.4q-1.576-2.721-3.267-5.373c3.428.433,6.713,1.008,9.8,1.712a97.91,97.91,0,0,1-3.439,9.252Q94.58,59.161,92.979,56.4Zm-18.9-18.409A98.159,98.159,0,0,1,80.4,45.621q-6.346-.3-12.7,0C69.79,42.865,71.928,40.308,74.079,37.988ZM55.057,56.428q-1.581,2.742-3.033,5.556c-1.337-3.17-2.48-6.287-3.414-9.3,3.066-.686,6.335-1.247,9.741-1.672q-1.71,2.668-3.294,5.413Zm3.392,27.429a97.731,97.731,0,0,1-9.9-1.592c.949-3.063,2.117-6.247,3.483-9.485q1.458,2.815,3.046,5.56,1.621,2.8,3.373,5.518ZM74.206,96.88c-2.175-2.348-4.345-4.944-6.465-7.736q3.086.121,6.286.122,3.285,0,6.486-.144A97.608,97.608,0,0,1,74.206,96.88ZM96.113,72.614a97.479,97.479,0,0,1,3.608,9.452A97.411,97.411,0,0,1,89.7,83.774q1.7-2.7,3.3-5.467,1.621-2.811,3.116-5.693Zm-7.092,3.4q-2.441,4.241-5.154,8.317c-3.188.228-6.482.345-9.839.345s-6.6-.1-9.728-.307q-2.782-4.064-5.251-8.329-2.455-4.24-4.584-8.657,2.121-4.415,4.57-8.662h0q2.446-4.244,5.21-8.294c3.2-.242,6.472-.368,9.784-.368s6.607.127,9.8.371q2.733,4.04,5.177,8.266t4.632,8.621q-2.153,4.429-4.617,8.7ZM98.49,24.758c3.6,2.075,5,10.443,2.737,21.416q-.222,1.072-.483,2.136a109.956,109.956,0,0,0-14.366-2.27,107.825,107.825,0,0,0-9.082-11.335q1.207-1.164,2.471-2.266c7.932-6.9,15.346-9.629,18.724-7.681Z" transform="translate(-12.662 -12.252)" fill="#fff"/>
      <path id="Trazado_377" data-name="Trazado 377" d="M117.638,94.665a9.595,9.595,0,1,1-9.594,9.594,9.594,9.594,0,0,1,9.594-9.594" transform="translate(-56.273 -49.24)" fill="#53c1de"/>
    </g>
  </g>
</svg>
