<svg xmlns="http://www.w3.org/2000/svg" xmlns:xlink="http://www.w3.org/1999/xlink" width="422" height="198" viewBox="0 0 422 198">
  <defs>
    <filter id="Rect치ngulo_217" x="0" y="0" width="422" height="198" filterUnits="userSpaceOnUse">
      <feOffset dy="3" input="SourceAlpha"/>
      <feGaussianBlur stdDeviation="3" result="blur"/>
      <feFlood flood-opacity="0.161"/>
      <feComposite operator="in" in2="blur"/>
      <feComposite in="SourceGraphic"/>
    </filter>
  </defs>
  <g id="Grupo_287" data-name="Grupo 287" transform="translate(-749 -5445)">
    <g transform="matrix(1, 0, 0, 1, 749, 5445)" filter="url(#Rect치ngulo_217)">
      <rect id="Rect치ngulo_217-2" data-name="Rect치ngulo 217" width="404" height="180" rx="10" transform="translate(9 6)" fill="#fff"/>
    </g>
    <path id="sass-1" d="M116.1,58.348A27.813,27.813,0,0,0,103.863,61.2c-1.266-2.505-2.531-4.694-2.742-6.329a17.5,17.5,0,0,1-.237-5.327,42.684,42.684,0,0,1,1.608-5.749c-.027-.237-.29-1.4-3.006-1.424s-5.063.527-5.327,1.239a30.286,30.286,0,0,0-1.134,4.035c-.475,2.479-5.432,11.26-8.254,15.874A16.2,16.2,0,0,1,82.9,58.875a17.5,17.5,0,0,1-.237-5.326A42.7,42.7,0,0,1,84.271,47.8c-.026-.237-.29-1.4-3.006-1.424s-5.063.527-5.327,1.239-.554,2.4-1.134,4.035c-.554,1.635-7.146,16.3-8.86,20.12-.87,1.951-1.635,3.507-2.189,4.562s-.026.079-.079.185c-.475.9-.738,1.4-.738,1.4v.027c-.369.659-.765,1.292-.95,1.292-.132,0-.4-1.767.053-4.192.976-5.09,3.349-13.027,3.323-13.317,0-.132.448-1.53-1.53-2.241a2.4,2.4,0,0,0-2.769.475c-.158,0-.29.422-.29.422s2.136-8.939-4.087-8.939c-3.9,0-9.282,4.245-11.945,8.122-1.688.923-5.274,2.874-9.071,4.957-1.45.791-2.953,1.635-4.377,2.4L31,66.6c-7.542-8.043-21.491-13.738-20.911-24.55.211-3.929,1.582-14.292,26.792-26.844C57.532,4.924,74.066,7.745,76.94,14.021c4.087,8.966-8.834,25.631-30.3,28.031-8.175.923-12.473-2.241-13.554-3.428-1.134-1.239-1.292-1.292-1.714-1.055-.686.369-.264,1.477,0,2.136.633,1.661,3.27,4.615,7.753,6.091,3.929,1.292,13.528,2,25.13-2.479,13-5.037,23.152-19.012,20.173-30.694C81.4.731,61.672-3.172,43.029,3.447,31.927,7.4,19.9,13.573,11.254,21.668.97,31.267-.665,39.652.02,43.133c2.4,12.42,19.513,20.515,26.369,26.5-.343.184-.659.369-.949.527C22.012,71.849,8.96,78.679,5.69,85.9,2,94.079,6.27,99.959,9.118,100.75c8.807,2.452,17.826-1.951,22.7-9.2,4.852-7.252,4.272-16.666,2.03-20.964l-.079-.158,2.69-1.582c1.741-1.028,3.455-1.978,4.957-2.8a32.832,32.832,0,0,0-1.766,8.966c-.369,4.641,1.529,10.653,4.035,13.027a4.464,4.464,0,0,0,3.243,1.055c2.9,0,4.219-2.4,5.669-5.274,1.793-3.507,3.375-7.568,3.375-7.568s-1.978,11,3.428,11c1.978,0,3.955-2.558,4.852-3.876V83.4s.053-.079.158-.264q.166-.245.316-.5v-.053c.791-1.371,2.558-4.509,5.195-9.7,3.4-6.7,6.671-15.083,6.671-15.083a48.13,48.13,0,0,0,1.292,5.432,51.981,51.981,0,0,0,2.821,6.329c-.791,1.108-1.266,1.741-1.266,1.741l.026.026c-.633.844-1.345,1.741-2.083,2.637-2.69,3.217-5.907,6.883-6.329,7.937-.5,1.239-.4,2.162.58,2.9a5.279,5.279,0,0,0,3.323.527,14.8,14.8,0,0,0,4.957-1.134,17.169,17.169,0,0,0,4.272-2.241,9.51,9.51,0,0,0,4.087-8.412A16.913,16.913,0,0,0,86.723,67.6c.237-.343.475-.686.712-1.055a111.312,111.312,0,0,0,7.383-12.789,48.129,48.129,0,0,0,1.292,5.432,38.084,38.084,0,0,0,2.4,5.432c-3.9,3.191-6.355,6.882-7.2,9.308-1.556,4.483-.343,6.513,1.951,6.988a7.019,7.019,0,0,0,3.612-.738,16.37,16.37,0,0,0,4.562-2.347c2.637-1.951,5.168-4.667,5.037-8.333a15.974,15.974,0,0,0-1.134-4.931,25.69,25.69,0,0,1,13.079-1.5c11.734,1.371,14.055,8.7,13.607,11.761a7.877,7.877,0,0,1-3.718,5.274c-.817.5-1.081.686-1,1.055.105.554.475.527,1.187.422.976-.158,6.17-2.505,6.381-8.148.316-7.253-6.566-15.164-18.775-15.085ZM25.6,88.858c-3.876,4.245-9.335,5.854-11.655,4.483-2.505-1.45-1.53-7.7,3.243-12.209a62.045,62.045,0,0,1,9.15-6.83c.554-.343,1.4-.844,2.4-1.45A2.814,2.814,0,0,1,29,72.693c.185-.105.4-.237.606-.369A16.82,16.82,0,0,1,25.6,88.858ZM53.946,69.582c-1.345,3.3-4.193,11.761-5.907,11.286-1.477-.4-2.373-6.8-.29-13.132a29.316,29.316,0,0,1,4.615-8.465C54.5,56.9,56.82,56.107,57.4,57.082,58.086,58.348,54.79,67.525,53.946,69.582Zm23.39,11.181c-.58.29-1.108.5-1.345.343-.185-.105.237-.5.237-.5s2.927-3.138,4.087-4.588c.659-.844,1.45-1.819,2.294-2.927v.316c0,3.8-3.639,6.328-5.274,7.357Zm18.036-4.114c-.422-.316-.369-1.292,1.055-4.351a16.3,16.3,0,0,1,4.008-5.168,6.523,6.523,0,0,1,.4,2.268C100.8,74.144,97.429,75.91,95.372,76.649Z" transform="translate(893.115 5490.48)" fill="#cf649a"/>
  </g>
</svg>
