<svg xmlns="http://www.w3.org/2000/svg" xmlns:xlink="http://www.w3.org/1999/xlink" width="422" height="198" viewBox="0 0 422 198">
  <defs>
    <filter id="Rect치ngulo_218" x="0" y="0" width="422" height="198" filterUnits="userSpaceOnUse">
      <feOffset dy="3" input="SourceAlpha"/>
      <feGaussianBlur stdDeviation="3" result="blur"/>
      <feFlood flood-opacity="0.161"/>
      <feComposite operator="in" in2="blur"/>
      <feComposite in="SourceGraphic"/>
    </filter>
  </defs>
  <g id="Grupo_288" data-name="Grupo 288" transform="translate(-1179 -5445)">
    <g transform="matrix(1, 0, 0, 1, 1179, 5445)" filter="url(#Rect치ngulo_218)">
      <rect id="Rect치ngulo_218-2" data-name="Rect치ngulo 218" width="404" height="180" rx="10" transform="translate(9 6)" fill="#fff"/>
    </g>
    <path id="Trazado_378" data-name="Trazado 378" d="M46.806,0,0,27.289V39.394L19.945,51.356l16.747-9.124V31.621l35.46-20.363L97.068,25.609,97.039,54.3,62.876,73.985,51.436,69.754,36.209,79.467,36.6,102.72l10.483,6.053L94.27,81.883V65.72l-5.306,2.856V78.851L47.093,102.59,41.907,99.6l-.284-17.078,9.827-6.567L63.293,80.18l39.514-22.789-.375-35.041L72.157,5.073,31.33,28.516V39.122l-11.322,6.02L5.361,36.358V30.369L46.682,6.279l8.674,5.527L60.6,8.789ZM74.723,28.55l-8.788,5.331.223,10.276L75.17,49.1l8.788-5.331-.223-10.275Zm.1,4.642,4.94,2.711.122,5.634-4.818,2.923-4.94-2.711-.122-5.634ZM29.6,56.633l-1.19-2.255a1.015,1.015,0,0,0-1.371-.424l-7.788,4.109a1.015,1.015,0,0,0-.424,1.371l1.19,2.256a1.014,1.014,0,0,0,1.371.424L29.173,58a1.015,1.015,0,0,0,.424-1.371m4.5,6.846-1.19-2.255a1.015,1.015,0,0,0-1.41-.4L18.369,68.5a1.015,1.015,0,0,0-.386,1.35l1.19,2.255a1.015,1.015,0,0,0,1.41.4l13.134-7.679a1.015,1.015,0,0,0,.385-1.35m1.226,4.632-15.44,8.876a1.014,1.014,0,0,0-.392,1.353l1.19,2.255a1.015,1.015,0,0,0,1.4.406l15.44-8.876a1.015,1.015,0,0,0,.392-1.354l-1.19-2.255a1.015,1.015,0,0,0-1.4-.406" transform="translate(1339 5487)" fill="#060a13"/>
  </g>
</svg>
